<?xml version="1.0" encoding="utf-8"?>
<!-- Generator: Adobe Illustrator 24.1.1, SVG Export Plug-In . SVG Version: 6.00 Build 0)  -->
<svg version="1.1" id="レイヤー_1" xmlns="http://www.w3.org/2000/svg" xmlns:xlink="http://www.w3.org/1999/xlink" x="0px"
	 y="0px" viewBox="0 0 305 220" style="enable-background:new 0 0 305 220;" xml:space="preserve">
<style type="text/css">
	.st0{fill:none;}
	.st1{fill:none;stroke:#000000;stroke-miterlimit:10;}
	.st2{fill:none;stroke:#000000;stroke-width:2;stroke-miterlimit:10;}
	.st3{fill:none;stroke:#0000FF;stroke-miterlimit:10;}
	.st4{fill:#FFFFFF;stroke:#0000FF;stroke-miterlimit:10;}
	.st5{fill:none;stroke:#000000;stroke-width:1.2624;stroke-miterlimit:10;}
	.st6{fill:none;stroke:#00FF00;stroke-width:1.2624;stroke-miterlimit:10;}
</style>
<g>
	<rect x="215" y="13" class="st0" width="80" height="17.58"/>
	<path d="M226.44,15.57v7.88h1.2c0.12,0,0.2,0.02,0.25,0.07s0.08,0.1,0.08,0.18s-0.03,0.13-0.08,0.18s-0.13,0.07-0.25,0.07h-1.69
		v-8.87h1.69c0.12,0,0.2,0.02,0.25,0.07s0.08,0.11,0.08,0.18c0,0.07-0.03,0.13-0.08,0.18s-0.13,0.07-0.25,0.07H226.44z"/>
	<path d="M235.05,15.79v-0.22h-3.53v0.43c0,0.12-0.02,0.2-0.07,0.25s-0.1,0.08-0.18,0.08c-0.07,0-0.13-0.03-0.18-0.08
		s-0.07-0.13-0.07-0.25v-0.93h4.52v0.79l-1.98,6.33c-0.03,0.1-0.07,0.17-0.11,0.2s-0.09,0.05-0.15,0.05c-0.07,0-0.13-0.02-0.18-0.07
		s-0.07-0.1-0.07-0.16c0-0.04,0.01-0.09,0.04-0.16L235.05,15.79z"/>
	<path d="M240.37,23.45v-7.88h-1.19c-0.12,0-0.2-0.02-0.25-0.07s-0.08-0.11-0.08-0.18c0-0.07,0.03-0.13,0.08-0.18
		s0.13-0.07,0.25-0.07h1.69v8.87h-1.69c-0.12,0-0.2-0.02-0.25-0.07s-0.08-0.1-0.08-0.18c0-0.07,0.03-0.13,0.08-0.18
		s0.13-0.07,0.25-0.07H240.37z"/>
	<path d="M249.96,22.43h-0.77l-1.39-4.87l-1.37,4.87h-0.77l-0.73-6.36h-0.18c-0.12,0-0.2-0.02-0.25-0.07s-0.08-0.1-0.08-0.18
		s0.03-0.13,0.08-0.18s0.13-0.07,0.25-0.07h1.83c0.12,0,0.21,0.02,0.26,0.07s0.08,0.1,0.08,0.18s-0.03,0.13-0.08,0.18
		s-0.14,0.07-0.26,0.07h-1.15l0.65,5.8l1.33-4.78h0.76l1.37,4.78l0.64-5.8h-1.15c-0.12,0-0.2-0.02-0.25-0.07s-0.08-0.1-0.08-0.18
		s0.03-0.13,0.08-0.18s0.13-0.07,0.25-0.07h1.82c0.12,0,0.21,0.02,0.26,0.07s0.08,0.1,0.08,0.18s-0.03,0.13-0.08,0.18
		s-0.14,0.07-0.26,0.07h-0.18L249.96,22.43z"/>
	<path d="M256.42,22.43v-0.71c-0.71,0.6-1.48,0.9-2.29,0.9c-0.59,0-1.05-0.15-1.38-0.45s-0.5-0.67-0.5-1.1
		c0-0.48,0.22-0.89,0.66-1.25s1.08-0.53,1.92-0.53c0.23,0,0.47,0.01,0.74,0.04s0.55,0.08,0.86,0.14v-0.8c0-0.27-0.13-0.5-0.38-0.7
		s-0.63-0.3-1.13-0.3c-0.38,0-0.92,0.11-1.61,0.33c-0.13,0.04-0.21,0.06-0.24,0.06c-0.06,0-0.12-0.02-0.16-0.07
		s-0.07-0.11-0.07-0.18c0-0.07,0.02-0.12,0.06-0.16c0.05-0.06,0.28-0.14,0.66-0.24c0.61-0.16,1.07-0.25,1.38-0.25
		c0.62,0,1.11,0.15,1.45,0.46s0.52,0.65,0.52,1.04v3.26h0.66c0.12,0,0.21,0.02,0.26,0.07s0.08,0.1,0.08,0.18
		c0,0.07-0.03,0.13-0.08,0.18s-0.14,0.07-0.26,0.07H256.42z M256.42,19.98c-0.23-0.07-0.47-0.12-0.73-0.15s-0.53-0.05-0.81-0.05
		c-0.71,0-1.27,0.15-1.68,0.46c-0.3,0.23-0.46,0.51-0.46,0.83c0,0.3,0.12,0.55,0.35,0.75s0.57,0.3,1.02,0.3
		c0.43,0,0.82-0.08,1.19-0.25s0.74-0.44,1.13-0.81V19.98z"/>
	<path d="M262.63,22.43h-0.83l-2.02-4.58h-0.5c-0.12,0-0.2-0.02-0.25-0.07s-0.08-0.11-0.08-0.18c0-0.07,0.03-0.13,0.08-0.18
		s0.13-0.07,0.25-0.07h1.85c0.12,0,0.2,0.02,0.25,0.07s0.08,0.11,0.08,0.18c0,0.07-0.03,0.13-0.08,0.18s-0.13,0.07-0.25,0.07h-0.81
		l1.8,4.08h0.22l1.77-4.08h-0.82c-0.12,0-0.2-0.02-0.25-0.07s-0.08-0.11-0.08-0.18c0-0.07,0.03-0.13,0.08-0.18s0.13-0.07,0.25-0.07
		h1.85c0.12,0,0.21,0.02,0.25,0.07s0.07,0.11,0.07,0.18c0,0.07-0.02,0.13-0.07,0.18s-0.13,0.07-0.25,0.07h-0.5L262.63,22.43z"/>
	<path d="M272.07,20.01h-5.02c0.09,0.64,0.35,1.15,0.8,1.54s1,0.58,1.66,0.58c0.37,0,0.75-0.06,1.15-0.18s0.73-0.28,0.98-0.48
		c0.07-0.06,0.14-0.09,0.19-0.09c0.06,0,0.12,0.02,0.16,0.07s0.07,0.11,0.07,0.17s-0.03,0.13-0.09,0.19c-0.19,0.2-0.52,0.38-1,0.55
		s-0.97,0.25-1.47,0.25c-0.84,0-1.55-0.28-2.11-0.83s-0.85-1.22-0.85-2.01c0-0.71,0.26-1.33,0.79-1.84s1.18-0.77,1.97-0.77
		c0.8,0,1.47,0.26,1.99,0.79S272.07,19.17,272.07,20.01z M271.57,19.51c-0.1-0.54-0.35-0.98-0.77-1.32s-0.91-0.51-1.49-0.51
		s-1.07,0.17-1.48,0.5s-0.67,0.78-0.77,1.33H271.57z"/>
	<path d="M274.49,21.94h3.78v-0.19c0-0.12,0.02-0.2,0.07-0.25s0.11-0.08,0.18-0.08c0.07,0,0.13,0.03,0.18,0.08s0.07,0.13,0.07,0.25
		v0.69H274V21.7c1-0.9,1.97-1.81,2.92-2.74c0.44-0.43,0.74-0.75,0.91-0.96s0.28-0.38,0.34-0.54s0.09-0.31,0.09-0.47
		c0-0.42-0.17-0.79-0.51-1.12s-0.75-0.49-1.23-0.49c-0.43,0-0.81,0.12-1.14,0.37s-0.55,0.55-0.64,0.91
		c-0.02,0.09-0.05,0.15-0.09,0.18c-0.05,0.04-0.1,0.06-0.16,0.06c-0.07,0-0.12-0.02-0.17-0.07s-0.07-0.1-0.07-0.16
		c0-0.19,0.1-0.44,0.31-0.76s0.49-0.57,0.85-0.76s0.73-0.28,1.11-0.28c0.61,0,1.14,0.21,1.58,0.64s0.66,0.91,0.66,1.45
		c0,0.23-0.04,0.43-0.11,0.62s-0.2,0.4-0.38,0.62s-0.5,0.56-0.96,1.02c-1.16,1.14-2.1,2.03-2.82,2.65V21.94z"/>
	<path d="M281.87,21.94v-5.87h-0.42c-0.12,0-0.2-0.02-0.25-0.07s-0.08-0.1-0.08-0.18s0.03-0.13,0.08-0.18s0.13-0.07,0.25-0.07h2.65
		c0.41,0,0.79,0.09,1.13,0.26s0.6,0.37,0.78,0.59c0.31,0.37,0.54,0.76,0.7,1.18c0.11,0.3,0.17,0.66,0.17,1.07v0.68
		c0,0.5-0.11,0.99-0.33,1.46s-0.59,0.88-1.11,1.24c-0.39,0.26-0.83,0.39-1.34,0.39h-2.65c-0.12,0-0.2-0.02-0.25-0.07
		s-0.08-0.11-0.08-0.18c0-0.07,0.03-0.13,0.08-0.18s0.13-0.07,0.25-0.07H281.87z M282.37,21.94h1.79c0.41,0,0.8-0.13,1.16-0.4
		s0.63-0.59,0.81-0.97s0.27-0.75,0.27-1.12v-0.89c0-0.3-0.05-0.58-0.15-0.81c-0.14-0.35-0.34-0.68-0.6-0.99
		c-0.14-0.17-0.35-0.33-0.62-0.47s-0.57-0.21-0.88-0.21h-1.79V21.94z"/>
</g>
<g>
	<rect x="10" y="13" class="st0" width="85" height="17.58"/>
	<path d="M23.94,15.57v7.88h1.2c0.12,0,0.2,0.02,0.25,0.07s0.08,0.1,0.08,0.18s-0.03,0.13-0.08,0.18s-0.13,0.07-0.25,0.07h-1.69
		v-8.87h1.69c0.12,0,0.2,0.02,0.25,0.07s0.08,0.11,0.08,0.18c0,0.07-0.03,0.13-0.08,0.18s-0.13,0.07-0.25,0.07H23.94z"/>
	<path d="M33.16,18.14v1.22c0,1.06-0.25,1.9-0.76,2.51c-0.39,0.48-0.89,0.73-1.49,0.73c-0.29,0-0.56-0.06-0.82-0.17
		s-0.47-0.28-0.65-0.48c-0.11-0.13-0.24-0.34-0.37-0.62s-0.23-0.55-0.29-0.79c-0.09-0.34-0.13-0.73-0.13-1.18v-1.22
		c0-1.06,0.25-1.9,0.76-2.52c0.39-0.48,0.89-0.73,1.49-0.73c0.29,0,0.57,0.06,0.82,0.17s0.47,0.28,0.65,0.48
		c0.12,0.13,0.24,0.34,0.38,0.63s0.23,0.54,0.29,0.78C33.11,17.3,33.16,17.69,33.16,18.14z M32.66,18.21c0-0.46-0.07-0.9-0.2-1.3
		s-0.28-0.72-0.44-0.96c-0.1-0.14-0.22-0.25-0.38-0.35c-0.22-0.14-0.47-0.21-0.75-0.21c-0.55,0-0.98,0.28-1.29,0.84
		s-0.47,1.22-0.47,1.97v1.08c0,0.46,0.07,0.9,0.2,1.3s0.28,0.72,0.45,0.96c0.09,0.13,0.22,0.25,0.38,0.35
		c0.22,0.14,0.47,0.21,0.76,0.21c0.55,0,0.98-0.28,1.29-0.85s0.47-1.22,0.47-1.97V18.21z"/>
	<path d="M37.87,23.45v-7.88h-1.19c-0.12,0-0.2-0.02-0.25-0.07s-0.08-0.11-0.08-0.18c0-0.07,0.03-0.13,0.08-0.18
		s0.13-0.07,0.25-0.07h1.69v8.87h-1.69c-0.12,0-0.2-0.02-0.25-0.07s-0.08-0.1-0.08-0.18c0-0.07,0.03-0.13,0.08-0.18
		s0.13-0.07,0.25-0.07H37.87z"/>
	<path d="M47.46,22.43h-0.77l-1.39-4.87l-1.37,4.87h-0.77l-0.73-6.36h-0.18c-0.12,0-0.2-0.02-0.25-0.07s-0.08-0.1-0.08-0.18
		s0.03-0.13,0.08-0.18s0.13-0.07,0.25-0.07h1.83c0.12,0,0.21,0.02,0.26,0.07s0.08,0.1,0.08,0.18s-0.03,0.13-0.08,0.18
		s-0.14,0.07-0.26,0.07h-1.15l0.65,5.8l1.33-4.78h0.76l1.37,4.78l0.64-5.8h-1.15c-0.12,0-0.2-0.02-0.25-0.07s-0.08-0.1-0.08-0.18
		s0.03-0.13,0.08-0.18s0.13-0.07,0.25-0.07h1.82c0.12,0,0.21,0.02,0.26,0.07s0.08,0.1,0.08,0.18s-0.03,0.13-0.08,0.18
		s-0.14,0.07-0.26,0.07h-0.18L47.46,22.43z"/>
	<path d="M53.92,22.43v-0.71c-0.71,0.6-1.48,0.9-2.29,0.9c-0.59,0-1.05-0.15-1.38-0.45s-0.5-0.67-0.5-1.1
		c0-0.48,0.22-0.89,0.66-1.25s1.08-0.53,1.92-0.53c0.23,0,0.47,0.01,0.74,0.04s0.55,0.08,0.86,0.14v-0.8c0-0.27-0.13-0.5-0.38-0.7
		s-0.63-0.3-1.13-0.3c-0.38,0-0.92,0.11-1.61,0.33c-0.13,0.04-0.21,0.06-0.24,0.06c-0.06,0-0.12-0.02-0.16-0.07
		s-0.07-0.11-0.07-0.18c0-0.07,0.02-0.12,0.06-0.16c0.05-0.06,0.28-0.14,0.66-0.24c0.61-0.16,1.07-0.25,1.38-0.25
		c0.62,0,1.11,0.15,1.45,0.46s0.52,0.65,0.52,1.04v3.26h0.66c0.12,0,0.21,0.02,0.26,0.07s0.08,0.1,0.08,0.18
		c0,0.07-0.03,0.13-0.08,0.18s-0.14,0.07-0.26,0.07H53.92z M53.92,19.98c-0.23-0.07-0.47-0.12-0.73-0.15s-0.53-0.05-0.81-0.05
		c-0.71,0-1.27,0.15-1.68,0.46c-0.3,0.23-0.46,0.51-0.46,0.83c0,0.3,0.12,0.55,0.35,0.75s0.57,0.3,1.02,0.3
		c0.43,0,0.82-0.08,1.19-0.25s0.74-0.44,1.13-0.81V19.98z"/>
	<path d="M60.13,22.43H59.3l-2.02-4.58h-0.5c-0.12,0-0.2-0.02-0.25-0.07s-0.08-0.11-0.08-0.18c0-0.07,0.03-0.13,0.08-0.18
		s0.13-0.07,0.25-0.07h1.85c0.12,0,0.2,0.02,0.25,0.07s0.08,0.11,0.08,0.18c0,0.07-0.03,0.13-0.08,0.18s-0.13,0.07-0.25,0.07h-0.81
		l1.8,4.08h0.22l1.77-4.08h-0.82c-0.12,0-0.2-0.02-0.25-0.07s-0.08-0.11-0.08-0.18c0-0.07,0.03-0.13,0.08-0.18s0.13-0.07,0.25-0.07
		h1.85c0.12,0,0.21,0.02,0.25,0.07s0.07,0.11,0.07,0.18c0,0.07-0.02,0.13-0.07,0.18s-0.13,0.07-0.25,0.07h-0.5L60.13,22.43z"/>
	<path d="M69.57,20.01h-5.02c0.09,0.64,0.35,1.15,0.8,1.54s1,0.58,1.66,0.58c0.37,0,0.75-0.06,1.15-0.18s0.73-0.28,0.98-0.48
		c0.07-0.06,0.14-0.09,0.19-0.09c0.06,0,0.12,0.02,0.16,0.07s0.07,0.11,0.07,0.17s-0.03,0.13-0.09,0.19c-0.19,0.2-0.52,0.38-1,0.55
		s-0.97,0.25-1.47,0.25c-0.84,0-1.55-0.28-2.11-0.83s-0.85-1.22-0.85-2.01c0-0.71,0.26-1.33,0.79-1.84s1.18-0.77,1.97-0.77
		c0.8,0,1.47,0.26,1.99,0.79S69.57,19.17,69.57,20.01z M69.07,19.51c-0.1-0.54-0.35-0.98-0.77-1.32s-0.91-0.51-1.49-0.51
		s-1.07,0.17-1.48,0.5s-0.67,0.78-0.77,1.33H69.07z"/>
	<path d="M75.11,18.43c0.45,0.2,0.8,0.48,1.04,0.83s0.36,0.72,0.36,1.1c0,0.59-0.24,1.11-0.72,1.56S74.71,22.6,74,22.6
		c-0.42,0-0.86-0.09-1.31-0.27s-0.77-0.36-0.95-0.55c-0.06-0.06-0.09-0.13-0.09-0.2c0-0.06,0.02-0.12,0.07-0.16s0.1-0.07,0.16-0.07
		s0.13,0.03,0.21,0.09c0.61,0.45,1.25,0.67,1.92,0.67c0.57,0,1.05-0.18,1.43-0.54s0.58-0.75,0.58-1.19c0-0.29-0.09-0.58-0.28-0.86
		s-0.46-0.5-0.82-0.67s-0.71-0.24-1.08-0.24c-0.12,0-0.2-0.02-0.25-0.07s-0.08-0.1-0.08-0.18c0-0.07,0.02-0.13,0.07-0.18
		s0.12-0.07,0.22-0.07l0.42,0.01c0.44,0,0.81-0.13,1.09-0.4s0.43-0.58,0.43-0.94c0-0.37-0.15-0.69-0.45-0.97s-0.69-0.42-1.18-0.42
		c-0.34,0-0.65,0.06-0.94,0.18s-0.51,0.28-0.69,0.48c-0.06,0.08-0.11,0.13-0.14,0.14s-0.07,0.03-0.11,0.03
		c-0.07,0-0.12-0.02-0.17-0.07S72,16.05,72,15.99c0-0.16,0.17-0.35,0.51-0.59c0.47-0.33,1.01-0.5,1.61-0.5
		c0.62,0,1.13,0.19,1.53,0.56s0.6,0.82,0.6,1.33c0,0.33-0.1,0.64-0.29,0.93S75.49,18.25,75.11,18.43z"/>
	<path d="M79.37,21.94v-5.87h-0.42c-0.12,0-0.2-0.02-0.25-0.07s-0.08-0.1-0.08-0.18s0.03-0.13,0.08-0.18s0.13-0.07,0.25-0.07h2.65
		c0.41,0,0.79,0.09,1.13,0.26s0.6,0.37,0.78,0.59c0.31,0.37,0.54,0.76,0.7,1.18c0.11,0.3,0.17,0.66,0.17,1.07v0.68
		c0,0.5-0.11,0.99-0.33,1.46s-0.59,0.88-1.11,1.24c-0.39,0.26-0.83,0.39-1.34,0.39h-2.65c-0.12,0-0.2-0.02-0.25-0.07
		s-0.08-0.11-0.08-0.18c0-0.07,0.03-0.13,0.08-0.18s0.13-0.07,0.25-0.07H79.37z M79.87,21.94h1.79c0.41,0,0.8-0.13,1.16-0.4
		s0.63-0.59,0.81-0.97s0.27-0.75,0.27-1.12v-0.89c0-0.3-0.05-0.58-0.15-0.81c-0.14-0.35-0.34-0.68-0.6-0.99
		c-0.14-0.17-0.35-0.33-0.62-0.47s-0.57-0.21-0.88-0.21h-1.79V21.94z"/>
</g>
<rect x="10" y="10" class="st1" width="85" height="20"/>
<rect x="215" y="10" class="st1" width="80" height="20"/>
<g>
	<g>
		<line class="st2" x1="95" y1="20" x2="106.14" y2="20"/>
		<g>
			<polygon points="104.16,22.91 115,20 104.16,17.09 			"/>
		</g>
	</g>
</g>
<g>
	<g>
		<line class="st2" x1="195" y1="20" x2="206.14" y2="20"/>
		<g>
			<polygon points="204.16,22.91 215,20 204.16,17.09 			"/>
		</g>
	</g>
</g>
<rect x="115" y="10" class="st4" width="80" height="20"/>
<g>
	<rect x="115" y="14" class="st0" width="80" height="17.58"/>
	<path d="M124.76,17.25V16.9c0-0.12,0.02-0.2,0.07-0.25s0.1-0.08,0.18-0.08s0.13,0.03,0.18,0.08s0.07,0.13,0.07,0.25v1.37
		c0,0.12-0.02,0.21-0.07,0.26s-0.1,0.08-0.18,0.08c-0.07,0-0.12-0.02-0.17-0.07s-0.07-0.12-0.08-0.23c-0.02-0.33-0.2-0.62-0.53-0.87
		c-0.45-0.35-0.97-0.52-1.55-0.52c-0.38,0-0.74,0.08-1.07,0.25c-0.25,0.12-0.45,0.27-0.6,0.45c-0.26,0.3-0.46,0.64-0.62,1.01
		c-0.11,0.27-0.16,0.58-0.16,0.93v0.86c0,0.73,0.27,1.37,0.8,1.91s1.15,0.81,1.85,0.81c0.42,0,0.8-0.09,1.13-0.28
		s0.66-0.46,0.97-0.83c0.07-0.08,0.14-0.12,0.22-0.12c0.07,0,0.13,0.02,0.17,0.06s0.06,0.1,0.06,0.16c0,0.09-0.08,0.23-0.25,0.41
		c-0.32,0.36-0.68,0.63-1.08,0.81s-0.81,0.27-1.22,0.27c-0.36,0-0.72-0.07-1.08-0.21c-0.28-0.11-0.51-0.23-0.7-0.37
		s-0.41-0.38-0.68-0.71s-0.45-0.64-0.55-0.93s-0.15-0.59-0.15-0.93v-1c0-0.48,0.13-0.98,0.39-1.49s0.62-0.89,1.07-1.17
		s0.94-0.41,1.47-0.41C123.47,16.41,124.17,16.69,124.76,17.25z"/>
	<path d="M131.48,23.43v-0.72c-0.67,0.61-1.4,0.91-2.18,0.91c-0.48,0-0.85-0.13-1.1-0.39c-0.32-0.34-0.49-0.74-0.49-1.2v-3.18h-0.66
		c-0.12,0-0.2-0.02-0.25-0.07s-0.08-0.11-0.08-0.18c0-0.07,0.03-0.13,0.08-0.18s0.13-0.07,0.25-0.07h1.15v3.67
		c0,0.32,0.1,0.58,0.3,0.79s0.46,0.31,0.76,0.31c0.8,0,1.54-0.37,2.2-1.1v-3.18h-0.91c-0.12,0-0.2-0.02-0.25-0.07
		s-0.08-0.11-0.08-0.18c0-0.07,0.03-0.13,0.08-0.18s0.13-0.07,0.25-0.07h1.4v4.58h0.42c0.12,0,0.2,0.02,0.25,0.07
		s0.08,0.1,0.08,0.18c0,0.07-0.03,0.13-0.08,0.18s-0.13,0.07-0.25,0.07H131.48z"/>
	<path d="M135.99,18.35h2.67c0.12,0,0.2,0.02,0.25,0.07s0.08,0.11,0.08,0.18c0,0.07-0.03,0.13-0.08,0.18s-0.13,0.07-0.25,0.07h-2.67
		v3.28c0,0.29,0.11,0.52,0.34,0.71s0.56,0.29,1,0.29c0.33,0,0.69-0.05,1.08-0.15s0.69-0.21,0.9-0.34c0.08-0.05,0.14-0.08,0.19-0.08
		c0.06,0,0.12,0.02,0.16,0.07s0.07,0.11,0.07,0.17c0,0.06-0.03,0.11-0.08,0.16c-0.13,0.13-0.43,0.27-0.91,0.42s-0.94,0.23-1.39,0.23
		c-0.57,0-1.03-0.13-1.37-0.4s-0.51-0.63-0.51-1.09v-3.28h-0.91c-0.12,0-0.2-0.02-0.25-0.07s-0.08-0.11-0.08-0.18
		c0-0.07,0.03-0.13,0.08-0.18s0.13-0.07,0.25-0.07h0.91V16.9c0-0.12,0.02-0.2,0.07-0.25s0.11-0.08,0.18-0.08
		c0.07,0,0.13,0.03,0.18,0.08s0.07,0.13,0.07,0.25V18.35z"/>
	<path d="M143.35,17.06v5.87h3.27v-1.96c0-0.12,0.02-0.2,0.07-0.25s0.11-0.08,0.18-0.08c0.07,0,0.13,0.02,0.18,0.07
		s0.07,0.13,0.07,0.25v2.45h-5.44c-0.12,0-0.2-0.02-0.25-0.07s-0.08-0.11-0.08-0.18c0-0.07,0.03-0.13,0.08-0.18s0.13-0.07,0.25-0.07
		h1.17v-5.87h-1.17c-0.12,0-0.2-0.02-0.25-0.07s-0.08-0.1-0.08-0.18s0.03-0.13,0.08-0.18s0.13-0.07,0.25-0.07h2.84
		c0.12,0,0.2,0.02,0.25,0.07s0.08,0.1,0.08,0.18s-0.03,0.13-0.08,0.18s-0.13,0.07-0.25,0.07H143.35z"/>
	<path d="M151.66,18.35v4.58h1.93c0.12,0,0.21,0.02,0.26,0.07s0.08,0.1,0.08,0.18c0,0.07-0.03,0.13-0.08,0.18s-0.14,0.07-0.26,0.07
		h-4.36c-0.12,0-0.2-0.02-0.25-0.07s-0.08-0.11-0.08-0.18c0-0.07,0.03-0.13,0.08-0.18s0.13-0.07,0.25-0.07h1.93v-4.08h-1.44
		c-0.12,0-0.2-0.02-0.25-0.07s-0.08-0.11-0.08-0.18c0-0.07,0.03-0.13,0.08-0.18s0.14-0.07,0.26-0.07H151.66z M151.64,15.83v1.27
		h-0.73v-1.27H151.64z"/>
	<path d="M157.01,18.35v0.74c0.34-0.35,0.65-0.59,0.93-0.72s0.59-0.2,0.94-0.2c0.38,0,0.72,0.08,1.03,0.24
		c0.22,0.12,0.42,0.31,0.59,0.58s0.27,0.55,0.27,0.83v3.1h0.42c0.12,0,0.2,0.02,0.25,0.07s0.08,0.1,0.08,0.18
		c0,0.07-0.03,0.13-0.08,0.18s-0.13,0.07-0.25,0.07h-1.32c-0.12,0-0.21-0.02-0.26-0.07s-0.08-0.11-0.08-0.18
		c0-0.07,0.03-0.13,0.08-0.18s0.14-0.07,0.26-0.07h0.41v-3.02c0-0.35-0.13-0.64-0.38-0.88s-0.59-0.36-1.02-0.36
		c-0.32,0-0.61,0.07-0.84,0.2s-0.58,0.46-1.02,0.98v3.09h0.56c0.12,0,0.2,0.02,0.25,0.07s0.08,0.1,0.08,0.18
		c0,0.07-0.03,0.13-0.08,0.18s-0.13,0.07-0.25,0.07h-1.61c-0.12,0-0.2-0.02-0.25-0.07s-0.08-0.11-0.08-0.18
		c0-0.07,0.03-0.13,0.08-0.18s0.13-0.07,0.25-0.07h0.56v-4.08h-0.42c-0.12,0-0.2-0.02-0.25-0.07s-0.08-0.11-0.08-0.18
		c0-0.07,0.03-0.13,0.08-0.18s0.13-0.07,0.25-0.07H157.01z"/>
	<path d="M168.46,21.01h-5.02c0.09,0.64,0.35,1.15,0.8,1.54s1,0.58,1.66,0.58c0.37,0,0.75-0.06,1.15-0.18s0.73-0.28,0.98-0.48
		c0.07-0.06,0.14-0.09,0.19-0.09c0.06,0,0.12,0.02,0.16,0.07s0.07,0.11,0.07,0.17s-0.03,0.13-0.09,0.19c-0.19,0.2-0.52,0.38-1,0.55
		s-0.97,0.25-1.47,0.25c-0.84,0-1.55-0.28-2.11-0.83s-0.85-1.22-0.85-2.01c0-0.71,0.26-1.33,0.79-1.84s1.18-0.77,1.97-0.77
		c0.8,0,1.47,0.26,1.99,0.79S168.47,20.17,168.46,21.01z M167.97,20.51c-0.1-0.54-0.35-0.98-0.77-1.32s-0.91-0.51-1.49-0.51
		s-1.07,0.17-1.48,0.5s-0.67,0.78-0.77,1.33H167.97z"/>
	<path d="M174.63,18.68c0-0.11,0.02-0.2,0.07-0.25s0.11-0.08,0.18-0.08c0.07,0,0.13,0.03,0.18,0.08s0.07,0.14,0.07,0.26v0.84
		c0,0.12-0.02,0.2-0.07,0.25s-0.11,0.08-0.18,0.08c-0.07,0-0.12-0.02-0.17-0.06s-0.07-0.11-0.08-0.21
		c-0.02-0.23-0.14-0.43-0.36-0.58c-0.32-0.22-0.74-0.33-1.27-0.33c-0.55,0-0.98,0.11-1.28,0.33c-0.23,0.17-0.35,0.36-0.35,0.56
		c0,0.23,0.14,0.43,0.41,0.59c0.19,0.11,0.54,0.19,1.07,0.25c0.68,0.07,1.16,0.16,1.42,0.25c0.38,0.14,0.66,0.33,0.85,0.57
		s0.28,0.5,0.28,0.79c0,0.42-0.2,0.79-0.6,1.12s-0.99,0.49-1.77,0.49s-1.41-0.2-1.91-0.59c0,0.13-0.01,0.22-0.02,0.26
		s-0.04,0.07-0.08,0.1s-0.09,0.04-0.14,0.04c-0.07,0-0.13-0.03-0.18-0.08s-0.07-0.13-0.07-0.25v-1.01c0-0.12,0.02-0.2,0.07-0.25
		s0.1-0.08,0.18-0.08c0.07,0,0.13,0.02,0.18,0.07s0.07,0.11,0.07,0.2c0,0.18,0.04,0.33,0.13,0.45c0.14,0.19,0.35,0.34,0.65,0.47
		s0.67,0.18,1.1,0.18c0.64,0,1.12-0.12,1.43-0.36s0.47-0.49,0.47-0.76c0-0.3-0.16-0.55-0.47-0.73c-0.32-0.18-0.79-0.31-1.4-0.37
		s-1.05-0.14-1.32-0.25s-0.47-0.25-0.62-0.46s-0.22-0.42-0.22-0.66c0-0.42,0.21-0.76,0.62-1s0.91-0.37,1.48-0.37
		C173.65,18.18,174.2,18.34,174.63,18.68z"/>
	<path d="M181.21,19.43c0.45,0.2,0.8,0.48,1.04,0.83s0.36,0.72,0.36,1.1c0,0.59-0.24,1.11-0.72,1.56s-1.08,0.68-1.8,0.68
		c-0.42,0-0.86-0.09-1.31-0.27s-0.77-0.36-0.95-0.55c-0.06-0.06-0.09-0.13-0.09-0.2c0-0.06,0.02-0.12,0.07-0.16s0.1-0.07,0.16-0.07
		s0.13,0.03,0.21,0.09c0.61,0.45,1.25,0.67,1.92,0.67c0.57,0,1.05-0.18,1.43-0.54s0.58-0.75,0.58-1.19c0-0.29-0.09-0.58-0.28-0.86
		s-0.46-0.5-0.82-0.67s-0.71-0.24-1.08-0.24c-0.12,0-0.2-0.02-0.25-0.07s-0.08-0.1-0.08-0.18c0-0.07,0.02-0.13,0.07-0.18
		s0.12-0.07,0.22-0.07l0.42,0.01c0.44,0,0.81-0.13,1.09-0.4s0.43-0.58,0.43-0.94c0-0.37-0.15-0.69-0.45-0.97s-0.69-0.42-1.18-0.42
		c-0.34,0-0.65,0.06-0.94,0.18s-0.51,0.28-0.69,0.48c-0.06,0.08-0.11,0.13-0.14,0.14s-0.07,0.03-0.11,0.03
		c-0.07,0-0.12-0.02-0.17-0.07s-0.07-0.1-0.07-0.16c0-0.16,0.17-0.35,0.51-0.59c0.47-0.33,1.01-0.5,1.61-0.5
		c0.62,0,1.13,0.19,1.53,0.56s0.6,0.82,0.6,1.33c0,0.33-0.1,0.64-0.29,0.93S181.59,19.25,181.21,19.43z"/>
	<path d="M185.47,22.94v-5.87h-0.42c-0.12,0-0.2-0.02-0.25-0.07s-0.08-0.1-0.08-0.18s0.03-0.13,0.08-0.18s0.13-0.07,0.25-0.07h2.65
		c0.41,0,0.79,0.09,1.13,0.26s0.6,0.37,0.78,0.59c0.31,0.37,0.54,0.76,0.7,1.18c0.11,0.3,0.17,0.66,0.17,1.07v0.68
		c0,0.5-0.11,0.99-0.33,1.46s-0.59,0.88-1.11,1.24c-0.39,0.26-0.83,0.39-1.34,0.39h-2.65c-0.12,0-0.2-0.02-0.25-0.07
		s-0.08-0.11-0.08-0.18c0-0.07,0.03-0.13,0.08-0.18s0.13-0.07,0.25-0.07H185.47z M185.97,22.94h1.79c0.41,0,0.8-0.13,1.16-0.4
		s0.63-0.59,0.81-0.97s0.27-0.75,0.27-1.12v-0.89c0-0.3-0.05-0.58-0.15-0.81c-0.14-0.35-0.34-0.68-0.6-0.99
		c-0.14-0.17-0.35-0.33-0.62-0.47s-0.57-0.21-0.88-0.21h-1.79V22.94z"/>
</g>
<g>
	<rect x="10" y="43" class="st0" width="85" height="17.58"/>
	<path d="M16.74,45.57v7.88h1.2c0.12,0,0.2,0.02,0.25,0.07s0.08,0.1,0.08,0.18s-0.03,0.13-0.08,0.18s-0.13,0.07-0.25,0.07h-1.69
		v-8.87h1.69c0.12,0,0.2,0.02,0.25,0.07s0.08,0.11,0.08,0.18c0,0.07-0.03,0.13-0.08,0.18s-0.13,0.07-0.25,0.07H16.74z"/>
	<path d="M23.94,44.97v6.96h1.69c0.12,0,0.2,0.02,0.25,0.07s0.08,0.1,0.08,0.18c0,0.07-0.03,0.13-0.08,0.18s-0.13,0.07-0.25,0.07
		h-3.87c-0.12,0-0.2-0.02-0.25-0.07s-0.08-0.11-0.08-0.18c0-0.07,0.03-0.13,0.08-0.18s0.13-0.07,0.25-0.07h1.69v-6.28l-1.61,0.5
		c-0.08,0.02-0.13,0.04-0.17,0.04c-0.06,0-0.11-0.02-0.16-0.07s-0.07-0.11-0.07-0.17c0-0.06,0.02-0.11,0.06-0.16
		c0.03-0.03,0.1-0.06,0.19-0.1L23.94,44.97z"/>
	<path d="M30.67,53.45v-7.88h-1.19c-0.12,0-0.2-0.02-0.25-0.07s-0.08-0.11-0.08-0.18c0-0.07,0.03-0.13,0.08-0.18
		s0.13-0.07,0.25-0.07h1.69v8.87h-1.69c-0.12,0-0.2-0.02-0.25-0.07s-0.08-0.1-0.08-0.18c0-0.07,0.03-0.13,0.08-0.18
		s0.13-0.07,0.25-0.07H30.67z"/>
	<path d="M38.46,52.43h-0.69l-2.48-6.36h-0.38c-0.09,0-0.15-0.01-0.19-0.03s-0.07-0.05-0.1-0.09s-0.04-0.08-0.04-0.13
		s0.01-0.09,0.04-0.13s0.06-0.07,0.1-0.09s0.1-0.03,0.19-0.03h1.83c0.09,0,0.16,0.01,0.2,0.03s0.07,0.05,0.09,0.09
		s0.04,0.08,0.04,0.13s-0.01,0.09-0.04,0.13s-0.06,0.07-0.1,0.09s-0.1,0.03-0.19,0.03h-0.94l2.29,5.87h0.04l2.26-5.87h-0.94
		c-0.09,0-0.16-0.01-0.2-0.03s-0.07-0.05-0.1-0.09s-0.04-0.08-0.04-0.13s0.01-0.09,0.04-0.13s0.06-0.07,0.1-0.09s0.1-0.03,0.2-0.03
		h1.83c0.09,0,0.16,0.01,0.2,0.03s0.07,0.05,0.1,0.09s0.04,0.08,0.04,0.13s-0.01,0.09-0.04,0.13s-0.06,0.07-0.1,0.09
		s-0.1,0.03-0.2,0.03H40.9L38.46,52.43z"/>
	<path d="M46.71,52.43v-0.71c-0.71,0.6-1.48,0.9-2.29,0.9c-0.59,0-1.05-0.15-1.38-0.45s-0.5-0.67-0.5-1.1
		c0-0.48,0.22-0.89,0.66-1.25s1.08-0.53,1.92-0.53c0.23,0,0.47,0.01,0.74,0.04s0.55,0.08,0.86,0.14v-0.8c0-0.27-0.13-0.5-0.38-0.7
		s-0.63-0.3-1.13-0.3c-0.38,0-0.92,0.11-1.61,0.33c-0.13,0.04-0.21,0.06-0.24,0.06c-0.06,0-0.12-0.02-0.16-0.07
		s-0.07-0.11-0.07-0.18c0-0.07,0.02-0.12,0.06-0.16c0.05-0.06,0.28-0.14,0.66-0.24c0.61-0.16,1.07-0.25,1.38-0.25
		c0.62,0,1.11,0.15,1.45,0.46s0.52,0.65,0.52,1.04v3.26h0.66c0.12,0,0.21,0.02,0.26,0.07s0.08,0.1,0.08,0.18
		c0,0.07-0.03,0.13-0.08,0.18s-0.14,0.07-0.26,0.07H46.71z M46.71,49.98c-0.23-0.07-0.47-0.12-0.73-0.15s-0.53-0.05-0.81-0.05
		c-0.71,0-1.27,0.15-1.68,0.46c-0.3,0.23-0.46,0.51-0.46,0.83c0,0.3,0.12,0.55,0.35,0.75s0.57,0.3,1.02,0.3
		c0.43,0,0.82-0.08,1.19-0.25s0.74-0.44,1.13-0.81V49.98z"/>
	<path d="M51.91,47.35v1.24c0.64-0.58,1.12-0.95,1.44-1.12s0.61-0.25,0.88-0.25c0.29,0,0.57,0.1,0.82,0.3s0.38,0.35,0.38,0.45
		c0,0.07-0.02,0.14-0.07,0.18s-0.11,0.07-0.18,0.07c-0.04,0-0.07-0.01-0.1-0.02s-0.08-0.06-0.15-0.13
		c-0.14-0.14-0.26-0.23-0.36-0.28s-0.2-0.08-0.3-0.08c-0.21,0-0.47,0.09-0.78,0.26s-0.83,0.59-1.57,1.26v2.7h2.18
		c0.12,0,0.21,0.02,0.26,0.07s0.08,0.1,0.08,0.18c0,0.07-0.03,0.13-0.08,0.18s-0.14,0.07-0.26,0.07h-3.86
		c-0.12,0-0.2-0.02-0.25-0.07s-0.08-0.1-0.08-0.17c0-0.07,0.02-0.12,0.07-0.17s0.13-0.07,0.25-0.07h1.19v-4.1h-0.91
		c-0.12,0-0.2-0.02-0.25-0.07s-0.08-0.11-0.08-0.18c0-0.07,0.02-0.13,0.07-0.18s0.13-0.07,0.25-0.07H51.91z"/>
	<path d="M59.96,47.35v4.58h1.93c0.12,0,0.21,0.02,0.26,0.07s0.08,0.1,0.08,0.18c0,0.07-0.03,0.13-0.08,0.18s-0.14,0.07-0.26,0.07
		h-4.36c-0.12,0-0.2-0.02-0.25-0.07s-0.08-0.11-0.08-0.18c0-0.07,0.03-0.13,0.08-0.18s0.13-0.07,0.25-0.07h1.93v-4.08h-1.44
		c-0.12,0-0.2-0.02-0.25-0.07s-0.08-0.11-0.08-0.18c0-0.07,0.03-0.13,0.08-0.18s0.14-0.07,0.26-0.07H59.96z M59.94,44.83v1.27h-0.73
		v-1.27H59.94z"/>
	<path d="M68.32,52.43v-0.71c-0.71,0.6-1.48,0.9-2.29,0.9c-0.59,0-1.05-0.15-1.38-0.45s-0.5-0.67-0.5-1.1
		c0-0.48,0.22-0.89,0.66-1.25s1.08-0.53,1.92-0.53c0.23,0,0.47,0.01,0.74,0.04s0.55,0.08,0.86,0.14v-0.8c0-0.27-0.13-0.5-0.38-0.7
		s-0.63-0.3-1.13-0.3c-0.38,0-0.92,0.11-1.61,0.33c-0.13,0.04-0.21,0.06-0.24,0.06c-0.06,0-0.12-0.02-0.16-0.07
		s-0.07-0.11-0.07-0.18c0-0.07,0.02-0.12,0.06-0.16c0.05-0.06,0.28-0.14,0.66-0.24c0.61-0.16,1.07-0.25,1.38-0.25
		c0.62,0,1.11,0.15,1.45,0.46s0.52,0.65,0.52,1.04v3.26h0.66c0.12,0,0.21,0.02,0.26,0.07s0.08,0.1,0.08,0.18
		c0,0.07-0.03,0.13-0.08,0.18s-0.14,0.07-0.26,0.07H68.32z M68.32,49.98c-0.23-0.07-0.47-0.12-0.73-0.15s-0.53-0.05-0.81-0.05
		c-0.71,0-1.27,0.15-1.68,0.46c-0.3,0.23-0.46,0.51-0.46,0.83c0,0.3,0.12,0.55,0.35,0.75s0.57,0.3,1.02,0.3
		c0.43,0,0.82-0.08,1.19-0.25s0.74-0.44,1.13-0.81V49.98z"/>
	<path d="M72.25,45.07v3.26c0.59-0.77,1.31-1.16,2.15-1.16c0.72,0,1.33,0.26,1.85,0.78s0.77,1.16,0.77,1.92
		c0,0.77-0.26,1.41-0.78,1.95s-1.13,0.8-1.84,0.8c-0.86,0-1.58-0.39-2.15-1.16v0.97h-1.15c-0.12,0-0.2-0.02-0.25-0.07
		s-0.08-0.11-0.08-0.18c0-0.07,0.03-0.13,0.08-0.18s0.13-0.07,0.25-0.07h0.66v-6.36h-0.66c-0.12,0-0.2-0.02-0.25-0.07
		s-0.08-0.11-0.08-0.18c0-0.07,0.03-0.13,0.08-0.18s0.13-0.07,0.25-0.07H72.25z M76.52,49.9c0-0.62-0.21-1.15-0.64-1.58
		s-0.92-0.65-1.49-0.65s-1.07,0.22-1.49,0.65s-0.64,0.96-0.64,1.58s0.21,1.15,0.64,1.58s0.92,0.65,1.49,0.65s1.07-0.22,1.49-0.65
		S76.52,50.52,76.52,49.9z"/>
	<path d="M81.55,45.07v6.86h1.93c0.12,0,0.21,0.02,0.26,0.07s0.08,0.1,0.08,0.18c0,0.07-0.03,0.13-0.08,0.18s-0.14,0.07-0.26,0.07
		h-4.36c-0.12,0-0.2-0.02-0.25-0.07s-0.08-0.11-0.08-0.18c0-0.07,0.03-0.13,0.08-0.18s0.13-0.07,0.25-0.07h1.93v-6.36h-1.42
		c-0.12,0-0.2-0.02-0.25-0.07s-0.08-0.11-0.08-0.18c0-0.07,0.03-0.13,0.08-0.18s0.14-0.07,0.26-0.07H81.55z"/>
	<path d="M91.17,50.01h-5.02c0.09,0.64,0.35,1.15,0.8,1.54s1,0.58,1.66,0.58c0.37,0,0.75-0.06,1.15-0.18s0.73-0.28,0.98-0.48
		c0.07-0.06,0.14-0.09,0.19-0.09c0.06,0,0.12,0.02,0.16,0.07s0.07,0.11,0.07,0.17s-0.03,0.13-0.09,0.19c-0.19,0.2-0.52,0.38-1,0.55
		s-0.97,0.25-1.47,0.25c-0.84,0-1.55-0.28-2.11-0.83s-0.85-1.22-0.85-2.01c0-0.71,0.26-1.33,0.79-1.84s1.18-0.77,1.97-0.77
		c0.8,0,1.47,0.26,1.99,0.79S91.18,49.17,91.17,50.01z M90.67,49.51c-0.1-0.54-0.35-0.98-0.77-1.32s-0.91-0.51-1.49-0.51
		s-1.07,0.17-1.48,0.5s-0.67,0.78-0.77,1.33H90.67z"/>
</g>
<rect x="10" y="40" class="st1" width="85" height="20"/>
<g>
	<rect x="10" y="73" class="st0" width="85" height="17.58"/>
	<path d="M16.74,75.57v7.88h1.2c0.12,0,0.2,0.02,0.25,0.07s0.08,0.1,0.08,0.18s-0.03,0.13-0.08,0.18s-0.13,0.07-0.25,0.07h-1.69
		v-8.87h1.69c0.12,0,0.2,0.02,0.25,0.07s0.08,0.11,0.08,0.18c0,0.07-0.03,0.13-0.08,0.18s-0.13,0.07-0.25,0.07H16.74z"/>
	<path d="M21.58,81.94h3.78v-0.19c0-0.12,0.02-0.2,0.07-0.25s0.11-0.08,0.18-0.08c0.07,0,0.13,0.03,0.18,0.08s0.07,0.13,0.07,0.25
		v0.69H21.1V81.7c1-0.9,1.97-1.81,2.92-2.74c0.44-0.43,0.74-0.75,0.91-0.96s0.28-0.38,0.34-0.54s0.09-0.31,0.09-0.47
		c0-0.42-0.17-0.79-0.51-1.12s-0.75-0.49-1.23-0.49c-0.43,0-0.81,0.12-1.14,0.37s-0.55,0.55-0.64,0.91
		c-0.02,0.09-0.05,0.15-0.09,0.18c-0.05,0.04-0.1,0.06-0.16,0.06c-0.07,0-0.12-0.02-0.17-0.07s-0.07-0.1-0.07-0.16
		c0-0.19,0.1-0.44,0.31-0.76s0.49-0.57,0.85-0.76s0.73-0.28,1.11-0.28c0.61,0,1.14,0.21,1.58,0.64s0.66,0.91,0.66,1.45
		c0,0.23-0.04,0.43-0.11,0.62s-0.2,0.4-0.38,0.62s-0.5,0.56-0.96,1.02c-1.16,1.14-2.1,2.03-2.82,2.65V81.94z"/>
	<path d="M30.67,83.45v-7.88h-1.19c-0.12,0-0.2-0.02-0.25-0.07s-0.08-0.11-0.08-0.18c0-0.07,0.03-0.13,0.08-0.18
		s0.13-0.07,0.25-0.07h1.69v8.87h-1.69c-0.12,0-0.2-0.02-0.25-0.07s-0.08-0.1-0.08-0.18c0-0.07,0.03-0.13,0.08-0.18
		s0.13-0.07,0.25-0.07H30.67z"/>
	<path d="M38.46,82.43h-0.69l-2.48-6.36h-0.38c-0.09,0-0.15-0.01-0.19-0.03s-0.07-0.05-0.1-0.09s-0.04-0.08-0.04-0.13
		s0.01-0.09,0.04-0.13s0.06-0.07,0.1-0.09s0.1-0.03,0.19-0.03h1.83c0.09,0,0.16,0.01,0.2,0.03s0.07,0.05,0.09,0.09
		s0.04,0.08,0.04,0.13s-0.01,0.09-0.04,0.13s-0.06,0.07-0.1,0.09s-0.1,0.03-0.19,0.03h-0.94l2.29,5.87h0.04l2.26-5.87h-0.94
		c-0.09,0-0.16-0.01-0.2-0.03s-0.07-0.05-0.1-0.09s-0.04-0.08-0.04-0.13s0.01-0.09,0.04-0.13s0.06-0.07,0.1-0.09s0.1-0.03,0.2-0.03
		h1.83c0.09,0,0.16,0.01,0.2,0.03s0.07,0.05,0.1,0.09s0.04,0.08,0.04,0.13s-0.01,0.09-0.04,0.13s-0.06,0.07-0.1,0.09
		s-0.1,0.03-0.2,0.03H40.9L38.46,82.43z"/>
	<path d="M46.71,82.43v-0.71c-0.71,0.6-1.48,0.9-2.29,0.9c-0.59,0-1.05-0.15-1.38-0.45s-0.5-0.67-0.5-1.1
		c0-0.48,0.22-0.89,0.66-1.25s1.08-0.53,1.92-0.53c0.23,0,0.47,0.01,0.74,0.04s0.55,0.08,0.86,0.14v-0.8c0-0.27-0.13-0.5-0.38-0.7
		s-0.63-0.3-1.13-0.3c-0.38,0-0.92,0.11-1.61,0.33c-0.13,0.04-0.21,0.06-0.24,0.06c-0.06,0-0.12-0.02-0.16-0.07
		s-0.07-0.11-0.07-0.18c0-0.07,0.02-0.12,0.06-0.16c0.05-0.06,0.28-0.14,0.66-0.24c0.61-0.16,1.07-0.25,1.38-0.25
		c0.62,0,1.11,0.15,1.45,0.46s0.52,0.65,0.52,1.04v3.26h0.66c0.12,0,0.21,0.02,0.26,0.07s0.08,0.1,0.08,0.18
		c0,0.07-0.03,0.13-0.08,0.18s-0.14,0.07-0.26,0.07H46.71z M46.71,79.98c-0.23-0.07-0.47-0.12-0.73-0.15s-0.53-0.05-0.81-0.05
		c-0.71,0-1.27,0.15-1.68,0.46c-0.3,0.23-0.46,0.51-0.46,0.83c0,0.3,0.12,0.55,0.35,0.75s0.57,0.3,1.02,0.3
		c0.43,0,0.82-0.08,1.19-0.25s0.74-0.44,1.13-0.81V79.98z"/>
	<path d="M51.91,77.35v1.24c0.64-0.58,1.12-0.95,1.44-1.12s0.61-0.25,0.88-0.25c0.29,0,0.57,0.1,0.82,0.3s0.38,0.35,0.38,0.45
		c0,0.07-0.02,0.14-0.07,0.18s-0.11,0.07-0.18,0.07c-0.04,0-0.07-0.01-0.1-0.02s-0.08-0.06-0.15-0.13
		c-0.14-0.14-0.26-0.23-0.36-0.28s-0.2-0.08-0.3-0.08c-0.21,0-0.47,0.09-0.78,0.26s-0.83,0.59-1.57,1.26v2.7h2.18
		c0.12,0,0.21,0.02,0.26,0.07s0.08,0.1,0.08,0.18c0,0.07-0.03,0.13-0.08,0.18s-0.14,0.07-0.26,0.07h-3.86
		c-0.12,0-0.2-0.02-0.25-0.07s-0.08-0.1-0.08-0.17c0-0.07,0.02-0.12,0.07-0.17s0.13-0.07,0.25-0.07h1.19v-4.1h-0.91
		c-0.12,0-0.2-0.02-0.25-0.07s-0.08-0.11-0.08-0.18c0-0.07,0.02-0.13,0.07-0.18s0.13-0.07,0.25-0.07H51.91z"/>
	<path d="M59.96,77.35v4.58h1.93c0.12,0,0.21,0.02,0.26,0.07s0.08,0.1,0.08,0.18c0,0.07-0.03,0.13-0.08,0.18s-0.14,0.07-0.26,0.07
		h-4.36c-0.12,0-0.2-0.02-0.25-0.07s-0.08-0.11-0.08-0.18c0-0.07,0.03-0.13,0.08-0.18s0.13-0.07,0.25-0.07h1.93v-4.08h-1.44
		c-0.12,0-0.2-0.02-0.25-0.07s-0.08-0.11-0.08-0.18c0-0.07,0.03-0.13,0.08-0.18s0.14-0.07,0.26-0.07H59.96z M59.94,74.83v1.27h-0.73
		v-1.27H59.94z"/>
	<path d="M68.32,82.43v-0.71c-0.71,0.6-1.48,0.9-2.29,0.9c-0.59,0-1.05-0.15-1.38-0.45s-0.5-0.67-0.5-1.1
		c0-0.48,0.22-0.89,0.66-1.25s1.08-0.53,1.92-0.53c0.23,0,0.47,0.01,0.74,0.04s0.55,0.08,0.86,0.14v-0.8c0-0.27-0.13-0.5-0.38-0.7
		s-0.63-0.3-1.13-0.3c-0.38,0-0.92,0.11-1.61,0.33c-0.13,0.04-0.21,0.06-0.24,0.06c-0.06,0-0.12-0.02-0.16-0.07
		s-0.07-0.11-0.07-0.18c0-0.07,0.02-0.12,0.06-0.16c0.05-0.06,0.28-0.14,0.66-0.24c0.61-0.16,1.07-0.25,1.38-0.25
		c0.62,0,1.11,0.15,1.45,0.46s0.52,0.65,0.52,1.04v3.26h0.66c0.12,0,0.21,0.02,0.26,0.07s0.08,0.1,0.08,0.18
		c0,0.07-0.03,0.13-0.08,0.18s-0.14,0.07-0.26,0.07H68.32z M68.32,79.98c-0.23-0.07-0.47-0.12-0.73-0.15s-0.53-0.05-0.81-0.05
		c-0.71,0-1.27,0.15-1.68,0.46c-0.3,0.23-0.46,0.51-0.46,0.83c0,0.3,0.12,0.55,0.35,0.75s0.57,0.3,1.02,0.3
		c0.43,0,0.82-0.08,1.19-0.25s0.74-0.44,1.13-0.81V79.98z"/>
	<path d="M72.25,75.07v3.26c0.59-0.77,1.31-1.16,2.15-1.16c0.72,0,1.33,0.26,1.85,0.78s0.77,1.16,0.77,1.92
		c0,0.77-0.26,1.41-0.78,1.95s-1.13,0.8-1.84,0.8c-0.86,0-1.58-0.39-2.15-1.16v0.97h-1.15c-0.12,0-0.2-0.02-0.25-0.07
		s-0.08-0.11-0.08-0.18c0-0.07,0.03-0.13,0.08-0.18s0.13-0.07,0.25-0.07h0.66v-6.36h-0.66c-0.12,0-0.2-0.02-0.25-0.07
		s-0.08-0.11-0.08-0.18c0-0.07,0.03-0.13,0.08-0.18s0.13-0.07,0.25-0.07H72.25z M76.52,79.9c0-0.62-0.21-1.15-0.64-1.58
		s-0.92-0.65-1.49-0.65s-1.07,0.22-1.49,0.65s-0.64,0.96-0.64,1.58s0.21,1.15,0.64,1.58s0.92,0.65,1.49,0.65s1.07-0.22,1.49-0.65
		S76.52,80.52,76.52,79.9z"/>
	<path d="M81.55,75.07v6.86h1.93c0.12,0,0.21,0.02,0.26,0.07s0.08,0.1,0.08,0.18c0,0.07-0.03,0.13-0.08,0.18s-0.14,0.07-0.26,0.07
		h-4.36c-0.12,0-0.2-0.02-0.25-0.07s-0.08-0.11-0.08-0.18c0-0.07,0.03-0.13,0.08-0.18s0.13-0.07,0.25-0.07h1.93v-6.36h-1.42
		c-0.12,0-0.2-0.02-0.25-0.07s-0.08-0.11-0.08-0.18c0-0.07,0.03-0.13,0.08-0.18s0.14-0.07,0.26-0.07H81.55z"/>
	<path d="M91.17,80.01h-5.02c0.09,0.64,0.35,1.15,0.8,1.54s1,0.58,1.66,0.58c0.37,0,0.75-0.06,1.15-0.18s0.73-0.28,0.98-0.48
		c0.07-0.06,0.14-0.09,0.19-0.09c0.06,0,0.12,0.02,0.16,0.07s0.07,0.11,0.07,0.17s-0.03,0.13-0.09,0.19c-0.19,0.2-0.52,0.38-1,0.55
		s-0.97,0.25-1.47,0.25c-0.84,0-1.55-0.28-2.11-0.83s-0.85-1.22-0.85-2.01c0-0.71,0.26-1.33,0.79-1.84s1.18-0.77,1.97-0.77
		c0.8,0,1.47,0.26,1.99,0.79S91.18,79.17,91.17,80.01z M90.67,79.51c-0.1-0.54-0.35-0.98-0.77-1.32s-0.91-0.51-1.49-0.51
		s-1.07,0.17-1.48,0.5s-0.67,0.78-0.77,1.33H90.67z"/>
</g>
<rect x="10" y="70" class="st1" width="85" height="20"/>
<polyline class="st2" points="95,200 100,200 100,20 "/>
<line class="st2" x1="100" y1="50" x2="95" y2="50"/>
<g>
	<rect x="10" y="103" class="st0" width="85" height="17.58"/>
	<path d="M16.74,105.57v7.88h1.2c0.12,0,0.2,0.02,0.25,0.07s0.08,0.1,0.08,0.18s-0.03,0.13-0.08,0.18s-0.13,0.07-0.25,0.07h-1.69
		v-8.87h1.69c0.12,0,0.2,0.02,0.25,0.07s0.08,0.11,0.08,0.18c0,0.07-0.03,0.13-0.08,0.18s-0.13,0.07-0.25,0.07H16.74z"/>
	<path d="M24.71,108.43c0.45,0.2,0.8,0.48,1.04,0.83s0.36,0.72,0.36,1.1c0,0.59-0.24,1.11-0.72,1.56s-1.08,0.68-1.8,0.68
		c-0.42,0-0.86-0.09-1.31-0.27s-0.77-0.36-0.95-0.55c-0.06-0.06-0.09-0.13-0.09-0.2c0-0.06,0.02-0.12,0.07-0.16s0.1-0.07,0.16-0.07
		s0.13,0.03,0.21,0.09c0.61,0.45,1.25,0.67,1.92,0.67c0.57,0,1.05-0.18,1.43-0.54s0.58-0.75,0.58-1.19c0-0.29-0.09-0.58-0.28-0.86
		s-0.46-0.5-0.82-0.67s-0.71-0.24-1.08-0.24c-0.12,0-0.2-0.02-0.25-0.07s-0.08-0.1-0.08-0.18c0-0.07,0.02-0.13,0.07-0.18
		s0.12-0.07,0.22-0.07l0.42,0.01c0.44,0,0.81-0.13,1.09-0.4s0.43-0.58,0.43-0.94c0-0.37-0.15-0.69-0.45-0.97s-0.69-0.42-1.18-0.42
		c-0.34,0-0.65,0.06-0.94,0.18s-0.51,0.28-0.69,0.48c-0.06,0.08-0.11,0.13-0.14,0.14s-0.07,0.03-0.11,0.03
		c-0.07,0-0.12-0.02-0.17-0.07s-0.07-0.1-0.07-0.16c0-0.16,0.17-0.35,0.51-0.59c0.47-0.33,1.01-0.5,1.61-0.5
		c0.62,0,1.13,0.19,1.53,0.56s0.6,0.82,0.6,1.33c0,0.33-0.1,0.64-0.29,0.93S25.08,108.25,24.71,108.43z"/>
	<path d="M30.67,113.45v-7.88h-1.19c-0.12,0-0.2-0.02-0.25-0.07s-0.08-0.11-0.08-0.18c0-0.07,0.03-0.13,0.08-0.18
		s0.13-0.07,0.25-0.07h1.69v8.87h-1.69c-0.12,0-0.2-0.02-0.25-0.07s-0.08-0.1-0.08-0.18c0-0.07,0.03-0.13,0.08-0.18
		s0.13-0.07,0.25-0.07H30.67z"/>
	<path d="M38.46,112.43h-0.69l-2.48-6.36h-0.38c-0.09,0-0.15-0.01-0.19-0.03s-0.07-0.05-0.1-0.09s-0.04-0.08-0.04-0.13
		s0.01-0.09,0.04-0.13s0.06-0.07,0.1-0.09s0.1-0.03,0.19-0.03h1.83c0.09,0,0.16,0.01,0.2,0.03s0.07,0.05,0.09,0.09
		s0.04,0.08,0.04,0.13s-0.01,0.09-0.04,0.13s-0.06,0.07-0.1,0.09s-0.1,0.03-0.19,0.03h-0.94l2.29,5.87h0.04l2.26-5.87h-0.94
		c-0.09,0-0.16-0.01-0.2-0.03s-0.07-0.05-0.1-0.09s-0.04-0.08-0.04-0.13s0.01-0.09,0.04-0.13s0.06-0.07,0.1-0.09s0.1-0.03,0.2-0.03
		h1.83c0.09,0,0.16,0.01,0.2,0.03s0.07,0.05,0.1,0.09s0.04,0.08,0.04,0.13s-0.01,0.09-0.04,0.13s-0.06,0.07-0.1,0.09
		s-0.1,0.03-0.2,0.03H40.9L38.46,112.43z"/>
	<path d="M46.71,112.43v-0.71c-0.71,0.6-1.48,0.9-2.29,0.9c-0.59,0-1.05-0.15-1.38-0.45s-0.5-0.67-0.5-1.1
		c0-0.48,0.22-0.89,0.66-1.25s1.08-0.53,1.92-0.53c0.23,0,0.47,0.01,0.74,0.04s0.55,0.08,0.86,0.14v-0.8c0-0.27-0.13-0.5-0.38-0.7
		s-0.63-0.3-1.13-0.3c-0.38,0-0.92,0.11-1.61,0.33c-0.13,0.04-0.21,0.06-0.24,0.06c-0.06,0-0.12-0.02-0.16-0.07
		s-0.07-0.11-0.07-0.18c0-0.07,0.02-0.12,0.06-0.16c0.05-0.06,0.28-0.14,0.66-0.24c0.61-0.16,1.07-0.25,1.38-0.25
		c0.62,0,1.11,0.15,1.45,0.46s0.52,0.65,0.52,1.04v3.26h0.66c0.12,0,0.21,0.02,0.26,0.07s0.08,0.1,0.08,0.18
		c0,0.07-0.03,0.13-0.08,0.18s-0.14,0.07-0.26,0.07H46.71z M46.71,109.98c-0.23-0.07-0.47-0.12-0.73-0.15s-0.53-0.05-0.81-0.05
		c-0.71,0-1.27,0.15-1.68,0.46c-0.3,0.23-0.46,0.51-0.46,0.83c0,0.3,0.12,0.55,0.35,0.75s0.57,0.3,1.02,0.3
		c0.43,0,0.82-0.08,1.19-0.25s0.74-0.44,1.13-0.81V109.98z"/>
	<path d="M51.91,107.35v1.24c0.64-0.58,1.12-0.95,1.44-1.12s0.61-0.25,0.88-0.25c0.29,0,0.57,0.1,0.82,0.3s0.38,0.35,0.38,0.45
		c0,0.07-0.02,0.14-0.07,0.18s-0.11,0.07-0.18,0.07c-0.04,0-0.07-0.01-0.1-0.02s-0.08-0.06-0.15-0.13
		c-0.14-0.14-0.26-0.23-0.36-0.28s-0.2-0.08-0.3-0.08c-0.21,0-0.47,0.09-0.78,0.26s-0.83,0.59-1.57,1.26v2.7h2.18
		c0.12,0,0.21,0.02,0.26,0.07s0.08,0.1,0.08,0.18c0,0.07-0.03,0.13-0.08,0.18s-0.14,0.07-0.26,0.07h-3.86
		c-0.12,0-0.2-0.02-0.25-0.07s-0.08-0.1-0.08-0.17c0-0.07,0.02-0.12,0.07-0.17s0.13-0.07,0.25-0.07h1.19v-4.1h-0.91
		c-0.12,0-0.2-0.02-0.25-0.07s-0.08-0.11-0.08-0.18c0-0.07,0.02-0.13,0.07-0.18s0.13-0.07,0.25-0.07H51.91z"/>
	<path d="M59.96,107.35v4.58h1.93c0.12,0,0.21,0.02,0.26,0.07s0.08,0.1,0.08,0.18c0,0.07-0.03,0.13-0.08,0.18s-0.14,0.07-0.26,0.07
		h-4.36c-0.12,0-0.2-0.02-0.25-0.07s-0.08-0.11-0.08-0.18c0-0.07,0.03-0.13,0.08-0.18s0.13-0.07,0.25-0.07h1.93v-4.08h-1.44
		c-0.12,0-0.2-0.02-0.25-0.07s-0.08-0.11-0.08-0.18c0-0.07,0.03-0.13,0.08-0.18s0.14-0.07,0.26-0.07H59.96z M59.94,104.83v1.27
		h-0.73v-1.27H59.94z"/>
	<path d="M68.32,112.43v-0.71c-0.71,0.6-1.48,0.9-2.29,0.9c-0.59,0-1.05-0.15-1.38-0.45s-0.5-0.67-0.5-1.1
		c0-0.48,0.22-0.89,0.66-1.25s1.08-0.53,1.92-0.53c0.23,0,0.47,0.01,0.74,0.04s0.55,0.08,0.86,0.14v-0.8c0-0.27-0.13-0.5-0.38-0.7
		s-0.63-0.3-1.13-0.3c-0.38,0-0.92,0.11-1.61,0.33c-0.13,0.04-0.21,0.06-0.24,0.06c-0.06,0-0.12-0.02-0.16-0.07
		s-0.07-0.11-0.07-0.18c0-0.07,0.02-0.12,0.06-0.16c0.05-0.06,0.28-0.14,0.66-0.24c0.61-0.16,1.07-0.25,1.38-0.25
		c0.62,0,1.11,0.15,1.45,0.46s0.52,0.65,0.52,1.04v3.26h0.66c0.12,0,0.21,0.02,0.26,0.07s0.08,0.1,0.08,0.18
		c0,0.07-0.03,0.13-0.08,0.18s-0.14,0.07-0.26,0.07H68.32z M68.32,109.98c-0.23-0.07-0.47-0.12-0.73-0.15s-0.53-0.05-0.81-0.05
		c-0.71,0-1.27,0.15-1.68,0.46c-0.3,0.23-0.46,0.51-0.46,0.83c0,0.3,0.12,0.55,0.35,0.75s0.57,0.3,1.02,0.3
		c0.43,0,0.82-0.08,1.19-0.25s0.74-0.44,1.13-0.81V109.98z"/>
	<path d="M72.25,105.07v3.26c0.59-0.77,1.31-1.16,2.15-1.16c0.72,0,1.33,0.26,1.85,0.78s0.77,1.16,0.77,1.92
		c0,0.77-0.26,1.41-0.78,1.95s-1.13,0.8-1.84,0.8c-0.86,0-1.58-0.39-2.15-1.16v0.97h-1.15c-0.12,0-0.2-0.02-0.25-0.07
		s-0.08-0.11-0.08-0.18c0-0.07,0.03-0.13,0.08-0.18s0.13-0.07,0.25-0.07h0.66v-6.36h-0.66c-0.12,0-0.2-0.02-0.25-0.07
		s-0.08-0.11-0.08-0.18c0-0.07,0.03-0.13,0.08-0.18s0.13-0.07,0.25-0.07H72.25z M76.52,109.9c0-0.62-0.21-1.15-0.64-1.58
		s-0.92-0.65-1.49-0.65s-1.07,0.22-1.49,0.65s-0.64,0.96-0.64,1.58s0.21,1.15,0.64,1.58s0.92,0.65,1.49,0.65s1.07-0.22,1.49-0.65
		S76.52,110.52,76.52,109.9z"/>
	<path d="M81.55,105.07v6.86h1.93c0.12,0,0.21,0.02,0.26,0.07s0.08,0.1,0.08,0.18c0,0.07-0.03,0.13-0.08,0.18s-0.14,0.07-0.26,0.07
		h-4.36c-0.12,0-0.2-0.02-0.25-0.07s-0.08-0.11-0.08-0.18c0-0.07,0.03-0.13,0.08-0.18s0.13-0.07,0.25-0.07h1.93v-6.36h-1.42
		c-0.12,0-0.2-0.02-0.25-0.07s-0.08-0.11-0.08-0.18c0-0.07,0.03-0.13,0.08-0.18s0.14-0.07,0.26-0.07H81.55z"/>
	<path d="M91.17,110.01h-5.02c0.09,0.64,0.35,1.15,0.8,1.54s1,0.58,1.66,0.58c0.37,0,0.75-0.06,1.15-0.18s0.73-0.28,0.98-0.48
		c0.07-0.06,0.14-0.09,0.19-0.09c0.06,0,0.12,0.02,0.16,0.07s0.07,0.11,0.07,0.17s-0.03,0.13-0.09,0.19c-0.19,0.2-0.52,0.38-1,0.55
		s-0.97,0.25-1.47,0.25c-0.84,0-1.55-0.28-2.11-0.83s-0.85-1.22-0.85-2.01c0-0.71,0.26-1.33,0.79-1.84s1.18-0.77,1.97-0.77
		c0.8,0,1.47,0.26,1.99,0.79S91.18,109.17,91.17,110.01z M90.67,109.51c-0.1-0.54-0.35-0.98-0.77-1.32s-0.91-0.51-1.49-0.51
		s-1.07,0.17-1.48,0.5s-0.67,0.78-0.77,1.33H90.67z"/>
</g>
<rect x="10" y="100" class="st1" width="85" height="20"/>
<g>
	<rect x="10" y="133" class="st0" width="85" height="17.58"/>
	<path d="M16.74,135.57v7.88h1.2c0.12,0,0.2,0.02,0.25,0.07s0.08,0.1,0.08,0.18s-0.03,0.13-0.08,0.18s-0.13,0.07-0.25,0.07h-1.69
		v-8.87h1.69c0.12,0,0.2,0.02,0.25,0.07s0.08,0.11,0.08,0.18c0,0.07-0.03,0.13-0.08,0.18s-0.13,0.07-0.25,0.07H16.74z"/>
	<path d="M24.61,140.37h-3.26v-0.57l2.74-4.73h1.03v4.8h0.41c0.12,0,0.21,0.02,0.26,0.07s0.08,0.1,0.08,0.18
		c0,0.07-0.03,0.13-0.08,0.18s-0.14,0.07-0.26,0.07h-0.41v1.56h0.41c0.12,0,0.21,0.02,0.26,0.07s0.08,0.1,0.08,0.18
		c0,0.07-0.03,0.13-0.08,0.18s-0.14,0.07-0.26,0.07h-1.83c-0.12,0-0.21-0.02-0.26-0.07s-0.08-0.11-0.08-0.18
		c0-0.07,0.03-0.13,0.08-0.18s0.14-0.07,0.26-0.07h0.92V140.37z M24.61,139.88v-4.31h-0.26l-2.49,4.31H24.61z"/>
	<path d="M30.67,143.45v-7.88h-1.19c-0.12,0-0.2-0.02-0.25-0.07s-0.08-0.11-0.08-0.18c0-0.07,0.03-0.13,0.08-0.18
		s0.13-0.07,0.25-0.07h1.69v8.87h-1.69c-0.12,0-0.2-0.02-0.25-0.07s-0.08-0.1-0.08-0.18c0-0.07,0.03-0.13,0.08-0.18
		s0.13-0.07,0.25-0.07H30.67z"/>
	<path d="M38.46,142.43h-0.69l-2.48-6.36h-0.38c-0.09,0-0.15-0.01-0.19-0.03s-0.07-0.05-0.1-0.09s-0.04-0.08-0.04-0.13
		s0.01-0.09,0.04-0.13s0.06-0.07,0.1-0.09s0.1-0.03,0.19-0.03h1.83c0.09,0,0.16,0.01,0.2,0.03s0.07,0.05,0.09,0.09
		s0.04,0.08,0.04,0.13s-0.01,0.09-0.04,0.13s-0.06,0.07-0.1,0.09s-0.1,0.03-0.19,0.03h-0.94l2.29,5.87h0.04l2.26-5.87h-0.94
		c-0.09,0-0.16-0.01-0.2-0.03s-0.07-0.05-0.1-0.09s-0.04-0.08-0.04-0.13s0.01-0.09,0.04-0.13s0.06-0.07,0.1-0.09s0.1-0.03,0.2-0.03
		h1.83c0.09,0,0.16,0.01,0.2,0.03s0.07,0.05,0.1,0.09s0.04,0.08,0.04,0.13s-0.01,0.09-0.04,0.13s-0.06,0.07-0.1,0.09
		s-0.1,0.03-0.2,0.03H40.9L38.46,142.43z"/>
	<path d="M46.71,142.43v-0.71c-0.71,0.6-1.48,0.9-2.29,0.9c-0.59,0-1.05-0.15-1.38-0.45s-0.5-0.67-0.5-1.1
		c0-0.48,0.22-0.89,0.66-1.25s1.08-0.53,1.92-0.53c0.23,0,0.47,0.01,0.74,0.04s0.55,0.08,0.86,0.14v-0.8c0-0.27-0.13-0.5-0.38-0.7
		s-0.63-0.3-1.13-0.3c-0.38,0-0.92,0.11-1.61,0.33c-0.13,0.04-0.21,0.06-0.24,0.06c-0.06,0-0.12-0.02-0.16-0.07
		s-0.07-0.11-0.07-0.18c0-0.07,0.02-0.12,0.06-0.16c0.05-0.06,0.28-0.14,0.66-0.24c0.61-0.16,1.07-0.25,1.38-0.25
		c0.62,0,1.11,0.15,1.45,0.46s0.52,0.65,0.52,1.04v3.26h0.66c0.12,0,0.21,0.02,0.26,0.07s0.08,0.1,0.08,0.18
		c0,0.07-0.03,0.13-0.08,0.18s-0.14,0.07-0.26,0.07H46.71z M46.71,139.98c-0.23-0.07-0.47-0.12-0.73-0.15s-0.53-0.05-0.81-0.05
		c-0.71,0-1.27,0.15-1.68,0.46c-0.3,0.23-0.46,0.51-0.46,0.83c0,0.3,0.12,0.55,0.35,0.75s0.57,0.3,1.02,0.3
		c0.43,0,0.82-0.08,1.19-0.25s0.74-0.44,1.13-0.81V139.98z"/>
	<path d="M51.91,137.35v1.24c0.64-0.58,1.12-0.95,1.44-1.12s0.61-0.25,0.88-0.25c0.29,0,0.57,0.1,0.82,0.3s0.38,0.35,0.38,0.45
		c0,0.07-0.02,0.14-0.07,0.18s-0.11,0.07-0.18,0.07c-0.04,0-0.07-0.01-0.1-0.02s-0.08-0.06-0.15-0.13
		c-0.14-0.14-0.26-0.23-0.36-0.28s-0.2-0.08-0.3-0.08c-0.21,0-0.47,0.09-0.78,0.26s-0.83,0.59-1.57,1.26v2.7h2.18
		c0.12,0,0.21,0.02,0.26,0.07s0.08,0.1,0.08,0.18c0,0.07-0.03,0.13-0.08,0.18s-0.14,0.07-0.26,0.07h-3.86
		c-0.12,0-0.2-0.02-0.25-0.07s-0.08-0.1-0.08-0.17c0-0.07,0.02-0.12,0.07-0.17s0.13-0.07,0.25-0.07h1.19v-4.1h-0.91
		c-0.12,0-0.2-0.02-0.25-0.07s-0.08-0.11-0.08-0.18c0-0.07,0.02-0.13,0.07-0.18s0.13-0.07,0.25-0.07H51.91z"/>
	<path d="M59.96,137.35v4.58h1.93c0.12,0,0.21,0.02,0.26,0.07s0.08,0.1,0.08,0.18c0,0.07-0.03,0.13-0.08,0.18s-0.14,0.07-0.26,0.07
		h-4.36c-0.12,0-0.2-0.02-0.25-0.07s-0.08-0.11-0.08-0.18c0-0.07,0.03-0.13,0.08-0.18s0.13-0.07,0.25-0.07h1.93v-4.08h-1.44
		c-0.12,0-0.2-0.02-0.25-0.07s-0.08-0.11-0.08-0.18c0-0.07,0.03-0.13,0.08-0.18s0.14-0.07,0.26-0.07H59.96z M59.94,134.83v1.27
		h-0.73v-1.27H59.94z"/>
	<path d="M68.32,142.43v-0.71c-0.71,0.6-1.48,0.9-2.29,0.9c-0.59,0-1.05-0.15-1.38-0.45s-0.5-0.67-0.5-1.1
		c0-0.48,0.22-0.89,0.66-1.25s1.08-0.53,1.92-0.53c0.23,0,0.47,0.01,0.74,0.04s0.55,0.08,0.86,0.14v-0.8c0-0.27-0.13-0.5-0.38-0.7
		s-0.63-0.3-1.13-0.3c-0.38,0-0.92,0.11-1.61,0.33c-0.13,0.04-0.21,0.06-0.24,0.06c-0.06,0-0.12-0.02-0.16-0.07
		s-0.07-0.11-0.07-0.18c0-0.07,0.02-0.12,0.06-0.16c0.05-0.06,0.28-0.14,0.66-0.24c0.61-0.16,1.07-0.25,1.38-0.25
		c0.62,0,1.11,0.15,1.45,0.46s0.52,0.65,0.52,1.04v3.26h0.66c0.12,0,0.21,0.02,0.26,0.07s0.08,0.1,0.08,0.18
		c0,0.07-0.03,0.13-0.08,0.18s-0.14,0.07-0.26,0.07H68.32z M68.32,139.98c-0.23-0.07-0.47-0.12-0.73-0.15s-0.53-0.05-0.81-0.05
		c-0.71,0-1.27,0.15-1.68,0.46c-0.3,0.23-0.46,0.51-0.46,0.83c0,0.3,0.12,0.55,0.35,0.75s0.57,0.3,1.02,0.3
		c0.43,0,0.82-0.08,1.19-0.25s0.74-0.44,1.13-0.81V139.98z"/>
	<path d="M72.25,135.07v3.26c0.59-0.77,1.31-1.16,2.15-1.16c0.72,0,1.33,0.26,1.85,0.78s0.77,1.16,0.77,1.92
		c0,0.77-0.26,1.41-0.78,1.95s-1.13,0.8-1.84,0.8c-0.86,0-1.58-0.39-2.15-1.16v0.97h-1.15c-0.12,0-0.2-0.02-0.25-0.07
		s-0.08-0.11-0.08-0.18c0-0.07,0.03-0.13,0.08-0.18s0.13-0.07,0.25-0.07h0.66v-6.36h-0.66c-0.12,0-0.2-0.02-0.25-0.07
		s-0.08-0.11-0.08-0.18c0-0.07,0.03-0.13,0.08-0.18s0.13-0.07,0.25-0.07H72.25z M76.52,139.9c0-0.62-0.21-1.15-0.64-1.58
		s-0.92-0.65-1.49-0.65s-1.07,0.22-1.49,0.65s-0.64,0.96-0.64,1.58s0.21,1.15,0.64,1.58s0.92,0.65,1.49,0.65s1.07-0.22,1.49-0.65
		S76.52,140.52,76.52,139.9z"/>
	<path d="M81.55,135.07v6.86h1.93c0.12,0,0.21,0.02,0.26,0.07s0.08,0.1,0.08,0.18c0,0.07-0.03,0.13-0.08,0.18s-0.14,0.07-0.26,0.07
		h-4.36c-0.12,0-0.2-0.02-0.25-0.07s-0.08-0.11-0.08-0.18c0-0.07,0.03-0.13,0.08-0.18s0.13-0.07,0.25-0.07h1.93v-6.36h-1.42
		c-0.12,0-0.2-0.02-0.25-0.07s-0.08-0.11-0.08-0.18c0-0.07,0.03-0.13,0.08-0.18s0.14-0.07,0.26-0.07H81.55z"/>
	<path d="M91.17,140.01h-5.02c0.09,0.64,0.35,1.15,0.8,1.54s1,0.58,1.66,0.58c0.37,0,0.75-0.06,1.15-0.18s0.73-0.28,0.98-0.48
		c0.07-0.06,0.14-0.09,0.19-0.09c0.06,0,0.12,0.02,0.16,0.07s0.07,0.11,0.07,0.17s-0.03,0.13-0.09,0.19c-0.19,0.2-0.52,0.38-1,0.55
		s-0.97,0.25-1.47,0.25c-0.84,0-1.55-0.28-2.11-0.83s-0.85-1.22-0.85-2.01c0-0.71,0.26-1.33,0.79-1.84s1.18-0.77,1.97-0.77
		c0.8,0,1.47,0.26,1.99,0.79S91.18,139.17,91.17,140.01z M90.67,139.51c-0.1-0.54-0.35-0.98-0.77-1.32s-0.91-0.51-1.49-0.51
		s-1.07,0.17-1.48,0.5s-0.67,0.78-0.77,1.33H90.67z"/>
</g>
<rect x="10" y="130" class="st1" width="85" height="20"/>
<g>
	<rect x="10" y="163" class="st0" width="85" height="17.58"/>
	<path d="M16.74,165.57v7.88h1.2c0.12,0,0.2,0.02,0.25,0.07s0.08,0.1,0.08,0.18s-0.03,0.13-0.08,0.18s-0.13,0.07-0.25,0.07h-1.69
		v-8.87h1.69c0.12,0,0.2,0.02,0.25,0.07s0.08,0.11,0.08,0.18c0,0.07-0.03,0.13-0.08,0.18s-0.13,0.07-0.25,0.07H16.74z"/>
	<path d="M22.34,165.57v2.41c0.29-0.12,0.57-0.21,0.83-0.27s0.52-0.09,0.76-0.09c0.62,0,1.13,0.22,1.55,0.65s0.62,1,0.62,1.71
		c0,0.78-0.23,1.41-0.7,1.9s-1.05,0.73-1.76,0.73c-0.46,0-0.91-0.1-1.34-0.31c-0.3-0.14-0.58-0.32-0.83-0.54
		c-0.15-0.13-0.22-0.24-0.22-0.32c0-0.07,0.02-0.13,0.07-0.18s0.1-0.07,0.16-0.07c0.07,0,0.14,0.04,0.21,0.11
		c0.59,0.55,1.23,0.83,1.93,0.83c0.57,0,1.05-0.2,1.42-0.59s0.56-0.92,0.56-1.57c0-0.55-0.16-1-0.49-1.34s-0.74-0.51-1.24-0.51
		c-0.51,0-1.02,0.13-1.54,0.4c-0.13,0.06-0.21,0.09-0.26,0.09c-0.07,0-0.13-0.02-0.17-0.07s-0.06-0.11-0.06-0.2v-3.26h3.43
		c0.12,0,0.2,0.02,0.25,0.07s0.08,0.11,0.08,0.18c0,0.07-0.03,0.13-0.08,0.18s-0.13,0.07-0.25,0.07H22.34z"/>
	<path d="M30.67,173.45v-7.88h-1.19c-0.12,0-0.2-0.02-0.25-0.07s-0.08-0.11-0.08-0.18c0-0.07,0.03-0.13,0.08-0.18
		s0.13-0.07,0.25-0.07h1.69v8.87h-1.69c-0.12,0-0.2-0.02-0.25-0.07s-0.08-0.1-0.08-0.18c0-0.07,0.03-0.13,0.08-0.18
		s0.13-0.07,0.25-0.07H30.67z"/>
	<path d="M38.46,172.43h-0.69l-2.48-6.36h-0.38c-0.09,0-0.15-0.01-0.19-0.03s-0.07-0.05-0.1-0.09s-0.04-0.08-0.04-0.13
		s0.01-0.09,0.04-0.13s0.06-0.07,0.1-0.09s0.1-0.03,0.19-0.03h1.83c0.09,0,0.16,0.01,0.2,0.03s0.07,0.05,0.09,0.09
		s0.04,0.08,0.04,0.13s-0.01,0.09-0.04,0.13s-0.06,0.07-0.1,0.09s-0.1,0.03-0.19,0.03h-0.94l2.29,5.87h0.04l2.26-5.87h-0.94
		c-0.09,0-0.16-0.01-0.2-0.03s-0.07-0.05-0.1-0.09s-0.04-0.08-0.04-0.13s0.01-0.09,0.04-0.13s0.06-0.07,0.1-0.09s0.1-0.03,0.2-0.03
		h1.83c0.09,0,0.16,0.01,0.2,0.03s0.07,0.05,0.1,0.09s0.04,0.08,0.04,0.13s-0.01,0.09-0.04,0.13s-0.06,0.07-0.1,0.09
		s-0.1,0.03-0.2,0.03H40.9L38.46,172.43z"/>
	<path d="M46.71,172.43v-0.71c-0.71,0.6-1.48,0.9-2.29,0.9c-0.59,0-1.05-0.15-1.38-0.45s-0.5-0.67-0.5-1.1
		c0-0.48,0.22-0.89,0.66-1.25s1.08-0.53,1.92-0.53c0.23,0,0.47,0.01,0.74,0.04s0.55,0.08,0.86,0.14v-0.8c0-0.27-0.13-0.5-0.38-0.7
		s-0.63-0.3-1.13-0.3c-0.38,0-0.92,0.11-1.61,0.33c-0.13,0.04-0.21,0.06-0.24,0.06c-0.06,0-0.12-0.02-0.16-0.07
		s-0.07-0.11-0.07-0.18c0-0.07,0.02-0.12,0.06-0.16c0.05-0.06,0.28-0.14,0.66-0.24c0.61-0.16,1.07-0.25,1.38-0.25
		c0.62,0,1.11,0.15,1.45,0.46s0.52,0.65,0.52,1.04v3.26h0.66c0.12,0,0.21,0.02,0.26,0.07s0.08,0.1,0.08,0.18
		c0,0.07-0.03,0.13-0.08,0.18s-0.14,0.07-0.26,0.07H46.71z M46.71,169.98c-0.23-0.07-0.47-0.12-0.73-0.15s-0.53-0.05-0.81-0.05
		c-0.71,0-1.27,0.15-1.68,0.46c-0.3,0.23-0.46,0.51-0.46,0.83c0,0.3,0.12,0.55,0.35,0.75s0.57,0.3,1.02,0.3
		c0.43,0,0.82-0.08,1.19-0.25s0.74-0.44,1.13-0.81V169.98z"/>
	<path d="M51.91,167.35v1.24c0.64-0.58,1.12-0.95,1.44-1.12s0.61-0.25,0.88-0.25c0.29,0,0.57,0.1,0.82,0.3s0.38,0.35,0.38,0.45
		c0,0.07-0.02,0.14-0.07,0.18s-0.11,0.07-0.18,0.07c-0.04,0-0.07-0.01-0.1-0.02s-0.08-0.06-0.15-0.13
		c-0.14-0.14-0.26-0.23-0.36-0.28s-0.2-0.08-0.3-0.08c-0.21,0-0.47,0.09-0.78,0.26s-0.83,0.59-1.57,1.26v2.7h2.18
		c0.12,0,0.21,0.02,0.26,0.07s0.08,0.1,0.08,0.18c0,0.07-0.03,0.13-0.08,0.18s-0.14,0.07-0.26,0.07h-3.86
		c-0.12,0-0.2-0.02-0.25-0.07s-0.08-0.1-0.08-0.17c0-0.07,0.02-0.12,0.07-0.17s0.13-0.07,0.25-0.07h1.19v-4.1h-0.91
		c-0.12,0-0.2-0.02-0.25-0.07s-0.08-0.11-0.08-0.18c0-0.07,0.02-0.13,0.07-0.18s0.13-0.07,0.25-0.07H51.91z"/>
	<path d="M59.96,167.35v4.58h1.93c0.12,0,0.21,0.02,0.26,0.07s0.08,0.1,0.08,0.18c0,0.07-0.03,0.13-0.08,0.18s-0.14,0.07-0.26,0.07
		h-4.36c-0.12,0-0.2-0.02-0.25-0.07s-0.08-0.11-0.08-0.18c0-0.07,0.03-0.13,0.08-0.18s0.13-0.07,0.25-0.07h1.93v-4.08h-1.44
		c-0.12,0-0.2-0.02-0.25-0.07s-0.08-0.11-0.08-0.18c0-0.07,0.03-0.13,0.08-0.18s0.14-0.07,0.26-0.07H59.96z M59.94,164.83v1.27
		h-0.73v-1.27H59.94z"/>
	<path d="M68.32,172.43v-0.71c-0.71,0.6-1.48,0.9-2.29,0.9c-0.59,0-1.05-0.15-1.38-0.45s-0.5-0.67-0.5-1.1
		c0-0.48,0.22-0.89,0.66-1.25s1.08-0.53,1.92-0.53c0.23,0,0.47,0.01,0.74,0.04s0.55,0.08,0.86,0.14v-0.8c0-0.27-0.13-0.5-0.38-0.7
		s-0.63-0.3-1.13-0.3c-0.38,0-0.92,0.11-1.61,0.33c-0.13,0.04-0.21,0.06-0.24,0.06c-0.06,0-0.12-0.02-0.16-0.07
		s-0.07-0.11-0.07-0.18c0-0.07,0.02-0.12,0.06-0.16c0.05-0.06,0.28-0.14,0.66-0.24c0.61-0.16,1.07-0.25,1.38-0.25
		c0.62,0,1.11,0.15,1.45,0.46s0.52,0.65,0.52,1.04v3.26h0.66c0.12,0,0.21,0.02,0.26,0.07s0.08,0.1,0.08,0.18
		c0,0.07-0.03,0.13-0.08,0.18s-0.14,0.07-0.26,0.07H68.32z M68.32,169.98c-0.23-0.07-0.47-0.12-0.73-0.15s-0.53-0.05-0.81-0.05
		c-0.71,0-1.27,0.15-1.68,0.46c-0.3,0.23-0.46,0.51-0.46,0.83c0,0.3,0.12,0.55,0.35,0.75s0.57,0.3,1.02,0.3
		c0.43,0,0.82-0.08,1.19-0.25s0.74-0.44,1.13-0.81V169.98z"/>
	<path d="M72.25,165.07v3.26c0.59-0.77,1.31-1.16,2.15-1.16c0.72,0,1.33,0.26,1.85,0.78s0.77,1.16,0.77,1.92
		c0,0.77-0.26,1.41-0.78,1.95s-1.13,0.8-1.84,0.8c-0.86,0-1.58-0.39-2.15-1.16v0.97h-1.15c-0.12,0-0.2-0.02-0.25-0.07
		s-0.08-0.11-0.08-0.18c0-0.07,0.03-0.13,0.08-0.18s0.13-0.07,0.25-0.07h0.66v-6.36h-0.66c-0.12,0-0.2-0.02-0.25-0.07
		s-0.08-0.11-0.08-0.18c0-0.07,0.03-0.13,0.08-0.18s0.13-0.07,0.25-0.07H72.25z M76.52,169.9c0-0.62-0.21-1.15-0.64-1.58
		s-0.92-0.65-1.49-0.65s-1.07,0.22-1.49,0.65s-0.64,0.96-0.64,1.58s0.21,1.15,0.64,1.58s0.92,0.65,1.49,0.65s1.07-0.22,1.49-0.65
		S76.52,170.52,76.52,169.9z"/>
	<path d="M81.55,165.07v6.86h1.93c0.12,0,0.21,0.02,0.26,0.07s0.08,0.1,0.08,0.18c0,0.07-0.03,0.13-0.08,0.18s-0.14,0.07-0.26,0.07
		h-4.36c-0.12,0-0.2-0.02-0.25-0.07s-0.08-0.11-0.08-0.18c0-0.07,0.03-0.13,0.08-0.18s0.13-0.07,0.25-0.07h1.93v-6.36h-1.42
		c-0.12,0-0.2-0.02-0.25-0.07s-0.08-0.11-0.08-0.18c0-0.07,0.03-0.13,0.08-0.18s0.14-0.07,0.26-0.07H81.55z"/>
	<path d="M91.17,170.01h-5.02c0.09,0.64,0.35,1.15,0.8,1.54s1,0.58,1.66,0.58c0.37,0,0.75-0.06,1.15-0.18s0.73-0.28,0.98-0.48
		c0.07-0.06,0.14-0.09,0.19-0.09c0.06,0,0.12,0.02,0.16,0.07s0.07,0.11,0.07,0.17s-0.03,0.13-0.09,0.19c-0.19,0.2-0.52,0.38-1,0.55
		s-0.97,0.25-1.47,0.25c-0.84,0-1.55-0.28-2.11-0.83s-0.85-1.22-0.85-2.01c0-0.71,0.26-1.33,0.79-1.84s1.18-0.77,1.97-0.77
		c0.8,0,1.47,0.26,1.99,0.79S91.18,169.17,91.17,170.01z M90.67,169.51c-0.1-0.54-0.35-0.98-0.77-1.32s-0.91-0.51-1.49-0.51
		s-1.07,0.17-1.48,0.5s-0.67,0.78-0.77,1.33H90.67z"/>
</g>
<rect x="10" y="160" class="st1" width="85" height="20"/>
<g>
	<rect x="10" y="193" class="st0" width="85" height="17.58"/>
	<path d="M16.74,195.57v7.88h1.2c0.12,0,0.2,0.02,0.25,0.07s0.08,0.1,0.08,0.18s-0.03,0.13-0.08,0.18s-0.13,0.07-0.25,0.07h-1.69
		v-8.87h1.69c0.12,0,0.2,0.02,0.25,0.07s0.08,0.11,0.08,0.18c0,0.07-0.03,0.13-0.08,0.18s-0.13,0.07-0.25,0.07H16.74z"/>
	<path d="M22.23,199.32c0.3-0.45,0.62-0.78,0.94-1s0.68-0.32,1.08-0.32c0.52,0,0.99,0.22,1.39,0.65s0.61,0.97,0.61,1.61
		c0,0.59-0.19,1.12-0.56,1.61s-0.88,0.73-1.54,0.73c-0.43,0-0.82-0.13-1.19-0.39s-0.66-0.66-0.87-1.21
		c-0.26-0.68-0.39-1.42-0.39-2.24c0-0.62,0.12-1.19,0.37-1.72c0.19-0.41,0.44-0.77,0.75-1.08s0.68-0.56,1.09-0.76s0.87-0.3,1.35-0.3
		c0.33,0,0.6,0.07,0.82,0.2c0.09,0.06,0.14,0.14,0.14,0.23c0,0.07-0.02,0.13-0.06,0.17s-0.1,0.07-0.16,0.07
		c-0.05,0-0.11-0.02-0.18-0.06c-0.16-0.08-0.36-0.12-0.6-0.12c-0.76,0-1.46,0.33-2.08,0.98s-0.94,1.43-0.94,2.33
		C22.19,198.84,22.2,199.04,22.23,199.32z M22.34,200.13c0.15,0.71,0.38,1.22,0.7,1.52s0.69,0.46,1.13,0.46
		c0.44,0,0.81-0.17,1.12-0.51s0.47-0.79,0.47-1.33c0-0.51-0.16-0.94-0.47-1.27s-0.67-0.5-1.06-0.5c-0.38,0-0.74,0.16-1.1,0.49
		C22.9,199.19,22.63,199.58,22.34,200.13z"/>
	<path d="M30.67,203.45v-7.88h-1.19c-0.12,0-0.2-0.02-0.25-0.07s-0.08-0.11-0.08-0.18c0-0.07,0.03-0.13,0.08-0.18
		s0.13-0.07,0.25-0.07h1.69v8.87h-1.69c-0.12,0-0.2-0.02-0.25-0.07s-0.08-0.1-0.08-0.18c0-0.07,0.03-0.13,0.08-0.18
		s0.13-0.07,0.25-0.07H30.67z"/>
	<path d="M38.46,202.43h-0.69l-2.48-6.36h-0.38c-0.09,0-0.15-0.01-0.19-0.03s-0.07-0.05-0.1-0.09s-0.04-0.08-0.04-0.13
		s0.01-0.09,0.04-0.13s0.06-0.07,0.1-0.09s0.1-0.03,0.19-0.03h1.83c0.09,0,0.16,0.01,0.2,0.03s0.07,0.05,0.09,0.09
		s0.04,0.08,0.04,0.13s-0.01,0.09-0.04,0.13s-0.06,0.07-0.1,0.09s-0.1,0.03-0.19,0.03h-0.94l2.29,5.87h0.04l2.26-5.87h-0.94
		c-0.09,0-0.16-0.01-0.2-0.03s-0.07-0.05-0.1-0.09s-0.04-0.08-0.04-0.13s0.01-0.09,0.04-0.13s0.06-0.07,0.1-0.09s0.1-0.03,0.2-0.03
		h1.83c0.09,0,0.16,0.01,0.2,0.03s0.07,0.05,0.1,0.09s0.04,0.08,0.04,0.13s-0.01,0.09-0.04,0.13s-0.06,0.07-0.1,0.09
		s-0.1,0.03-0.2,0.03H40.9L38.46,202.43z"/>
	<path d="M46.71,202.43v-0.71c-0.71,0.6-1.48,0.9-2.29,0.9c-0.59,0-1.05-0.15-1.38-0.45s-0.5-0.67-0.5-1.1
		c0-0.48,0.22-0.89,0.66-1.25s1.08-0.53,1.92-0.53c0.23,0,0.47,0.01,0.74,0.04s0.55,0.08,0.86,0.14v-0.8c0-0.27-0.13-0.5-0.38-0.7
		s-0.63-0.3-1.13-0.3c-0.38,0-0.92,0.11-1.61,0.33c-0.13,0.04-0.21,0.06-0.24,0.06c-0.06,0-0.12-0.02-0.16-0.07
		s-0.07-0.11-0.07-0.18c0-0.07,0.02-0.12,0.06-0.16c0.05-0.06,0.28-0.14,0.66-0.24c0.61-0.16,1.07-0.25,1.38-0.25
		c0.62,0,1.11,0.15,1.45,0.46s0.52,0.65,0.52,1.04v3.26h0.66c0.12,0,0.21,0.02,0.26,0.07s0.08,0.1,0.08,0.18
		c0,0.07-0.03,0.13-0.08,0.18s-0.14,0.07-0.26,0.07H46.71z M46.71,199.98c-0.23-0.07-0.47-0.12-0.73-0.15s-0.53-0.05-0.81-0.05
		c-0.71,0-1.27,0.15-1.68,0.46c-0.3,0.23-0.46,0.51-0.46,0.83c0,0.3,0.12,0.55,0.35,0.75s0.57,0.3,1.02,0.3
		c0.43,0,0.82-0.08,1.19-0.25s0.74-0.44,1.13-0.81V199.98z"/>
	<path d="M51.91,197.35v1.24c0.64-0.58,1.12-0.95,1.44-1.12s0.61-0.25,0.88-0.25c0.29,0,0.57,0.1,0.82,0.3s0.38,0.35,0.38,0.45
		c0,0.07-0.02,0.14-0.07,0.18s-0.11,0.07-0.18,0.07c-0.04,0-0.07-0.01-0.1-0.02s-0.08-0.06-0.15-0.13
		c-0.14-0.14-0.26-0.23-0.36-0.28s-0.2-0.08-0.3-0.08c-0.21,0-0.47,0.09-0.78,0.26s-0.83,0.59-1.57,1.26v2.7h2.18
		c0.12,0,0.21,0.02,0.26,0.07s0.08,0.1,0.08,0.18c0,0.07-0.03,0.13-0.08,0.18s-0.14,0.07-0.26,0.07h-3.86
		c-0.12,0-0.2-0.02-0.25-0.07s-0.08-0.1-0.08-0.17c0-0.07,0.02-0.12,0.07-0.17s0.13-0.07,0.25-0.07h1.19v-4.1h-0.91
		c-0.12,0-0.2-0.02-0.25-0.07s-0.08-0.11-0.08-0.18c0-0.07,0.02-0.13,0.07-0.18s0.13-0.07,0.25-0.07H51.91z"/>
	<path d="M59.96,197.35v4.58h1.93c0.12,0,0.21,0.02,0.26,0.07s0.08,0.1,0.08,0.18c0,0.07-0.03,0.13-0.08,0.18s-0.14,0.07-0.26,0.07
		h-4.36c-0.12,0-0.2-0.02-0.25-0.07s-0.08-0.11-0.08-0.18c0-0.07,0.03-0.13,0.08-0.18s0.13-0.07,0.25-0.07h1.93v-4.08h-1.44
		c-0.12,0-0.2-0.02-0.25-0.07s-0.08-0.11-0.08-0.18c0-0.07,0.03-0.13,0.08-0.18s0.14-0.07,0.26-0.07H59.96z M59.94,194.83v1.27
		h-0.73v-1.27H59.94z"/>
	<path d="M68.32,202.43v-0.71c-0.71,0.6-1.48,0.9-2.29,0.9c-0.59,0-1.05-0.15-1.38-0.45s-0.5-0.67-0.5-1.1
		c0-0.48,0.22-0.89,0.66-1.25s1.08-0.53,1.92-0.53c0.23,0,0.47,0.01,0.74,0.04s0.55,0.08,0.86,0.14v-0.8c0-0.27-0.13-0.5-0.38-0.7
		s-0.63-0.3-1.13-0.3c-0.38,0-0.92,0.11-1.61,0.33c-0.13,0.04-0.21,0.06-0.24,0.06c-0.06,0-0.12-0.02-0.16-0.07
		s-0.07-0.11-0.07-0.18c0-0.07,0.02-0.12,0.06-0.16c0.05-0.06,0.28-0.14,0.66-0.24c0.61-0.16,1.07-0.25,1.38-0.25
		c0.62,0,1.11,0.15,1.45,0.46s0.52,0.65,0.52,1.04v3.26h0.66c0.12,0,0.21,0.02,0.26,0.07s0.08,0.1,0.08,0.18
		c0,0.07-0.03,0.13-0.08,0.18s-0.14,0.07-0.26,0.07H68.32z M68.32,199.98c-0.23-0.07-0.47-0.12-0.73-0.15s-0.53-0.05-0.81-0.05
		c-0.71,0-1.27,0.15-1.68,0.46c-0.3,0.23-0.46,0.51-0.46,0.83c0,0.3,0.12,0.55,0.35,0.75s0.57,0.3,1.02,0.3
		c0.43,0,0.82-0.08,1.19-0.25s0.74-0.44,1.13-0.81V199.98z"/>
	<path d="M72.25,195.07v3.26c0.59-0.77,1.31-1.16,2.15-1.16c0.72,0,1.33,0.26,1.85,0.78s0.77,1.16,0.77,1.92
		c0,0.77-0.26,1.41-0.78,1.95s-1.13,0.8-1.84,0.8c-0.86,0-1.58-0.39-2.15-1.16v0.97h-1.15c-0.12,0-0.2-0.02-0.25-0.07
		s-0.08-0.11-0.08-0.18c0-0.07,0.03-0.13,0.08-0.18s0.13-0.07,0.25-0.07h0.66v-6.36h-0.66c-0.12,0-0.2-0.02-0.25-0.07
		s-0.08-0.11-0.08-0.18c0-0.07,0.03-0.13,0.08-0.18s0.13-0.07,0.25-0.07H72.25z M76.52,199.9c0-0.62-0.21-1.15-0.64-1.58
		s-0.92-0.65-1.49-0.65s-1.07,0.22-1.49,0.65s-0.64,0.96-0.64,1.58s0.21,1.15,0.64,1.58s0.92,0.65,1.49,0.65s1.07-0.22,1.49-0.65
		S76.52,200.52,76.52,199.9z"/>
	<path d="M81.55,195.07v6.86h1.93c0.12,0,0.21,0.02,0.26,0.07s0.08,0.1,0.08,0.18c0,0.07-0.03,0.13-0.08,0.18s-0.14,0.07-0.26,0.07
		h-4.36c-0.12,0-0.2-0.02-0.25-0.07s-0.08-0.11-0.08-0.18c0-0.07,0.03-0.13,0.08-0.18s0.13-0.07,0.25-0.07h1.93v-6.36h-1.42
		c-0.12,0-0.2-0.02-0.25-0.07s-0.08-0.11-0.08-0.18c0-0.07,0.03-0.13,0.08-0.18s0.14-0.07,0.26-0.07H81.55z"/>
	<path d="M91.17,200.01h-5.02c0.09,0.64,0.35,1.15,0.8,1.54s1,0.58,1.66,0.58c0.37,0,0.75-0.06,1.15-0.18s0.73-0.28,0.98-0.48
		c0.07-0.06,0.14-0.09,0.19-0.09c0.06,0,0.12,0.02,0.16,0.07s0.07,0.11,0.07,0.17s-0.03,0.13-0.09,0.19c-0.19,0.2-0.52,0.38-1,0.55
		s-0.97,0.25-1.47,0.25c-0.84,0-1.55-0.28-2.11-0.83s-0.85-1.22-0.85-2.01c0-0.71,0.26-1.33,0.79-1.84s1.18-0.77,1.97-0.77
		c0.8,0,1.47,0.26,1.99,0.79S91.18,199.17,91.17,200.01z M90.67,199.51c-0.1-0.54-0.35-0.98-0.77-1.32s-0.91-0.51-1.49-0.51
		s-1.07,0.17-1.48,0.5s-0.67,0.78-0.77,1.33H90.67z"/>
</g>
<rect x="10" y="190" class="st1" width="85" height="20"/>
<g>
	<rect x="215" y="43" class="st0" width="80" height="17.58"/>
	<path d="M226.44,45.57v7.88h1.2c0.12,0,0.2,0.02,0.25,0.07s0.08,0.1,0.08,0.18s-0.03,0.13-0.08,0.18s-0.13,0.07-0.25,0.07h-1.69
		v-8.87h1.69c0.12,0,0.2,0.02,0.25,0.07s0.08,0.11,0.08,0.18c0,0.07-0.03,0.13-0.08,0.18s-0.13,0.07-0.25,0.07H226.44z"/>
	<path d="M234.41,48.61c0.41,0.2,0.72,0.46,0.93,0.79s0.31,0.68,0.31,1.05c0,0.58-0.22,1.09-0.66,1.51s-0.97,0.64-1.59,0.64
		s-1.16-0.21-1.59-0.64s-0.66-0.93-0.66-1.51c0-0.37,0.1-0.72,0.31-1.05s0.52-0.59,0.93-0.79c-0.36-0.21-0.62-0.42-0.79-0.64
		c-0.23-0.32-0.34-0.67-0.34-1.05c0-0.54,0.21-1.01,0.62-1.42s0.92-0.61,1.5-0.61c0.59,0,1.09,0.2,1.51,0.61s0.62,0.88,0.62,1.42
		c0,0.38-0.11,0.73-0.34,1.04C235.03,48.19,234.77,48.41,234.41,48.61z M235.16,50.46c0-0.43-0.17-0.81-0.5-1.13
		s-0.75-0.48-1.25-0.48s-0.92,0.16-1.25,0.48s-0.5,0.7-0.5,1.13c0,0.45,0.17,0.83,0.51,1.16s0.75,0.49,1.25,0.49
		s0.91-0.16,1.25-0.49S235.16,50.91,235.16,50.46z M235.02,46.94c0-0.42-0.16-0.78-0.47-1.09s-0.7-0.45-1.16-0.45
		c-0.45,0-0.84,0.15-1.15,0.46s-0.47,0.66-0.47,1.08c0,0.38,0.16,0.72,0.47,1s0.7,0.43,1.16,0.43c0.46,0,0.85-0.14,1.16-0.43
		S235.02,47.32,235.02,46.94z"/>
	<path d="M240.37,53.45v-7.88h-1.19c-0.12,0-0.2-0.02-0.25-0.07s-0.08-0.11-0.08-0.18c0-0.07,0.03-0.13,0.08-0.18
		s0.13-0.07,0.25-0.07h1.69v8.87h-1.69c-0.12,0-0.2-0.02-0.25-0.07s-0.08-0.1-0.08-0.18c0-0.07,0.03-0.13,0.08-0.18
		s0.13-0.07,0.25-0.07H240.37z"/>
	<path d="M249.96,52.43h-0.77l-1.39-4.87l-1.37,4.87h-0.77l-0.73-6.36h-0.18c-0.12,0-0.2-0.02-0.25-0.07s-0.08-0.1-0.08-0.18
		s0.03-0.13,0.08-0.18s0.13-0.07,0.25-0.07h1.83c0.12,0,0.21,0.02,0.26,0.07s0.08,0.1,0.08,0.18s-0.03,0.13-0.08,0.18
		s-0.14,0.07-0.26,0.07h-1.15l0.65,5.8l1.33-4.78h0.76l1.37,4.78l0.64-5.8h-1.15c-0.12,0-0.2-0.02-0.25-0.07s-0.08-0.1-0.08-0.18
		s0.03-0.13,0.08-0.18s0.13-0.07,0.25-0.07h1.82c0.12,0,0.21,0.02,0.26,0.07s0.08,0.1,0.08,0.18s-0.03,0.13-0.08,0.18
		s-0.14,0.07-0.26,0.07h-0.18L249.96,52.43z"/>
	<path d="M256.42,52.43v-0.71c-0.71,0.6-1.48,0.9-2.29,0.9c-0.59,0-1.05-0.15-1.38-0.45s-0.5-0.67-0.5-1.1
		c0-0.48,0.22-0.89,0.66-1.25s1.08-0.53,1.92-0.53c0.23,0,0.47,0.01,0.74,0.04s0.55,0.08,0.86,0.14v-0.8c0-0.27-0.13-0.5-0.38-0.7
		s-0.63-0.3-1.13-0.3c-0.38,0-0.92,0.11-1.61,0.33c-0.13,0.04-0.21,0.06-0.24,0.06c-0.06,0-0.12-0.02-0.16-0.07
		s-0.07-0.11-0.07-0.18c0-0.07,0.02-0.12,0.06-0.16c0.05-0.06,0.28-0.14,0.66-0.24c0.61-0.16,1.07-0.25,1.38-0.25
		c0.62,0,1.11,0.15,1.45,0.46s0.52,0.65,0.52,1.04v3.26h0.66c0.12,0,0.21,0.02,0.26,0.07s0.08,0.1,0.08,0.18
		c0,0.07-0.03,0.13-0.08,0.18s-0.14,0.07-0.26,0.07H256.42z M256.42,49.98c-0.23-0.07-0.47-0.12-0.73-0.15s-0.53-0.05-0.81-0.05
		c-0.71,0-1.27,0.15-1.68,0.46c-0.3,0.23-0.46,0.51-0.46,0.83c0,0.3,0.12,0.55,0.35,0.75s0.57,0.3,1.02,0.3
		c0.43,0,0.82-0.08,1.19-0.25s0.74-0.44,1.13-0.81V49.98z"/>
	<path d="M262.63,52.43h-0.83l-2.02-4.58h-0.5c-0.12,0-0.2-0.02-0.25-0.07s-0.08-0.11-0.08-0.18c0-0.07,0.03-0.13,0.08-0.18
		s0.13-0.07,0.25-0.07h1.85c0.12,0,0.2,0.02,0.25,0.07s0.08,0.11,0.08,0.18c0,0.07-0.03,0.13-0.08,0.18s-0.13,0.07-0.25,0.07h-0.81
		l1.8,4.08h0.22l1.77-4.08h-0.82c-0.12,0-0.2-0.02-0.25-0.07s-0.08-0.11-0.08-0.18c0-0.07,0.03-0.13,0.08-0.18s0.13-0.07,0.25-0.07
		h1.85c0.12,0,0.21,0.02,0.25,0.07s0.07,0.11,0.07,0.18c0,0.07-0.02,0.13-0.07,0.18s-0.13,0.07-0.25,0.07h-0.5L262.63,52.43z"/>
	<path d="M272.07,50.01h-5.02c0.09,0.64,0.35,1.15,0.8,1.54s1,0.58,1.66,0.58c0.37,0,0.75-0.06,1.15-0.18s0.73-0.28,0.98-0.48
		c0.07-0.06,0.14-0.09,0.19-0.09c0.06,0,0.12,0.02,0.16,0.07s0.07,0.11,0.07,0.17s-0.03,0.13-0.09,0.19c-0.19,0.2-0.52,0.38-1,0.55
		s-0.97,0.25-1.47,0.25c-0.84,0-1.55-0.28-2.11-0.83s-0.85-1.22-0.85-2.01c0-0.71,0.26-1.33,0.79-1.84s1.18-0.77,1.97-0.77
		c0.8,0,1.47,0.26,1.99,0.79S272.07,49.17,272.07,50.01z M271.57,49.51c-0.1-0.54-0.35-0.98-0.77-1.32s-0.91-0.51-1.49-0.51
		s-1.07,0.17-1.48,0.5s-0.67,0.78-0.77,1.33H271.57z"/>
	<path d="M274.49,51.94h3.78v-0.19c0-0.12,0.02-0.2,0.07-0.25s0.11-0.08,0.18-0.08c0.07,0,0.13,0.03,0.18,0.08s0.07,0.13,0.07,0.25
		v0.69H274V51.7c1-0.9,1.97-1.81,2.92-2.74c0.44-0.43,0.74-0.75,0.91-0.96s0.28-0.38,0.34-0.54s0.09-0.31,0.09-0.47
		c0-0.42-0.17-0.79-0.51-1.12s-0.75-0.49-1.23-0.49c-0.43,0-0.81,0.12-1.14,0.37s-0.55,0.55-0.64,0.91
		c-0.02,0.09-0.05,0.15-0.09,0.18c-0.05,0.04-0.1,0.06-0.16,0.06c-0.07,0-0.12-0.02-0.17-0.07s-0.07-0.1-0.07-0.16
		c0-0.19,0.1-0.44,0.31-0.76s0.49-0.57,0.85-0.76s0.73-0.28,1.11-0.28c0.61,0,1.14,0.21,1.58,0.64s0.66,0.91,0.66,1.45
		c0,0.23-0.04,0.43-0.11,0.62s-0.2,0.4-0.38,0.62s-0.5,0.56-0.96,1.02c-1.16,1.14-2.1,2.03-2.82,2.65V51.94z"/>
	<path d="M281.87,51.94v-5.87h-0.42c-0.12,0-0.2-0.02-0.25-0.07s-0.08-0.1-0.08-0.18s0.03-0.13,0.08-0.18s0.13-0.07,0.25-0.07h2.65
		c0.41,0,0.79,0.09,1.13,0.26s0.6,0.37,0.78,0.59c0.31,0.37,0.54,0.76,0.7,1.18c0.11,0.3,0.17,0.66,0.17,1.07v0.68
		c0,0.5-0.11,0.99-0.33,1.46s-0.59,0.88-1.11,1.24c-0.39,0.26-0.83,0.39-1.34,0.39h-2.65c-0.12,0-0.2-0.02-0.25-0.07
		s-0.08-0.11-0.08-0.18c0-0.07,0.03-0.13,0.08-0.18s0.13-0.07,0.25-0.07H281.87z M282.37,51.94h1.79c0.41,0,0.8-0.13,1.16-0.4
		s0.63-0.59,0.81-0.97s0.27-0.75,0.27-1.12v-0.89c0-0.3-0.05-0.58-0.15-0.81c-0.14-0.35-0.34-0.68-0.6-0.99
		c-0.14-0.17-0.35-0.33-0.62-0.47s-0.57-0.21-0.88-0.21h-1.79V51.94z"/>
</g>
<rect x="215" y="40" class="st1" width="80" height="20"/>
<g>
	<rect x="215" y="73" class="st0" width="80" height="17.58"/>
	<path d="M226.44,75.57v7.88h1.2c0.12,0,0.2,0.02,0.25,0.07s0.08,0.1,0.08,0.18s-0.03,0.13-0.08,0.18s-0.13,0.07-0.25,0.07h-1.69
		v-8.87h1.69c0.12,0,0.2,0.02,0.25,0.07s0.08,0.11,0.08,0.18c0,0.07-0.03,0.13-0.08,0.18s-0.13,0.07-0.25,0.07H226.44z"/>
	<path d="M235.42,78.27c-0.25,0.45-0.56,0.79-0.91,1.01s-0.71,0.34-1.08,0.34c-0.34,0-0.67-0.1-0.99-0.29s-0.57-0.48-0.76-0.86
		s-0.28-0.77-0.28-1.19c0-0.6,0.19-1.15,0.56-1.64s0.87-0.74,1.5-0.74c0.45,0,0.85,0.14,1.22,0.42s0.65,0.68,0.86,1.21
		c0.26,0.68,0.39,1.46,0.39,2.36c0,0.7-0.11,1.27-0.33,1.73c-0.15,0.31-0.37,0.62-0.65,0.91s-0.61,0.53-0.97,0.71
		c-0.49,0.25-1,0.37-1.54,0.37c-0.35,0-0.64-0.07-0.86-0.2c-0.1-0.06-0.15-0.14-0.15-0.23c0-0.07,0.02-0.12,0.07-0.17
		s0.1-0.07,0.17-0.07c0.05,0,0.12,0.02,0.21,0.06c0.15,0.07,0.33,0.11,0.53,0.11c0.83,0,1.55-0.3,2.14-0.9s0.9-1.35,0.9-2.25
		C235.44,78.79,235.43,78.56,235.42,78.27z M235.32,77.45c-0.21-0.79-0.46-1.33-0.77-1.62s-0.67-0.43-1.08-0.43
		c-0.42,0-0.79,0.18-1.1,0.53s-0.47,0.8-0.47,1.35c0,0.54,0.16,0.98,0.47,1.33s0.67,0.52,1.07,0.52c0.23,0,0.46-0.06,0.68-0.19
		s0.44-0.31,0.64-0.56C234.89,78.21,235.08,77.9,235.32,77.45z"/>
	<path d="M240.37,83.45v-7.88h-1.19c-0.12,0-0.2-0.02-0.25-0.07s-0.08-0.11-0.08-0.18c0-0.07,0.03-0.13,0.08-0.18
		s0.13-0.07,0.25-0.07h1.69v8.87h-1.69c-0.12,0-0.2-0.02-0.25-0.07s-0.08-0.1-0.08-0.18c0-0.07,0.03-0.13,0.08-0.18
		s0.13-0.07,0.25-0.07H240.37z"/>
	<path d="M249.96,82.43h-0.77l-1.39-4.87l-1.37,4.87h-0.77l-0.73-6.36h-0.18c-0.12,0-0.2-0.02-0.25-0.07s-0.08-0.1-0.08-0.18
		s0.03-0.13,0.08-0.18s0.13-0.07,0.25-0.07h1.83c0.12,0,0.21,0.02,0.26,0.07s0.08,0.1,0.08,0.18s-0.03,0.13-0.08,0.18
		s-0.14,0.07-0.26,0.07h-1.15l0.65,5.8l1.33-4.78h0.76l1.37,4.78l0.64-5.8h-1.15c-0.12,0-0.2-0.02-0.25-0.07s-0.08-0.1-0.08-0.18
		s0.03-0.13,0.08-0.18s0.13-0.07,0.25-0.07h1.82c0.12,0,0.21,0.02,0.26,0.07s0.08,0.1,0.08,0.18s-0.03,0.13-0.08,0.18
		s-0.14,0.07-0.26,0.07h-0.18L249.96,82.43z"/>
	<path d="M256.42,82.43v-0.71c-0.71,0.6-1.48,0.9-2.29,0.9c-0.59,0-1.05-0.15-1.38-0.45s-0.5-0.67-0.5-1.1
		c0-0.48,0.22-0.89,0.66-1.25s1.08-0.53,1.92-0.53c0.23,0,0.47,0.01,0.74,0.04s0.55,0.08,0.86,0.14v-0.8c0-0.27-0.13-0.5-0.38-0.7
		s-0.63-0.3-1.13-0.3c-0.38,0-0.92,0.11-1.61,0.33c-0.13,0.04-0.21,0.06-0.24,0.06c-0.06,0-0.12-0.02-0.16-0.07
		s-0.07-0.11-0.07-0.18c0-0.07,0.02-0.12,0.06-0.16c0.05-0.06,0.28-0.14,0.66-0.24c0.61-0.16,1.07-0.25,1.38-0.25
		c0.62,0,1.11,0.15,1.45,0.46s0.52,0.65,0.52,1.04v3.26h0.66c0.12,0,0.21,0.02,0.26,0.07s0.08,0.1,0.08,0.18
		c0,0.07-0.03,0.13-0.08,0.18s-0.14,0.07-0.26,0.07H256.42z M256.42,79.98c-0.23-0.07-0.47-0.12-0.73-0.15s-0.53-0.05-0.81-0.05
		c-0.71,0-1.27,0.15-1.68,0.46c-0.3,0.23-0.46,0.51-0.46,0.83c0,0.3,0.12,0.55,0.35,0.75s0.57,0.3,1.02,0.3
		c0.43,0,0.82-0.08,1.19-0.25s0.74-0.44,1.13-0.81V79.98z"/>
	<path d="M262.63,82.43h-0.83l-2.02-4.58h-0.5c-0.12,0-0.2-0.02-0.25-0.07s-0.08-0.11-0.08-0.18c0-0.07,0.03-0.13,0.08-0.18
		s0.13-0.07,0.25-0.07h1.85c0.12,0,0.2,0.02,0.25,0.07s0.08,0.11,0.08,0.18c0,0.07-0.03,0.13-0.08,0.18s-0.13,0.07-0.25,0.07h-0.81
		l1.8,4.08h0.22l1.77-4.08h-0.82c-0.12,0-0.2-0.02-0.25-0.07s-0.08-0.11-0.08-0.18c0-0.07,0.03-0.13,0.08-0.18s0.13-0.07,0.25-0.07
		h1.85c0.12,0,0.21,0.02,0.25,0.07s0.07,0.11,0.07,0.18c0,0.07-0.02,0.13-0.07,0.18s-0.13,0.07-0.25,0.07h-0.5L262.63,82.43z"/>
	<path d="M272.07,80.01h-5.02c0.09,0.64,0.35,1.15,0.8,1.54s1,0.58,1.66,0.58c0.37,0,0.75-0.06,1.15-0.18s0.73-0.28,0.98-0.48
		c0.07-0.06,0.14-0.09,0.19-0.09c0.06,0,0.12,0.02,0.16,0.07s0.07,0.11,0.07,0.17s-0.03,0.13-0.09,0.19c-0.19,0.2-0.52,0.38-1,0.55
		s-0.97,0.25-1.47,0.25c-0.84,0-1.55-0.28-2.11-0.83s-0.85-1.22-0.85-2.01c0-0.71,0.26-1.33,0.79-1.84s1.18-0.77,1.97-0.77
		c0.8,0,1.47,0.26,1.99,0.79S272.07,79.17,272.07,80.01z M271.57,79.51c-0.1-0.54-0.35-0.98-0.77-1.32s-0.91-0.51-1.49-0.51
		s-1.07,0.17-1.48,0.5s-0.67,0.78-0.77,1.33H271.57z"/>
	<path d="M274.49,81.94h3.78v-0.19c0-0.12,0.02-0.2,0.07-0.25s0.11-0.08,0.18-0.08c0.07,0,0.13,0.03,0.18,0.08s0.07,0.13,0.07,0.25
		v0.69H274V81.7c1-0.9,1.97-1.81,2.92-2.74c0.44-0.43,0.74-0.75,0.91-0.96s0.28-0.38,0.34-0.54s0.09-0.31,0.09-0.47
		c0-0.42-0.17-0.79-0.51-1.12s-0.75-0.49-1.23-0.49c-0.43,0-0.81,0.12-1.14,0.37s-0.55,0.55-0.64,0.91
		c-0.02,0.09-0.05,0.15-0.09,0.18c-0.05,0.04-0.1,0.06-0.16,0.06c-0.07,0-0.12-0.02-0.17-0.07s-0.07-0.1-0.07-0.16
		c0-0.19,0.1-0.44,0.31-0.76s0.49-0.57,0.85-0.76s0.73-0.28,1.11-0.28c0.61,0,1.14,0.21,1.58,0.64s0.66,0.91,0.66,1.45
		c0,0.23-0.04,0.43-0.11,0.62s-0.2,0.4-0.38,0.62s-0.5,0.56-0.96,1.02c-1.16,1.14-2.1,2.03-2.82,2.65V81.94z"/>
	<path d="M281.87,81.94v-5.87h-0.42c-0.12,0-0.2-0.02-0.25-0.07s-0.08-0.1-0.08-0.18s0.03-0.13,0.08-0.18s0.13-0.07,0.25-0.07h2.65
		c0.41,0,0.79,0.09,1.13,0.26s0.6,0.37,0.78,0.59c0.31,0.37,0.54,0.76,0.7,1.18c0.11,0.3,0.17,0.66,0.17,1.07v0.68
		c0,0.5-0.11,0.99-0.33,1.46s-0.59,0.88-1.11,1.24c-0.39,0.26-0.83,0.39-1.34,0.39h-2.65c-0.12,0-0.2-0.02-0.25-0.07
		s-0.08-0.11-0.08-0.18c0-0.07,0.03-0.13,0.08-0.18s0.13-0.07,0.25-0.07H281.87z M282.37,81.94h1.79c0.41,0,0.8-0.13,1.16-0.4
		s0.63-0.59,0.81-0.97s0.27-0.75,0.27-1.12v-0.89c0-0.3-0.05-0.58-0.15-0.81c-0.14-0.35-0.34-0.68-0.6-0.99
		c-0.14-0.17-0.35-0.33-0.62-0.47s-0.57-0.21-0.88-0.21h-1.79V81.94z"/>
</g>
<rect x="215" y="70" class="st1" width="80" height="20"/>
<line class="st2" x1="100" y1="80" x2="95" y2="80"/>
<line class="st2" x1="100" y1="110" x2="95" y2="110"/>
<line class="st2" x1="100" y1="140" x2="95" y2="140"/>
<line class="st2" x1="100" y1="170" x2="95" y2="170"/>
<g>
	<g>
		<polyline class="st2" points="206.14,80 200,80 200,20 		"/>
		<g>
			<polygon points="204.16,77.09 215,80 204.16,82.91 			"/>
		</g>
	</g>
</g>
<g>
	<g>
		<line class="st2" x1="206.14" y1="50" x2="200" y2="50"/>
		<g>
			<polygon points="204.16,47.09 215,50 204.16,52.91 			"/>
		</g>
	</g>
</g>
</svg>
