<?xml version="1.0" encoding="utf-8"?>
<!-- Generator: Adobe Illustrator 24.2.3, SVG Export Plug-In . SVG Version: 6.00 Build 0)  -->
<svg version="1.1" id="レイヤー_1" xmlns="http://www.w3.org/2000/svg" xmlns:xlink="http://www.w3.org/1999/xlink" x="0px"
	 y="0px" width="310px" height="70px" viewBox="0 0 310 70" style="enable-background:new 0 0 310 70;" xml:space="preserve">
<style type="text/css">
	.st0{fill:none;}
	.st1{fill:none;stroke:#000000;stroke-miterlimit:10;}
	.st2{fill:none;stroke:#000000;stroke-width:2;stroke-miterlimit:10;}
	.st3{fill:none;stroke:#0000FF;stroke-miterlimit:10;}
	.st4{fill:#FFFFFF;stroke:#0000FF;stroke-miterlimit:10;}
	.st5{fill:none;stroke:#FF0000;stroke-miterlimit:10;}
	.st6{fill:none;stroke:#00FF00;stroke-miterlimit:10;}
	.st7{fill:#FFFFFF;}
	.st8{fill:none;stroke:#000000;stroke-width:0.9701;stroke-miterlimit:10;}
	.st9{fill:none;stroke:#000000;stroke-width:1.8257;stroke-miterlimit:10;}
	.st10{fill:none;stroke:#000000;stroke-width:1.9725;stroke-miterlimit:10;}
</style>
<g>
	<rect x="10" y="13" class="st0" width="80" height="17.58"/>
	<path d="M21.44,15.57v7.88h1.2c0.12,0,0.2,0.02,0.25,0.07s0.08,0.1,0.08,0.18s-0.03,0.13-0.08,0.18s-0.13,0.07-0.25,0.07h-1.69
		v-8.87h1.69c0.12,0,0.2,0.02,0.25,0.07s0.08,0.11,0.08,0.18c0,0.07-0.03,0.13-0.08,0.18s-0.13,0.07-0.25,0.07H21.44z"/>
	<path d="M30.66,18.14v1.22c0,1.06-0.25,1.9-0.76,2.51c-0.39,0.48-0.89,0.73-1.49,0.73c-0.29,0-0.56-0.06-0.82-0.17
		s-0.47-0.28-0.65-0.48c-0.11-0.13-0.24-0.34-0.37-0.62s-0.23-0.55-0.29-0.79c-0.09-0.34-0.13-0.73-0.13-1.18v-1.22
		c0-1.06,0.25-1.9,0.76-2.52c0.39-0.48,0.89-0.73,1.49-0.73c0.29,0,0.57,0.06,0.82,0.17s0.47,0.28,0.65,0.48
		c0.12,0.13,0.24,0.34,0.38,0.63s0.23,0.54,0.29,0.78C30.61,17.3,30.66,17.69,30.66,18.14z M30.16,18.21c0-0.46-0.07-0.9-0.2-1.3
		s-0.28-0.72-0.44-0.96c-0.1-0.14-0.22-0.25-0.38-0.35c-0.22-0.14-0.47-0.21-0.75-0.21c-0.55,0-0.98,0.28-1.29,0.84
		s-0.47,1.22-0.47,1.97v1.08c0,0.46,0.07,0.9,0.2,1.3s0.28,0.72,0.45,0.96c0.09,0.13,0.22,0.25,0.38,0.35
		c0.22,0.14,0.47,0.21,0.76,0.21c0.55,0,0.98-0.28,1.29-0.85s0.47-1.22,0.47-1.97V18.21z"/>
	<path d="M35.37,23.45v-7.88h-1.19c-0.12,0-0.2-0.02-0.25-0.07s-0.08-0.11-0.08-0.18c0-0.07,0.03-0.13,0.08-0.18
		s0.13-0.07,0.25-0.07h1.69v8.87h-1.69c-0.12,0-0.2-0.02-0.25-0.07s-0.08-0.1-0.08-0.18c0-0.07,0.03-0.13,0.08-0.18
		s0.13-0.07,0.25-0.07H35.37z"/>
	<path d="M44.96,22.43h-0.77l-1.39-4.87l-1.37,4.87h-0.77l-0.73-6.36h-0.18c-0.12,0-0.2-0.02-0.25-0.07s-0.08-0.1-0.08-0.18
		s0.03-0.13,0.08-0.18s0.13-0.07,0.25-0.07h1.83c0.12,0,0.21,0.02,0.26,0.07s0.08,0.1,0.08,0.18s-0.03,0.13-0.08,0.18
		s-0.14,0.07-0.26,0.07h-1.15l0.65,5.8l1.33-4.78h0.76l1.37,4.78l0.64-5.8h-1.15c-0.12,0-0.2-0.02-0.25-0.07s-0.08-0.1-0.08-0.18
		s0.03-0.13,0.08-0.18s0.13-0.07,0.25-0.07h1.82c0.12,0,0.21,0.02,0.26,0.07s0.08,0.1,0.08,0.18s-0.03,0.13-0.08,0.18
		s-0.14,0.07-0.26,0.07h-0.18L44.96,22.43z"/>
	<path d="M51.42,22.43v-0.71c-0.71,0.6-1.48,0.9-2.29,0.9c-0.59,0-1.05-0.15-1.38-0.45s-0.5-0.67-0.5-1.1
		c0-0.48,0.22-0.89,0.66-1.25s1.08-0.53,1.92-0.53c0.23,0,0.47,0.01,0.74,0.04s0.55,0.08,0.86,0.14v-0.8c0-0.27-0.13-0.5-0.38-0.7
		s-0.63-0.3-1.13-0.3c-0.38,0-0.92,0.11-1.61,0.33c-0.13,0.04-0.21,0.06-0.24,0.06c-0.06,0-0.12-0.02-0.16-0.07
		s-0.07-0.11-0.07-0.18c0-0.07,0.02-0.12,0.06-0.16c0.05-0.06,0.28-0.14,0.66-0.24c0.61-0.16,1.07-0.25,1.38-0.25
		c0.62,0,1.11,0.15,1.45,0.46s0.52,0.65,0.52,1.04v3.26h0.66c0.12,0,0.21,0.02,0.26,0.07s0.08,0.1,0.08,0.18
		c0,0.07-0.03,0.13-0.08,0.18s-0.14,0.07-0.26,0.07H51.42z M51.42,19.98c-0.23-0.07-0.47-0.12-0.73-0.15s-0.53-0.05-0.81-0.05
		c-0.71,0-1.27,0.15-1.68,0.46c-0.3,0.23-0.46,0.51-0.46,0.83c0,0.3,0.12,0.55,0.35,0.75s0.57,0.3,1.02,0.3
		c0.43,0,0.82-0.08,1.19-0.25s0.74-0.44,1.13-0.81V19.98z"/>
	<path d="M57.63,22.43H56.8l-2.02-4.58h-0.5c-0.12,0-0.2-0.02-0.25-0.07s-0.08-0.11-0.08-0.18c0-0.07,0.03-0.13,0.08-0.18
		s0.13-0.07,0.25-0.07h1.85c0.12,0,0.2,0.02,0.25,0.07s0.08,0.11,0.08,0.18c0,0.07-0.03,0.13-0.08,0.18s-0.13,0.07-0.25,0.07h-0.81
		l1.8,4.08h0.22l1.77-4.08h-0.82c-0.12,0-0.2-0.02-0.25-0.07s-0.08-0.11-0.08-0.18c0-0.07,0.03-0.13,0.08-0.18s0.13-0.07,0.25-0.07
		h1.85c0.12,0,0.21,0.02,0.25,0.07s0.07,0.11,0.07,0.18c0,0.07-0.02,0.13-0.07,0.18s-0.13,0.07-0.25,0.07h-0.5L57.63,22.43z"/>
	<path d="M67.07,20.01h-5.02c0.09,0.64,0.35,1.15,0.8,1.54s1,0.58,1.66,0.58c0.37,0,0.75-0.06,1.15-0.18s0.73-0.28,0.98-0.48
		c0.07-0.06,0.14-0.09,0.19-0.09c0.06,0,0.12,0.02,0.16,0.07s0.07,0.11,0.07,0.17s-0.03,0.13-0.09,0.19c-0.19,0.2-0.52,0.38-1,0.55
		s-0.97,0.25-1.47,0.25c-0.84,0-1.55-0.28-2.11-0.83s-0.85-1.22-0.85-2.01c0-0.71,0.26-1.33,0.79-1.84s1.18-0.77,1.97-0.77
		c0.8,0,1.47,0.26,1.99,0.79S67.07,19.17,67.07,20.01z M66.57,19.51c-0.1-0.54-0.35-0.98-0.77-1.32s-0.91-0.51-1.49-0.51
		s-1.07,0.17-1.48,0.5s-0.67,0.78-0.77,1.33H66.57z"/>
	<path d="M69.49,21.94h3.78v-0.19c0-0.12,0.02-0.2,0.07-0.25s0.11-0.08,0.18-0.08c0.07,0,0.13,0.03,0.18,0.08s0.07,0.13,0.07,0.25
		v0.69H69V21.7c1-0.9,1.97-1.81,2.92-2.74c0.44-0.43,0.74-0.75,0.91-0.96s0.28-0.38,0.34-0.54s0.09-0.31,0.09-0.47
		c0-0.42-0.17-0.79-0.51-1.12S72,15.4,71.52,15.4c-0.43,0-0.81,0.12-1.14,0.37s-0.55,0.55-0.64,0.91c-0.02,0.09-0.05,0.15-0.09,0.18
		c-0.05,0.04-0.1,0.06-0.16,0.06c-0.07,0-0.12-0.02-0.17-0.07s-0.07-0.1-0.07-0.16c0-0.19,0.1-0.44,0.31-0.76s0.49-0.57,0.85-0.76
		s0.73-0.28,1.11-0.28c0.61,0,1.14,0.21,1.58,0.64s0.66,0.91,0.66,1.45c0,0.23-0.04,0.43-0.11,0.62s-0.2,0.4-0.38,0.62
		s-0.5,0.56-0.96,1.02c-1.16,1.14-2.1,2.03-2.82,2.65V21.94z"/>
	<path d="M76.87,21.94v-5.87h-0.42c-0.12,0-0.2-0.02-0.25-0.07s-0.08-0.1-0.08-0.18s0.03-0.13,0.08-0.18s0.13-0.07,0.25-0.07h2.65
		c0.41,0,0.79,0.09,1.13,0.26s0.6,0.37,0.78,0.59c0.31,0.37,0.54,0.76,0.7,1.18c0.11,0.3,0.17,0.66,0.17,1.07v0.68
		c0,0.5-0.11,0.99-0.33,1.46s-0.59,0.88-1.11,1.24c-0.39,0.26-0.83,0.39-1.34,0.39h-2.65c-0.12,0-0.2-0.02-0.25-0.07
		s-0.08-0.11-0.08-0.18c0-0.07,0.03-0.13,0.08-0.18s0.13-0.07,0.25-0.07H76.87z M77.37,21.94h1.79c0.41,0,0.8-0.13,1.16-0.4
		s0.63-0.59,0.81-0.97s0.27-0.75,0.27-1.12v-0.89c0-0.3-0.05-0.58-0.15-0.81c-0.14-0.35-0.34-0.68-0.6-0.99
		c-0.14-0.17-0.35-0.33-0.62-0.47s-0.57-0.21-0.88-0.21h-1.79V21.94z"/>
</g>
<rect x="10" y="10" class="st1" width="80" height="20"/>
<g>
	<g>
		<line class="st2" x1="90" y1="20" x2="101.14" y2="20"/>
		<g>
			<polygon points="99.16,22.91 110,20 99.16,17.09 			"/>
		</g>
	</g>
</g>
<g>
	<rect x="215" y="13" class="st0" width="85" height="17.58"/>
	<path d="M221.74,15.57v7.88h1.2c0.12,0,0.2,0.02,0.25,0.07s0.08,0.1,0.08,0.18s-0.03,0.13-0.08,0.18s-0.13,0.07-0.25,0.07h-1.69
		v-8.87h1.69c0.12,0,0.2,0.02,0.25,0.07s0.08,0.11,0.08,0.18c0,0.07-0.03,0.13-0.08,0.18s-0.13,0.07-0.25,0.07H221.74z"/>
	<path d="M228.94,14.97v6.96h1.69c0.12,0,0.2,0.02,0.25,0.07s0.08,0.1,0.08,0.18c0,0.07-0.03,0.13-0.08,0.18s-0.13,0.07-0.25,0.07
		h-3.87c-0.12,0-0.2-0.02-0.25-0.07s-0.08-0.11-0.08-0.18c0-0.07,0.03-0.13,0.08-0.18s0.13-0.07,0.25-0.07h1.69v-6.28l-1.61,0.5
		c-0.08,0.02-0.13,0.04-0.17,0.04c-0.06,0-0.11-0.02-0.16-0.07s-0.07-0.11-0.07-0.17c0-0.06,0.02-0.11,0.06-0.16
		c0.03-0.03,0.1-0.06,0.19-0.1L228.94,14.97z"/>
	<path d="M235.67,23.45v-7.88h-1.19c-0.12,0-0.2-0.02-0.25-0.07s-0.08-0.11-0.08-0.18c0-0.07,0.03-0.13,0.08-0.18
		s0.13-0.07,0.25-0.07h1.69v8.87h-1.69c-0.12,0-0.2-0.02-0.25-0.07s-0.08-0.1-0.08-0.18c0-0.07,0.03-0.13,0.08-0.18
		s0.13-0.07,0.25-0.07H235.67z"/>
	<path d="M243.46,22.43h-0.69l-2.48-6.36h-0.38c-0.09,0-0.15-0.01-0.19-0.03s-0.07-0.05-0.1-0.09s-0.04-0.08-0.04-0.13
		s0.01-0.09,0.04-0.13s0.06-0.07,0.1-0.09s0.1-0.03,0.19-0.03h1.83c0.09,0,0.16,0.01,0.2,0.03s0.07,0.05,0.09,0.09
		s0.04,0.08,0.04,0.13s-0.01,0.09-0.04,0.13s-0.06,0.07-0.1,0.09s-0.1,0.03-0.19,0.03h-0.94l2.29,5.87h0.04l2.26-5.87h-0.94
		c-0.09,0-0.16-0.01-0.2-0.03s-0.07-0.05-0.1-0.09s-0.04-0.08-0.04-0.13s0.01-0.09,0.04-0.13s0.06-0.07,0.1-0.09s0.1-0.03,0.2-0.03
		h1.83c0.09,0,0.16,0.01,0.2,0.03s0.07,0.05,0.1,0.09s0.04,0.08,0.04,0.13s-0.01,0.09-0.04,0.13s-0.06,0.07-0.1,0.09
		s-0.1,0.03-0.2,0.03h-0.38L243.46,22.43z"/>
	<path d="M251.71,22.43v-0.71c-0.71,0.6-1.48,0.9-2.29,0.9c-0.59,0-1.05-0.15-1.38-0.45s-0.5-0.67-0.5-1.1
		c0-0.48,0.22-0.89,0.66-1.25s1.08-0.53,1.92-0.53c0.23,0,0.47,0.01,0.74,0.04s0.55,0.08,0.86,0.14v-0.8c0-0.27-0.13-0.5-0.38-0.7
		s-0.63-0.3-1.13-0.3c-0.38,0-0.92,0.11-1.61,0.33c-0.13,0.04-0.21,0.06-0.24,0.06c-0.06,0-0.12-0.02-0.16-0.07
		s-0.07-0.11-0.07-0.18c0-0.07,0.02-0.12,0.06-0.16c0.05-0.06,0.28-0.14,0.66-0.24c0.61-0.16,1.07-0.25,1.38-0.25
		c0.62,0,1.11,0.15,1.45,0.46s0.52,0.65,0.52,1.04v3.26h0.66c0.12,0,0.21,0.02,0.26,0.07s0.08,0.1,0.08,0.18
		c0,0.07-0.03,0.13-0.08,0.18s-0.14,0.07-0.26,0.07H251.71z M251.71,19.98c-0.23-0.07-0.47-0.12-0.73-0.15s-0.53-0.05-0.81-0.05
		c-0.71,0-1.27,0.15-1.68,0.46c-0.3,0.23-0.46,0.51-0.46,0.83c0,0.3,0.12,0.55,0.35,0.75s0.57,0.3,1.02,0.3
		c0.43,0,0.82-0.08,1.19-0.25s0.74-0.44,1.13-0.81V19.98z"/>
	<path d="M256.91,17.35v1.24c0.64-0.58,1.12-0.95,1.44-1.12s0.61-0.25,0.88-0.25c0.29,0,0.57,0.1,0.82,0.3s0.38,0.35,0.38,0.45
		c0,0.07-0.02,0.14-0.07,0.18s-0.11,0.07-0.18,0.07c-0.04,0-0.07-0.01-0.1-0.02s-0.08-0.06-0.15-0.13
		c-0.14-0.14-0.26-0.23-0.36-0.28s-0.2-0.08-0.3-0.08c-0.21,0-0.47,0.09-0.78,0.26s-0.83,0.59-1.57,1.26v2.7h2.18
		c0.12,0,0.21,0.02,0.26,0.07s0.08,0.1,0.08,0.18c0,0.07-0.03,0.13-0.08,0.18s-0.14,0.07-0.26,0.07h-3.86
		c-0.12,0-0.2-0.02-0.25-0.07s-0.08-0.1-0.08-0.17c0-0.07,0.02-0.12,0.07-0.17s0.13-0.07,0.25-0.07h1.19v-4.1h-0.91
		c-0.12,0-0.2-0.02-0.25-0.07s-0.08-0.11-0.08-0.18c0-0.07,0.02-0.13,0.07-0.18s0.13-0.07,0.25-0.07H256.91z"/>
	<path d="M264.96,17.35v4.58h1.93c0.12,0,0.21,0.02,0.26,0.07s0.08,0.1,0.08,0.18c0,0.07-0.03,0.13-0.08,0.18s-0.14,0.07-0.26,0.07
		h-4.36c-0.12,0-0.2-0.02-0.25-0.07s-0.08-0.11-0.08-0.18c0-0.07,0.03-0.13,0.08-0.18s0.13-0.07,0.25-0.07h1.93v-4.08h-1.44
		c-0.12,0-0.2-0.02-0.25-0.07s-0.08-0.11-0.08-0.18c0-0.07,0.03-0.13,0.08-0.18s0.14-0.07,0.26-0.07H264.96z M264.94,14.83v1.27
		h-0.73v-1.27H264.94z"/>
	<path d="M273.32,22.43v-0.71c-0.71,0.6-1.48,0.9-2.29,0.9c-0.59,0-1.05-0.15-1.38-0.45s-0.5-0.67-0.5-1.1
		c0-0.48,0.22-0.89,0.66-1.25s1.08-0.53,1.92-0.53c0.23,0,0.47,0.01,0.74,0.04s0.55,0.08,0.86,0.14v-0.8c0-0.27-0.13-0.5-0.38-0.7
		s-0.63-0.3-1.13-0.3c-0.38,0-0.92,0.11-1.61,0.33c-0.13,0.04-0.21,0.06-0.24,0.06c-0.06,0-0.12-0.02-0.16-0.07
		s-0.07-0.11-0.07-0.18c0-0.07,0.02-0.12,0.06-0.16c0.05-0.06,0.28-0.14,0.66-0.24c0.61-0.16,1.07-0.25,1.38-0.25
		c0.62,0,1.11,0.15,1.45,0.46s0.52,0.65,0.52,1.04v3.26h0.66c0.12,0,0.21,0.02,0.26,0.07s0.08,0.1,0.08,0.18
		c0,0.07-0.03,0.13-0.08,0.18s-0.14,0.07-0.26,0.07H273.32z M273.32,19.98c-0.23-0.07-0.47-0.12-0.73-0.15s-0.53-0.05-0.81-0.05
		c-0.71,0-1.27,0.15-1.68,0.46c-0.3,0.23-0.46,0.51-0.46,0.83c0,0.3,0.12,0.55,0.35,0.75s0.57,0.3,1.02,0.3
		c0.43,0,0.82-0.08,1.19-0.25s0.74-0.44,1.13-0.81V19.98z"/>
	<path d="M277.25,15.07v3.26c0.59-0.77,1.31-1.16,2.15-1.16c0.72,0,1.33,0.26,1.85,0.78s0.77,1.16,0.77,1.92
		c0,0.77-0.26,1.41-0.78,1.95s-1.13,0.8-1.84,0.8c-0.86,0-1.58-0.39-2.15-1.16v0.97h-1.15c-0.12,0-0.2-0.02-0.25-0.07
		s-0.08-0.11-0.08-0.18c0-0.07,0.03-0.13,0.08-0.18s0.13-0.07,0.25-0.07h0.66v-6.36h-0.66c-0.12,0-0.2-0.02-0.25-0.07
		s-0.08-0.11-0.08-0.18c0-0.07,0.03-0.13,0.08-0.18s0.13-0.07,0.25-0.07H277.25z M281.52,19.9c0-0.62-0.21-1.15-0.64-1.58
		s-0.92-0.65-1.49-0.65s-1.07,0.22-1.49,0.65s-0.64,0.96-0.64,1.58s0.21,1.15,0.64,1.58s0.92,0.65,1.49,0.65s1.07-0.22,1.49-0.65
		S281.52,20.52,281.52,19.9z"/>
	<path d="M286.55,15.07v6.86h1.93c0.12,0,0.21,0.02,0.26,0.07s0.08,0.1,0.08,0.18c0,0.07-0.03,0.13-0.08,0.18s-0.14,0.07-0.26,0.07
		h-4.36c-0.12,0-0.2-0.02-0.25-0.07s-0.08-0.11-0.08-0.18c0-0.07,0.03-0.13,0.08-0.18s0.13-0.07,0.25-0.07h1.93v-6.36h-1.42
		c-0.12,0-0.2-0.02-0.25-0.07s-0.08-0.11-0.08-0.18c0-0.07,0.03-0.13,0.08-0.18s0.14-0.07,0.26-0.07H286.55z"/>
	<path d="M296.17,20.01h-5.02c0.09,0.64,0.35,1.15,0.8,1.54s1,0.58,1.66,0.58c0.37,0,0.75-0.06,1.15-0.18s0.73-0.28,0.98-0.48
		c0.07-0.06,0.14-0.09,0.19-0.09c0.06,0,0.12,0.02,0.16,0.07s0.07,0.11,0.07,0.17s-0.03,0.13-0.09,0.19c-0.19,0.2-0.52,0.38-1,0.55
		s-0.97,0.25-1.47,0.25c-0.84,0-1.55-0.28-2.11-0.83s-0.85-1.22-0.85-2.01c0-0.71,0.26-1.33,0.79-1.84s1.18-0.77,1.97-0.77
		c0.8,0,1.47,0.26,1.99,0.79S296.18,19.17,296.17,20.01z M295.67,19.51c-0.1-0.54-0.35-0.98-0.77-1.32s-0.91-0.51-1.49-0.51
		s-1.07,0.17-1.48,0.5s-0.67,0.78-0.77,1.33H295.67z"/>
</g>
<rect x="215" y="10" class="st1" width="85" height="20"/>
<g>
	<rect x="215" y="43" class="st0" width="85" height="17.58"/>
	<path d="M221.74,45.57v7.88h1.2c0.12,0,0.2,0.02,0.25,0.07s0.08,0.1,0.08,0.18s-0.03,0.13-0.08,0.18s-0.13,0.07-0.25,0.07h-1.69
		v-8.87h1.69c0.12,0,0.2,0.02,0.25,0.07s0.08,0.11,0.08,0.18c0,0.07-0.03,0.13-0.08,0.18s-0.13,0.07-0.25,0.07H221.74z"/>
	<path d="M226.58,51.94h3.78v-0.19c0-0.12,0.02-0.2,0.07-0.25s0.11-0.08,0.18-0.08c0.07,0,0.13,0.03,0.18,0.08s0.07,0.13,0.07,0.25
		v0.69h-4.76V51.7c1-0.9,1.97-1.81,2.92-2.74c0.44-0.43,0.74-0.75,0.91-0.96s0.28-0.38,0.34-0.54s0.09-0.31,0.09-0.47
		c0-0.42-0.17-0.79-0.51-1.12s-0.75-0.49-1.23-0.49c-0.43,0-0.81,0.12-1.14,0.37s-0.55,0.55-0.64,0.91
		c-0.02,0.09-0.05,0.15-0.09,0.18c-0.05,0.04-0.1,0.06-0.16,0.06c-0.07,0-0.12-0.02-0.17-0.07s-0.07-0.1-0.07-0.16
		c0-0.19,0.1-0.44,0.31-0.76s0.49-0.57,0.85-0.76s0.73-0.28,1.11-0.28c0.61,0,1.14,0.21,1.58,0.64s0.66,0.91,0.66,1.45
		c0,0.23-0.04,0.43-0.11,0.62s-0.2,0.4-0.38,0.62s-0.5,0.56-0.96,1.02c-1.16,1.14-2.1,2.03-2.82,2.65V51.94z"/>
	<path d="M235.67,53.45v-7.88h-1.19c-0.12,0-0.2-0.02-0.25-0.07s-0.08-0.11-0.08-0.18c0-0.07,0.03-0.13,0.08-0.18
		s0.13-0.07,0.25-0.07h1.69v8.87h-1.69c-0.12,0-0.2-0.02-0.25-0.07s-0.08-0.1-0.08-0.18c0-0.07,0.03-0.13,0.08-0.18
		s0.13-0.07,0.25-0.07H235.67z"/>
	<path d="M243.46,52.43h-0.69l-2.48-6.36h-0.38c-0.09,0-0.15-0.01-0.19-0.03s-0.07-0.05-0.1-0.09s-0.04-0.08-0.04-0.13
		s0.01-0.09,0.04-0.13s0.06-0.07,0.1-0.09s0.1-0.03,0.19-0.03h1.83c0.09,0,0.16,0.01,0.2,0.03s0.07,0.05,0.09,0.09
		s0.04,0.08,0.04,0.13s-0.01,0.09-0.04,0.13s-0.06,0.07-0.1,0.09s-0.1,0.03-0.19,0.03h-0.94l2.29,5.87h0.04l2.26-5.87h-0.94
		c-0.09,0-0.16-0.01-0.2-0.03s-0.07-0.05-0.1-0.09s-0.04-0.08-0.04-0.13s0.01-0.09,0.04-0.13s0.06-0.07,0.1-0.09s0.1-0.03,0.2-0.03
		h1.83c0.09,0,0.16,0.01,0.2,0.03s0.07,0.05,0.1,0.09s0.04,0.08,0.04,0.13s-0.01,0.09-0.04,0.13s-0.06,0.07-0.1,0.09
		s-0.1,0.03-0.2,0.03h-0.38L243.46,52.43z"/>
	<path d="M251.71,52.43v-0.71c-0.71,0.6-1.48,0.9-2.29,0.9c-0.59,0-1.05-0.15-1.38-0.45s-0.5-0.67-0.5-1.1
		c0-0.48,0.22-0.89,0.66-1.25s1.08-0.53,1.92-0.53c0.23,0,0.47,0.01,0.74,0.04s0.55,0.08,0.86,0.14v-0.8c0-0.27-0.13-0.5-0.38-0.7
		s-0.63-0.3-1.13-0.3c-0.38,0-0.92,0.11-1.61,0.33c-0.13,0.04-0.21,0.06-0.24,0.06c-0.06,0-0.12-0.02-0.16-0.07
		s-0.07-0.11-0.07-0.18c0-0.07,0.02-0.12,0.06-0.16c0.05-0.06,0.28-0.14,0.66-0.24c0.61-0.16,1.07-0.25,1.38-0.25
		c0.62,0,1.11,0.15,1.45,0.46s0.52,0.65,0.52,1.04v3.26h0.66c0.12,0,0.21,0.02,0.26,0.07s0.08,0.1,0.08,0.18
		c0,0.07-0.03,0.13-0.08,0.18s-0.14,0.07-0.26,0.07H251.71z M251.71,49.98c-0.23-0.07-0.47-0.12-0.73-0.15s-0.53-0.05-0.81-0.05
		c-0.71,0-1.27,0.15-1.68,0.46c-0.3,0.23-0.46,0.51-0.46,0.83c0,0.3,0.12,0.55,0.35,0.75s0.57,0.3,1.02,0.3
		c0.43,0,0.82-0.08,1.19-0.25s0.74-0.44,1.13-0.81V49.98z"/>
	<path d="M256.91,47.35v1.24c0.64-0.58,1.12-0.95,1.44-1.12s0.61-0.25,0.88-0.25c0.29,0,0.57,0.1,0.82,0.3s0.38,0.35,0.38,0.45
		c0,0.07-0.02,0.14-0.07,0.18s-0.11,0.07-0.18,0.07c-0.04,0-0.07-0.01-0.1-0.02s-0.08-0.06-0.15-0.13
		c-0.14-0.14-0.26-0.23-0.36-0.28s-0.2-0.08-0.3-0.08c-0.21,0-0.47,0.09-0.78,0.26s-0.83,0.59-1.57,1.26v2.7h2.18
		c0.12,0,0.21,0.02,0.26,0.07s0.08,0.1,0.08,0.18c0,0.07-0.03,0.13-0.08,0.18s-0.14,0.07-0.26,0.07h-3.86
		c-0.12,0-0.2-0.02-0.25-0.07s-0.08-0.1-0.08-0.17c0-0.07,0.02-0.12,0.07-0.17s0.13-0.07,0.25-0.07h1.19v-4.1h-0.91
		c-0.12,0-0.2-0.02-0.25-0.07s-0.08-0.11-0.08-0.18c0-0.07,0.02-0.13,0.07-0.18s0.13-0.07,0.25-0.07H256.91z"/>
	<path d="M264.96,47.35v4.58h1.93c0.12,0,0.21,0.02,0.26,0.07s0.08,0.1,0.08,0.18c0,0.07-0.03,0.13-0.08,0.18s-0.14,0.07-0.26,0.07
		h-4.36c-0.12,0-0.2-0.02-0.25-0.07s-0.08-0.11-0.08-0.18c0-0.07,0.03-0.13,0.08-0.18s0.13-0.07,0.25-0.07h1.93v-4.08h-1.44
		c-0.12,0-0.2-0.02-0.25-0.07s-0.08-0.11-0.08-0.18c0-0.07,0.03-0.13,0.08-0.18s0.14-0.07,0.26-0.07H264.96z M264.94,44.83v1.27
		h-0.73v-1.27H264.94z"/>
	<path d="M273.32,52.43v-0.71c-0.71,0.6-1.48,0.9-2.29,0.9c-0.59,0-1.05-0.15-1.38-0.45s-0.5-0.67-0.5-1.1
		c0-0.48,0.22-0.89,0.66-1.25s1.08-0.53,1.92-0.53c0.23,0,0.47,0.01,0.74,0.04s0.55,0.08,0.86,0.14v-0.8c0-0.27-0.13-0.5-0.38-0.7
		s-0.63-0.3-1.13-0.3c-0.38,0-0.92,0.11-1.61,0.33c-0.13,0.04-0.21,0.06-0.24,0.06c-0.06,0-0.12-0.02-0.16-0.07
		s-0.07-0.11-0.07-0.18c0-0.07,0.02-0.12,0.06-0.16c0.05-0.06,0.28-0.14,0.66-0.24c0.61-0.16,1.07-0.25,1.38-0.25
		c0.62,0,1.11,0.15,1.45,0.46s0.52,0.65,0.52,1.04v3.26h0.66c0.12,0,0.21,0.02,0.26,0.07s0.08,0.1,0.08,0.18
		c0,0.07-0.03,0.13-0.08,0.18s-0.14,0.07-0.26,0.07H273.32z M273.32,49.98c-0.23-0.07-0.47-0.12-0.73-0.15s-0.53-0.05-0.81-0.05
		c-0.71,0-1.27,0.15-1.68,0.46c-0.3,0.23-0.46,0.51-0.46,0.83c0,0.3,0.12,0.55,0.35,0.75s0.57,0.3,1.02,0.3
		c0.43,0,0.82-0.08,1.19-0.25s0.74-0.44,1.13-0.81V49.98z"/>
	<path d="M277.25,45.07v3.26c0.59-0.77,1.31-1.16,2.15-1.16c0.72,0,1.33,0.26,1.85,0.78s0.77,1.16,0.77,1.92
		c0,0.77-0.26,1.41-0.78,1.95s-1.13,0.8-1.84,0.8c-0.86,0-1.58-0.39-2.15-1.16v0.97h-1.15c-0.12,0-0.2-0.02-0.25-0.07
		s-0.08-0.11-0.08-0.18c0-0.07,0.03-0.13,0.08-0.18s0.13-0.07,0.25-0.07h0.66v-6.36h-0.66c-0.12,0-0.2-0.02-0.25-0.07
		s-0.08-0.11-0.08-0.18c0-0.07,0.03-0.13,0.08-0.18s0.13-0.07,0.25-0.07H277.25z M281.52,49.9c0-0.62-0.21-1.15-0.64-1.58
		s-0.92-0.65-1.49-0.65s-1.07,0.22-1.49,0.65s-0.64,0.96-0.64,1.58s0.21,1.15,0.64,1.58s0.92,0.65,1.49,0.65s1.07-0.22,1.49-0.65
		S281.52,50.52,281.52,49.9z"/>
	<path d="M286.55,45.07v6.86h1.93c0.12,0,0.21,0.02,0.26,0.07s0.08,0.1,0.08,0.18c0,0.07-0.03,0.13-0.08,0.18s-0.14,0.07-0.26,0.07
		h-4.36c-0.12,0-0.2-0.02-0.25-0.07s-0.08-0.11-0.08-0.18c0-0.07,0.03-0.13,0.08-0.18s0.13-0.07,0.25-0.07h1.93v-6.36h-1.42
		c-0.12,0-0.2-0.02-0.25-0.07s-0.08-0.11-0.08-0.18c0-0.07,0.03-0.13,0.08-0.18s0.14-0.07,0.26-0.07H286.55z"/>
	<path d="M296.17,50.01h-5.02c0.09,0.64,0.35,1.15,0.8,1.54s1,0.58,1.66,0.58c0.37,0,0.75-0.06,1.15-0.18s0.73-0.28,0.98-0.48
		c0.07-0.06,0.14-0.09,0.19-0.09c0.06,0,0.12,0.02,0.16,0.07s0.07,0.11,0.07,0.17s-0.03,0.13-0.09,0.19c-0.19,0.2-0.52,0.38-1,0.55
		s-0.97,0.25-1.47,0.25c-0.84,0-1.55-0.28-2.11-0.83s-0.85-1.22-0.85-2.01c0-0.71,0.26-1.33,0.79-1.84s1.18-0.77,1.97-0.77
		c0.8,0,1.47,0.26,1.99,0.79S296.18,49.17,296.17,50.01z M295.67,49.51c-0.1-0.54-0.35-0.98-0.77-1.32s-0.91-0.51-1.49-0.51
		s-1.07,0.17-1.48,0.5s-0.67,0.78-0.77,1.33H295.67z"/>
</g>
<rect x="215" y="40" class="st1" width="85" height="20"/>
<g>
	<g>
		<line class="st2" x1="195" y1="20" x2="206.14" y2="20"/>
		<g>
			<polygon points="204.16,22.91 215,20 204.16,17.09 			"/>
		</g>
	</g>
</g>
<g>
	<rect x="110" y="13" class="st0" width="85" height="17.58"/>
	<path d="M120.34,16.06v5.87h1.69c0.12,0,0.2,0.02,0.25,0.07s0.08,0.1,0.08,0.18c0,0.07-0.03,0.13-0.08,0.18s-0.13,0.07-0.25,0.07
		h-3.87c-0.12,0-0.2-0.02-0.25-0.07s-0.08-0.11-0.08-0.18c0-0.07,0.03-0.13,0.08-0.18s0.13-0.07,0.25-0.07h1.69v-5.87h-1.69
		c-0.12,0-0.2-0.02-0.25-0.07s-0.08-0.1-0.08-0.18s0.03-0.13,0.08-0.18s0.13-0.07,0.25-0.07h3.87c0.12,0,0.2,0.02,0.25,0.07
		s0.08,0.1,0.08,0.18s-0.03,0.13-0.08,0.18s-0.13,0.07-0.25,0.07H120.34z"/>
	<path d="M125.71,17.35v0.74c0.34-0.35,0.65-0.59,0.93-0.72s0.59-0.2,0.94-0.2c0.38,0,0.72,0.08,1.03,0.24
		c0.22,0.12,0.42,0.31,0.59,0.58s0.27,0.55,0.27,0.83v3.1h0.42c0.12,0,0.2,0.02,0.25,0.07s0.08,0.1,0.08,0.18
		c0,0.07-0.03,0.13-0.08,0.18s-0.13,0.07-0.25,0.07h-1.32c-0.12,0-0.21-0.02-0.26-0.07s-0.08-0.11-0.08-0.18
		c0-0.07,0.03-0.13,0.08-0.18s0.14-0.07,0.26-0.07h0.41v-3.02c0-0.35-0.13-0.64-0.38-0.88s-0.59-0.36-1.02-0.36
		c-0.32,0-0.61,0.07-0.84,0.2s-0.58,0.46-1.02,0.98v3.09h0.56c0.12,0,0.2,0.02,0.25,0.07s0.08,0.1,0.08,0.18
		c0,0.07-0.03,0.13-0.08,0.18s-0.13,0.07-0.25,0.07h-1.61c-0.12,0-0.2-0.02-0.25-0.07s-0.08-0.11-0.08-0.18
		c0-0.07,0.03-0.13,0.08-0.18s0.13-0.07,0.25-0.07h0.56v-4.08h-0.42c-0.12,0-0.2-0.02-0.25-0.07s-0.08-0.11-0.08-0.18
		c0-0.07,0.03-0.13,0.08-0.18s0.13-0.07,0.25-0.07H125.71z"/>
	<path d="M133.49,17.35h2.67c0.12,0,0.2,0.02,0.25,0.07s0.08,0.11,0.08,0.18c0,0.07-0.03,0.13-0.08,0.18s-0.13,0.07-0.25,0.07h-2.67
		v3.28c0,0.29,0.11,0.52,0.34,0.71s0.56,0.29,1,0.29c0.33,0,0.69-0.05,1.08-0.15s0.69-0.21,0.9-0.34c0.08-0.05,0.14-0.08,0.19-0.08
		c0.06,0,0.12,0.02,0.16,0.07s0.07,0.11,0.07,0.17c0,0.06-0.03,0.11-0.08,0.16c-0.13,0.13-0.43,0.27-0.91,0.42s-0.94,0.23-1.39,0.23
		c-0.57,0-1.03-0.13-1.37-0.4s-0.51-0.63-0.51-1.09v-3.28h-0.91c-0.12,0-0.2-0.02-0.25-0.07s-0.08-0.11-0.08-0.18
		c0-0.07,0.03-0.13,0.08-0.18s0.13-0.07,0.25-0.07h0.91V15.9c0-0.12,0.02-0.2,0.07-0.25s0.11-0.08,0.18-0.08
		c0.07,0,0.13,0.03,0.18,0.08s0.07,0.13,0.07,0.25V17.35z"/>
	<path d="M140.1,19.37v2.57H141c0.12,0,0.21,0.02,0.26,0.07s0.08,0.1,0.08,0.18c0,0.07-0.03,0.13-0.08,0.18s-0.14,0.07-0.26,0.07
		h-2.06c-0.12,0-0.2-0.02-0.25-0.07s-0.08-0.11-0.08-0.18c0-0.07,0.03-0.13,0.08-0.18s0.13-0.07,0.25-0.07h0.66v-5.87h-0.66
		c-0.12,0-0.2-0.02-0.25-0.07s-0.08-0.1-0.08-0.18s0.03-0.13,0.08-0.18s0.13-0.07,0.25-0.07h2.98c0.61,0,1.13,0.19,1.55,0.58
		s0.63,0.83,0.63,1.32c0,0.35-0.13,0.68-0.39,0.99s-0.69,0.57-1.3,0.78c0.35,0.24,0.65,0.52,0.9,0.82s0.65,0.93,1.2,1.88h0.38
		c0.12,0,0.2,0.02,0.25,0.07s0.08,0.1,0.08,0.18c0,0.07-0.03,0.13-0.08,0.18s-0.13,0.07-0.25,0.07h-0.66
		c-0.61-1.09-1.08-1.82-1.42-2.19s-0.72-0.66-1.15-0.87H140.1z M140.1,18.88h1.34c0.43,0,0.82-0.08,1.17-0.23s0.6-0.34,0.76-0.55
		s0.24-0.43,0.24-0.64c0-0.33-0.17-0.64-0.5-0.94s-0.73-0.45-1.2-0.45h-1.81V18.88z"/>
	<path d="M150.31,22.43v-0.71c-0.71,0.6-1.48,0.9-2.29,0.9c-0.59,0-1.05-0.15-1.38-0.45s-0.5-0.67-0.5-1.1
		c0-0.48,0.22-0.89,0.66-1.25s1.08-0.53,1.92-0.53c0.23,0,0.47,0.01,0.74,0.04s0.55,0.08,0.86,0.14v-0.8c0-0.27-0.13-0.5-0.38-0.7
		s-0.63-0.3-1.13-0.3c-0.38,0-0.92,0.11-1.61,0.33c-0.13,0.04-0.21,0.06-0.24,0.06c-0.06,0-0.12-0.02-0.16-0.07
		s-0.07-0.11-0.07-0.18c0-0.07,0.02-0.12,0.06-0.16c0.05-0.06,0.28-0.14,0.66-0.24c0.61-0.16,1.07-0.25,1.38-0.25
		c0.62,0,1.11,0.15,1.45,0.46s0.52,0.65,0.52,1.04v3.26h0.66c0.12,0,0.21,0.02,0.26,0.07s0.08,0.1,0.08,0.18
		c0,0.07-0.03,0.13-0.08,0.18s-0.14,0.07-0.26,0.07H150.31z M150.31,19.98c-0.23-0.07-0.47-0.12-0.73-0.15s-0.53-0.05-0.81-0.05
		c-0.71,0-1.27,0.15-1.68,0.46c-0.3,0.23-0.46,0.51-0.46,0.83c0,0.3,0.12,0.55,0.35,0.75s0.57,0.3,1.02,0.3
		c0.43,0,0.82-0.08,1.19-0.25s0.74-0.44,1.13-0.81V19.98z"/>
	<path d="M154.51,17.35v0.74c0.34-0.35,0.65-0.59,0.93-0.72s0.59-0.2,0.94-0.2c0.38,0,0.72,0.08,1.03,0.24
		c0.22,0.12,0.42,0.31,0.59,0.58s0.27,0.55,0.27,0.83v3.1h0.42c0.12,0,0.2,0.02,0.25,0.07s0.08,0.1,0.08,0.18
		c0,0.07-0.03,0.13-0.08,0.18s-0.13,0.07-0.25,0.07h-1.32c-0.12,0-0.21-0.02-0.26-0.07s-0.08-0.11-0.08-0.18
		c0-0.07,0.03-0.13,0.08-0.18s0.14-0.07,0.26-0.07h0.41v-3.02c0-0.35-0.13-0.64-0.38-0.88s-0.59-0.36-1.02-0.36
		c-0.32,0-0.61,0.07-0.84,0.2s-0.58,0.46-1.02,0.98v3.09h0.56c0.12,0,0.2,0.02,0.25,0.07s0.08,0.1,0.08,0.18
		c0,0.07-0.03,0.13-0.08,0.18s-0.13,0.07-0.25,0.07h-1.61c-0.12,0-0.2-0.02-0.25-0.07s-0.08-0.11-0.08-0.18
		c0-0.07,0.03-0.13,0.08-0.18s0.13-0.07,0.25-0.07h0.56v-4.08h-0.42c-0.12,0-0.2-0.02-0.25-0.07s-0.08-0.11-0.08-0.18
		c0-0.07,0.03-0.13,0.08-0.18s0.13-0.07,0.25-0.07H154.51z"/>
	<path d="M164.96,18.26v-0.9h1.15c0.12,0,0.2,0.02,0.25,0.07s0.08,0.11,0.08,0.18c0,0.07-0.03,0.13-0.08,0.18s-0.13,0.07-0.25,0.07
		h-0.66v4.92c0,0.33-0.07,0.62-0.21,0.88c-0.09,0.17-0.25,0.35-0.47,0.53s-0.42,0.31-0.6,0.39s-0.42,0.12-0.72,0.12h-1.39
		c-0.12,0-0.2-0.02-0.25-0.07s-0.08-0.1-0.08-0.18s0.03-0.13,0.08-0.18s0.13-0.07,0.25-0.07l1.41,0.01c0.29,0,0.55-0.07,0.78-0.22
		s0.42-0.37,0.58-0.65c0.09-0.16,0.13-0.37,0.13-0.63v-1.48c-0.53,0.72-1.21,1.08-2.04,1.08c-0.68,0-1.26-0.25-1.75-0.75
		s-0.74-1.11-0.74-1.81s0.25-1.31,0.74-1.81s1.07-0.75,1.75-0.75C163.75,17.18,164.43,17.54,164.96,18.26z M164.96,19.74
		c0-0.58-0.2-1.07-0.59-1.46s-0.87-0.6-1.42-0.6s-1.02,0.2-1.42,0.6s-0.59,0.89-0.59,1.46c0,0.58,0.2,1.07,0.59,1.47
		s0.87,0.6,1.42,0.6s1.02-0.2,1.42-0.6S164.96,20.32,164.96,19.74z"/>
	<path d="M173.17,20.01h-5.02c0.09,0.64,0.35,1.15,0.8,1.54s1,0.58,1.66,0.58c0.37,0,0.75-0.06,1.15-0.18s0.73-0.28,0.98-0.48
		c0.07-0.06,0.14-0.09,0.19-0.09c0.06,0,0.12,0.02,0.16,0.07s0.07,0.11,0.07,0.17s-0.03,0.13-0.09,0.19c-0.19,0.2-0.52,0.38-1,0.55
		s-0.97,0.25-1.47,0.25c-0.84,0-1.55-0.28-2.11-0.83s-0.85-1.22-0.85-2.01c0-0.71,0.26-1.33,0.79-1.84s1.18-0.77,1.97-0.77
		c0.8,0,1.47,0.26,1.99,0.79S173.17,19.17,173.17,20.01z M172.67,19.51c-0.1-0.54-0.35-0.98-0.77-1.32s-0.91-0.51-1.49-0.51
		s-1.07,0.17-1.48,0.5s-0.67,0.78-0.77,1.33H172.67z"/>
	<path d="M175.59,21.94h3.78v-0.19c0-0.12,0.02-0.2,0.07-0.25s0.11-0.08,0.18-0.08c0.07,0,0.13,0.03,0.18,0.08s0.07,0.13,0.07,0.25
		v0.69h-4.76V21.7c1-0.9,1.97-1.81,2.92-2.74c0.44-0.43,0.74-0.75,0.91-0.96s0.28-0.38,0.34-0.54s0.09-0.31,0.09-0.47
		c0-0.42-0.17-0.79-0.51-1.12s-0.75-0.49-1.23-0.49c-0.43,0-0.81,0.12-1.14,0.37s-0.55,0.55-0.64,0.91
		c-0.02,0.09-0.05,0.15-0.09,0.18c-0.05,0.04-0.1,0.06-0.16,0.06c-0.07,0-0.12-0.02-0.17-0.07s-0.07-0.1-0.07-0.16
		c0-0.19,0.1-0.44,0.31-0.76s0.49-0.57,0.85-0.76s0.73-0.28,1.11-0.28c0.61,0,1.14,0.21,1.58,0.64s0.66,0.91,0.66,1.45
		c0,0.23-0.04,0.43-0.11,0.62s-0.2,0.4-0.38,0.62s-0.5,0.56-0.96,1.02c-1.16,1.14-2.1,2.03-2.82,2.65V21.94z"/>
	<path d="M182.97,21.94v-5.87h-0.42c-0.12,0-0.2-0.02-0.25-0.07s-0.08-0.1-0.08-0.18s0.03-0.13,0.08-0.18s0.13-0.07,0.25-0.07h2.65
		c0.41,0,0.79,0.09,1.13,0.26s0.6,0.37,0.78,0.59c0.31,0.37,0.54,0.76,0.7,1.18c0.11,0.3,0.17,0.66,0.17,1.07v0.68
		c0,0.5-0.11,0.99-0.33,1.46s-0.59,0.88-1.11,1.24c-0.39,0.26-0.83,0.39-1.34,0.39h-2.65c-0.12,0-0.2-0.02-0.25-0.07
		s-0.08-0.11-0.08-0.18c0-0.07,0.03-0.13,0.08-0.18s0.13-0.07,0.25-0.07H182.97z M183.47,21.94h1.79c0.41,0,0.8-0.13,1.16-0.4
		s0.63-0.59,0.81-0.97s0.27-0.75,0.27-1.12v-0.89c0-0.3-0.05-0.58-0.15-0.81c-0.14-0.35-0.34-0.68-0.6-0.99
		c-0.14-0.17-0.35-0.33-0.62-0.47s-0.57-0.21-0.88-0.21h-1.79V21.94z"/>
</g>
<rect x="110" y="10" class="st3" width="85" height="20"/>
<g>
	<g>
		<polyline class="st10" points="200,20 200,50 206.26,50 		"/>
		<g>
			<polygon points="204.31,52.87 215,50 204.31,47.13 			"/>
		</g>
	</g>
</g>
</svg>
