<?xml version="1.0" encoding="utf-8"?>
<!-- Generator: Adobe Illustrator 24.1.1, SVG Export Plug-In . SVG Version: 6.00 Build 0)  -->
<svg version="1.1" id="レイヤー_1" xmlns="http://www.w3.org/2000/svg" xmlns:xlink="http://www.w3.org/1999/xlink" x="0px"
	 y="0px" viewBox="0 0 300 40" style="enable-background:new 0 0 300 40;" xml:space="preserve">
<style type="text/css">
	.st0{fill:none;}
	.st1{fill:none;stroke:#000000;stroke-miterlimit:10;}
	.st2{fill:none;stroke:#000000;stroke-width:2;stroke-miterlimit:10;}
	.st3{fill:none;stroke:#0000FF;stroke-miterlimit:10;}
	.st4{fill:#FFFFFF;stroke:#0000FF;stroke-miterlimit:10;}
	.st5{fill:none;stroke:#000000;stroke-width:1.2624;stroke-miterlimit:10;}
	.st6{fill:none;stroke:#00FF00;stroke-width:1.2624;stroke-miterlimit:10;}
</style>
<g>
	<rect x="110" y="13" class="st0" width="80" height="17.58"/>
	<path d="M116.74,16.06v5.87h3.27v-1.96c0-0.12,0.02-0.2,0.07-0.25s0.11-0.08,0.18-0.08c0.07,0,0.13,0.02,0.18,0.07
		s0.07,0.13,0.07,0.25v2.45h-5.44c-0.12,0-0.2-0.02-0.25-0.07s-0.08-0.11-0.08-0.18c0-0.07,0.03-0.13,0.08-0.18s0.13-0.07,0.25-0.07
		h1.17v-5.87h-1.17c-0.12,0-0.2-0.02-0.25-0.07s-0.08-0.1-0.08-0.18s0.03-0.13,0.08-0.18s0.13-0.07,0.25-0.07h2.84
		c0.12,0,0.2,0.02,0.25,0.07s0.08,0.1,0.08,0.18s-0.03,0.13-0.08,0.18s-0.13,0.07-0.25,0.07H116.74z"/>
	<path d="M127.55,19.9c0,0.75-0.27,1.39-0.81,1.92s-1.18,0.8-1.94,0.8c-0.77,0-1.42-0.27-1.95-0.8s-0.8-1.17-0.8-1.92
		c0-0.75,0.27-1.39,0.8-1.92s1.19-0.8,1.95-0.8c0.76,0,1.41,0.27,1.94,0.8S127.55,19.15,127.55,19.9z M127.05,19.9
		c0-0.62-0.22-1.14-0.66-1.58s-0.97-0.65-1.6-0.65s-1.16,0.22-1.6,0.65s-0.66,0.96-0.66,1.57c0,0.61,0.22,1.13,0.66,1.57
		s0.97,0.66,1.6,0.66s1.16-0.22,1.6-0.65S127.05,20.52,127.05,19.9z"/>
	<path d="M133.41,22.43v-0.71c-0.71,0.6-1.48,0.9-2.29,0.9c-0.59,0-1.05-0.15-1.38-0.45s-0.5-0.67-0.5-1.1
		c0-0.48,0.22-0.89,0.66-1.25s1.08-0.53,1.92-0.53c0.23,0,0.47,0.01,0.74,0.04s0.55,0.08,0.86,0.14v-0.8c0-0.27-0.13-0.5-0.38-0.7
		s-0.63-0.3-1.13-0.3c-0.38,0-0.92,0.11-1.61,0.33c-0.13,0.04-0.21,0.06-0.24,0.06c-0.06,0-0.12-0.02-0.16-0.07
		s-0.07-0.11-0.07-0.18c0-0.07,0.02-0.12,0.06-0.16c0.05-0.06,0.28-0.14,0.66-0.24c0.61-0.16,1.07-0.25,1.38-0.25
		c0.62,0,1.11,0.15,1.45,0.46s0.52,0.65,0.52,1.04v3.26h0.66c0.12,0,0.21,0.02,0.26,0.07s0.08,0.1,0.08,0.18
		c0,0.07-0.03,0.13-0.08,0.18s-0.14,0.07-0.26,0.07H133.41z M133.41,19.98c-0.23-0.07-0.47-0.12-0.73-0.15s-0.53-0.05-0.81-0.05
		c-0.71,0-1.27,0.15-1.68,0.46c-0.3,0.23-0.46,0.51-0.46,0.83c0,0.3,0.12,0.55,0.35,0.75s0.57,0.3,1.02,0.3
		c0.43,0,0.82-0.08,1.19-0.25s0.74-0.44,1.13-0.81V19.98z"/>
	<path d="M141.61,15.07v6.86h0.66c0.12,0,0.21,0.02,0.26,0.07s0.08,0.1,0.08,0.18c0,0.07-0.03,0.13-0.08,0.18s-0.14,0.07-0.26,0.07
		h-1.15v-0.98c-0.57,0.78-1.29,1.17-2.17,1.17c-0.45,0-0.87-0.12-1.28-0.35s-0.73-0.57-0.97-1.01s-0.35-0.89-0.35-1.35
		c0-0.47,0.12-0.92,0.35-1.36s0.56-0.77,0.97-1.01s0.84-0.36,1.29-0.36c0.86,0,1.58,0.39,2.17,1.17v-2.78h-0.66
		c-0.12,0-0.21-0.02-0.26-0.07s-0.08-0.11-0.08-0.18c0-0.07,0.03-0.13,0.08-0.18s0.14-0.07,0.26-0.07H141.61z M141.11,19.9
		c0-0.63-0.21-1.15-0.63-1.58s-0.92-0.64-1.51-0.64c-0.59,0-1.09,0.21-1.51,0.64s-0.63,0.96-0.63,1.58c0,0.62,0.21,1.15,0.63,1.58
		s0.93,0.65,1.51,0.65c0.58,0,1.08-0.22,1.51-0.65S141.11,20.52,141.11,19.9z"/>
	<path d="M148.56,22.43h-0.77l-1.39-4.87l-1.37,4.87h-0.77l-0.73-6.36h-0.18c-0.12,0-0.2-0.02-0.25-0.07s-0.08-0.1-0.08-0.18
		s0.03-0.13,0.08-0.18s0.13-0.07,0.25-0.07h1.83c0.12,0,0.21,0.02,0.26,0.07s0.08,0.1,0.08,0.18s-0.03,0.13-0.08,0.18
		s-0.14,0.07-0.26,0.07h-1.15l0.65,5.8l1.33-4.78h0.76l1.37,4.78l0.64-5.8h-1.15c-0.12,0-0.2-0.02-0.25-0.07s-0.08-0.1-0.08-0.18
		s0.03-0.13,0.08-0.18s0.13-0.07,0.25-0.07h1.82c0.12,0,0.21,0.02,0.26,0.07s0.08,0.1,0.08,0.18s-0.03,0.13-0.08,0.18
		s-0.14,0.07-0.26,0.07h-0.18L148.56,22.43z"/>
	<path d="M155.02,22.43v-0.71c-0.71,0.6-1.48,0.9-2.29,0.9c-0.59,0-1.05-0.15-1.38-0.45s-0.5-0.67-0.5-1.1
		c0-0.48,0.22-0.89,0.66-1.25s1.08-0.53,1.92-0.53c0.23,0,0.47,0.01,0.74,0.04s0.55,0.08,0.86,0.14v-0.8c0-0.27-0.13-0.5-0.38-0.7
		s-0.63-0.3-1.13-0.3c-0.38,0-0.92,0.11-1.61,0.33c-0.13,0.04-0.21,0.06-0.24,0.06c-0.06,0-0.12-0.02-0.16-0.07
		s-0.07-0.11-0.07-0.18c0-0.07,0.02-0.12,0.06-0.16c0.05-0.06,0.28-0.14,0.66-0.24c0.61-0.16,1.07-0.25,1.38-0.25
		c0.62,0,1.11,0.15,1.45,0.46s0.52,0.65,0.52,1.04v3.26h0.66c0.12,0,0.21,0.02,0.26,0.07s0.08,0.1,0.08,0.18
		c0,0.07-0.03,0.13-0.08,0.18s-0.14,0.07-0.26,0.07H155.02z M155.02,19.98c-0.23-0.07-0.47-0.12-0.73-0.15s-0.53-0.05-0.81-0.05
		c-0.71,0-1.27,0.15-1.68,0.46c-0.3,0.23-0.46,0.51-0.46,0.83c0,0.3,0.12,0.55,0.35,0.75s0.57,0.3,1.02,0.3
		c0.43,0,0.82-0.08,1.19-0.25s0.74-0.44,1.13-0.81V19.98z"/>
	<path d="M161.23,22.43h-0.83l-2.02-4.58h-0.5c-0.12,0-0.2-0.02-0.25-0.07s-0.08-0.11-0.08-0.18c0-0.07,0.03-0.13,0.08-0.18
		s0.13-0.07,0.25-0.07h1.85c0.12,0,0.2,0.02,0.25,0.07s0.08,0.11,0.08,0.18c0,0.07-0.03,0.13-0.08,0.18s-0.13,0.07-0.25,0.07h-0.81
		l1.8,4.08h0.22l1.77-4.08h-0.82c-0.12,0-0.2-0.02-0.25-0.07s-0.08-0.11-0.08-0.18c0-0.07,0.03-0.13,0.08-0.18s0.13-0.07,0.25-0.07
		h1.85c0.12,0,0.21,0.02,0.25,0.07s0.07,0.11,0.07,0.18c0,0.07-0.02,0.13-0.07,0.18s-0.13,0.07-0.25,0.07h-0.5L161.23,22.43z"/>
	<path d="M170.67,20.01h-5.02c0.09,0.64,0.35,1.15,0.8,1.54s1,0.58,1.66,0.58c0.37,0,0.75-0.06,1.15-0.18s0.73-0.28,0.98-0.48
		c0.07-0.06,0.14-0.09,0.19-0.09c0.06,0,0.12,0.02,0.16,0.07s0.07,0.11,0.07,0.17s-0.03,0.13-0.09,0.19c-0.19,0.2-0.52,0.38-1,0.55
		s-0.97,0.25-1.47,0.25c-0.84,0-1.55-0.28-2.11-0.83s-0.85-1.22-0.85-2.01c0-0.71,0.26-1.33,0.79-1.84s1.18-0.77,1.97-0.77
		c0.8,0,1.47,0.26,1.99,0.79S170.67,19.17,170.67,20.01z M170.17,19.51c-0.1-0.54-0.35-0.98-0.77-1.32s-0.91-0.51-1.49-0.51
		s-1.07,0.17-1.48,0.5s-0.67,0.78-0.77,1.33H170.17z"/>
	<path d="M176.21,18.43c0.45,0.2,0.8,0.48,1.04,0.83s0.36,0.72,0.36,1.1c0,0.59-0.24,1.11-0.72,1.56s-1.08,0.68-1.8,0.68
		c-0.42,0-0.86-0.09-1.31-0.27s-0.77-0.36-0.95-0.55c-0.06-0.06-0.09-0.13-0.09-0.2c0-0.06,0.02-0.12,0.07-0.16s0.1-0.07,0.16-0.07
		s0.13,0.03,0.21,0.09c0.61,0.45,1.25,0.67,1.92,0.67c0.57,0,1.05-0.18,1.43-0.54s0.58-0.75,0.58-1.19c0-0.29-0.09-0.58-0.28-0.86
		s-0.46-0.5-0.82-0.67s-0.71-0.24-1.08-0.24c-0.12,0-0.2-0.02-0.25-0.07s-0.08-0.1-0.08-0.18c0-0.07,0.02-0.13,0.07-0.18
		s0.12-0.07,0.22-0.07l0.42,0.01c0.44,0,0.81-0.13,1.09-0.4s0.43-0.58,0.43-0.94c0-0.37-0.15-0.69-0.45-0.97s-0.69-0.42-1.18-0.42
		c-0.34,0-0.65,0.06-0.94,0.18s-0.51,0.28-0.69,0.48c-0.06,0.08-0.11,0.13-0.14,0.14s-0.07,0.03-0.11,0.03
		c-0.07,0-0.12-0.02-0.17-0.07s-0.07-0.1-0.07-0.16c0-0.16,0.17-0.35,0.51-0.59c0.47-0.33,1.01-0.5,1.61-0.5
		c0.62,0,1.13,0.19,1.53,0.56s0.6,0.82,0.6,1.33c0,0.33-0.1,0.64-0.29,0.93S176.59,18.25,176.21,18.43z"/>
	<path d="M180.47,21.94v-5.87h-0.42c-0.12,0-0.2-0.02-0.25-0.07s-0.08-0.1-0.08-0.18s0.03-0.13,0.08-0.18s0.13-0.07,0.25-0.07h2.65
		c0.41,0,0.79,0.09,1.13,0.26s0.6,0.37,0.78,0.59c0.31,0.37,0.54,0.76,0.7,1.18c0.11,0.3,0.17,0.66,0.17,1.07v0.68
		c0,0.5-0.11,0.99-0.33,1.46s-0.59,0.88-1.11,1.24c-0.39,0.26-0.83,0.39-1.34,0.39h-2.65c-0.12,0-0.2-0.02-0.25-0.07
		s-0.08-0.11-0.08-0.18c0-0.07,0.03-0.13,0.08-0.18s0.13-0.07,0.25-0.07H180.47z M180.97,21.94h1.79c0.41,0,0.8-0.13,1.16-0.4
		s0.63-0.59,0.81-0.97s0.27-0.75,0.27-1.12v-0.89c0-0.3-0.05-0.58-0.15-0.81c-0.14-0.35-0.34-0.68-0.6-0.99
		c-0.14-0.17-0.35-0.33-0.62-0.47s-0.57-0.21-0.88-0.21h-1.79V21.94z"/>
</g>
<g>
	<rect x="210" y="13" class="st0" width="80" height="17.58"/>
	<path d="M221.44,15.57v7.88h1.2c0.12,0,0.2,0.02,0.25,0.07s0.08,0.1,0.08,0.18s-0.03,0.13-0.08,0.18s-0.13,0.07-0.25,0.07h-1.69
		v-8.87h1.69c0.12,0,0.2,0.02,0.25,0.07s0.08,0.11,0.08,0.18c0,0.07-0.03,0.13-0.08,0.18s-0.13,0.07-0.25,0.07H221.44z"/>
	<path d="M228.64,14.97v6.96h1.69c0.12,0,0.2,0.02,0.25,0.07s0.08,0.1,0.08,0.18c0,0.07-0.03,0.13-0.08,0.18s-0.13,0.07-0.25,0.07
		h-3.87c-0.12,0-0.2-0.02-0.25-0.07s-0.08-0.11-0.08-0.18c0-0.07,0.03-0.13,0.08-0.18s0.13-0.07,0.25-0.07h1.69v-6.28l-1.61,0.5
		c-0.08,0.02-0.13,0.04-0.17,0.04c-0.06,0-0.11-0.02-0.16-0.07s-0.07-0.11-0.07-0.17c0-0.06,0.02-0.11,0.06-0.16
		c0.03-0.03,0.1-0.06,0.19-0.1L228.64,14.97z"/>
	<path d="M235.37,23.45v-7.88h-1.19c-0.12,0-0.2-0.02-0.25-0.07s-0.08-0.11-0.08-0.18c0-0.07,0.03-0.13,0.08-0.18
		s0.13-0.07,0.25-0.07h1.69v8.87h-1.69c-0.12,0-0.2-0.02-0.25-0.07s-0.08-0.1-0.08-0.18c0-0.07,0.03-0.13,0.08-0.18
		s0.13-0.07,0.25-0.07H235.37z"/>
	<path d="M244.96,22.43h-0.77l-1.39-4.87l-1.37,4.87h-0.77l-0.73-6.36h-0.18c-0.12,0-0.2-0.02-0.25-0.07s-0.08-0.1-0.08-0.18
		s0.03-0.13,0.08-0.18s0.13-0.07,0.25-0.07h1.83c0.12,0,0.21,0.02,0.26,0.07s0.08,0.1,0.08,0.18s-0.03,0.13-0.08,0.18
		s-0.14,0.07-0.26,0.07h-1.15l0.65,5.8l1.33-4.78h0.76l1.37,4.78l0.64-5.8h-1.15c-0.12,0-0.2-0.02-0.25-0.07s-0.08-0.1-0.08-0.18
		s0.03-0.13,0.08-0.18s0.13-0.07,0.25-0.07h1.82c0.12,0,0.21,0.02,0.26,0.07s0.08,0.1,0.08,0.18s-0.03,0.13-0.08,0.18
		s-0.14,0.07-0.26,0.07h-0.18L244.96,22.43z"/>
	<path d="M251.42,22.43v-0.71c-0.71,0.6-1.48,0.9-2.29,0.9c-0.59,0-1.05-0.15-1.38-0.45s-0.5-0.67-0.5-1.1
		c0-0.48,0.22-0.89,0.66-1.25s1.08-0.53,1.92-0.53c0.23,0,0.47,0.01,0.74,0.04s0.55,0.08,0.86,0.14v-0.8c0-0.27-0.13-0.5-0.38-0.7
		s-0.63-0.3-1.13-0.3c-0.38,0-0.92,0.11-1.61,0.33c-0.13,0.04-0.21,0.06-0.24,0.06c-0.06,0-0.12-0.02-0.16-0.07
		s-0.07-0.11-0.07-0.18c0-0.07,0.02-0.12,0.06-0.16c0.05-0.06,0.28-0.14,0.66-0.24c0.61-0.16,1.07-0.25,1.38-0.25
		c0.62,0,1.11,0.15,1.45,0.46s0.52,0.65,0.52,1.04v3.26h0.66c0.12,0,0.21,0.02,0.26,0.07s0.08,0.1,0.08,0.18
		c0,0.07-0.03,0.13-0.08,0.18s-0.14,0.07-0.26,0.07H251.42z M251.42,19.98c-0.23-0.07-0.47-0.12-0.73-0.15s-0.53-0.05-0.81-0.05
		c-0.71,0-1.27,0.15-1.68,0.46c-0.3,0.23-0.46,0.51-0.46,0.83c0,0.3,0.12,0.55,0.35,0.75s0.57,0.3,1.02,0.3
		c0.43,0,0.82-0.08,1.19-0.25s0.74-0.44,1.13-0.81V19.98z"/>
	<path d="M257.63,22.43h-0.83l-2.02-4.58h-0.5c-0.12,0-0.2-0.02-0.25-0.07s-0.08-0.11-0.08-0.18c0-0.07,0.03-0.13,0.08-0.18
		s0.13-0.07,0.25-0.07h1.85c0.12,0,0.2,0.02,0.25,0.07s0.08,0.11,0.08,0.18c0,0.07-0.03,0.13-0.08,0.18s-0.13,0.07-0.25,0.07h-0.81
		l1.8,4.08h0.22l1.77-4.08h-0.82c-0.12,0-0.2-0.02-0.25-0.07s-0.08-0.11-0.08-0.18c0-0.07,0.03-0.13,0.08-0.18s0.13-0.07,0.25-0.07
		h1.85c0.12,0,0.21,0.02,0.25,0.07s0.07,0.11,0.07,0.18c0,0.07-0.02,0.13-0.07,0.18s-0.13,0.07-0.25,0.07h-0.5L257.63,22.43z"/>
	<path d="M267.07,20.01h-5.02c0.09,0.64,0.35,1.15,0.8,1.54s1,0.58,1.66,0.58c0.37,0,0.75-0.06,1.15-0.18s0.73-0.28,0.98-0.48
		c0.07-0.06,0.14-0.09,0.19-0.09c0.06,0,0.12,0.02,0.16,0.07s0.07,0.11,0.07,0.17s-0.03,0.13-0.09,0.19c-0.19,0.2-0.52,0.38-1,0.55
		s-0.97,0.25-1.47,0.25c-0.84,0-1.55-0.28-2.11-0.83s-0.85-1.22-0.85-2.01c0-0.71,0.26-1.33,0.79-1.84s1.18-0.77,1.97-0.77
		c0.8,0,1.47,0.26,1.99,0.79S267.07,19.17,267.07,20.01z M266.57,19.51c-0.1-0.54-0.35-0.98-0.77-1.32s-0.91-0.51-1.49-0.51
		s-1.07,0.17-1.48,0.5s-0.67,0.78-0.77,1.33H266.57z"/>
	<path d="M272.61,18.43c0.45,0.2,0.8,0.48,1.04,0.83s0.36,0.72,0.36,1.1c0,0.59-0.24,1.11-0.72,1.56s-1.08,0.68-1.8,0.68
		c-0.42,0-0.86-0.09-1.31-0.27s-0.77-0.36-0.95-0.55c-0.06-0.06-0.09-0.13-0.09-0.2c0-0.06,0.02-0.12,0.07-0.16s0.1-0.07,0.16-0.07
		s0.13,0.03,0.21,0.09c0.61,0.45,1.25,0.67,1.92,0.67c0.57,0,1.05-0.18,1.43-0.54s0.58-0.75,0.58-1.19c0-0.29-0.09-0.58-0.28-0.86
		s-0.46-0.5-0.82-0.67s-0.71-0.24-1.08-0.24c-0.12,0-0.2-0.02-0.25-0.07s-0.08-0.1-0.08-0.18c0-0.07,0.02-0.13,0.07-0.18
		s0.12-0.07,0.22-0.07l0.42,0.01c0.44,0,0.81-0.13,1.09-0.4s0.43-0.58,0.43-0.94c0-0.37-0.15-0.69-0.45-0.97s-0.69-0.42-1.18-0.42
		c-0.34,0-0.65,0.06-0.94,0.18s-0.51,0.28-0.69,0.48c-0.06,0.08-0.11,0.13-0.14,0.14s-0.07,0.03-0.11,0.03
		c-0.07,0-0.12-0.02-0.17-0.07s-0.07-0.1-0.07-0.16c0-0.16,0.17-0.35,0.51-0.59c0.47-0.33,1.01-0.5,1.61-0.5
		c0.62,0,1.13,0.19,1.53,0.56s0.6,0.82,0.6,1.33c0,0.33-0.1,0.64-0.29,0.93S272.99,18.25,272.61,18.43z"/>
	<path d="M276.87,21.94v-5.87h-0.42c-0.12,0-0.2-0.02-0.25-0.07s-0.08-0.1-0.08-0.18s0.03-0.13,0.08-0.18s0.13-0.07,0.25-0.07h2.65
		c0.41,0,0.79,0.09,1.13,0.26s0.6,0.37,0.78,0.59c0.31,0.37,0.54,0.76,0.7,1.18c0.11,0.3,0.17,0.66,0.17,1.07v0.68
		c0,0.5-0.11,0.99-0.33,1.46s-0.59,0.88-1.11,1.24c-0.39,0.26-0.83,0.39-1.34,0.39h-2.65c-0.12,0-0.2-0.02-0.25-0.07
		s-0.08-0.11-0.08-0.18c0-0.07,0.03-0.13,0.08-0.18s0.13-0.07,0.25-0.07H276.87z M277.37,21.94h1.79c0.41,0,0.8-0.13,1.16-0.4
		s0.63-0.59,0.81-0.97s0.27-0.75,0.27-1.12v-0.89c0-0.3-0.05-0.58-0.15-0.81c-0.14-0.35-0.34-0.68-0.6-0.99
		c-0.14-0.17-0.35-0.33-0.62-0.47s-0.57-0.21-0.88-0.21h-1.79V21.94z"/>
</g>
<g>
	<rect x="10" y="13" class="st0" width="80" height="17.58"/>
	<path d="M21.44,15.57v7.88h1.2c0.12,0,0.2,0.02,0.25,0.07s0.08,0.1,0.08,0.18s-0.03,0.13-0.08,0.18s-0.13,0.07-0.25,0.07h-1.69
		v-8.87h1.69c0.12,0,0.2,0.02,0.25,0.07s0.08,0.11,0.08,0.18c0,0.07-0.03,0.13-0.08,0.18s-0.13,0.07-0.25,0.07H21.44z"/>
	<path d="M30.66,18.14v1.22c0,1.06-0.25,1.9-0.76,2.51c-0.39,0.48-0.89,0.73-1.49,0.73c-0.29,0-0.56-0.06-0.82-0.17
		s-0.47-0.28-0.65-0.48c-0.11-0.13-0.24-0.34-0.37-0.62s-0.23-0.55-0.29-0.79c-0.09-0.34-0.13-0.73-0.13-1.18v-1.22
		c0-1.06,0.25-1.9,0.76-2.52c0.39-0.48,0.89-0.73,1.49-0.73c0.29,0,0.57,0.06,0.82,0.17s0.47,0.28,0.65,0.48
		c0.12,0.13,0.24,0.34,0.38,0.63s0.23,0.54,0.29,0.78C30.61,17.3,30.66,17.69,30.66,18.14z M30.16,18.21c0-0.46-0.07-0.9-0.2-1.3
		s-0.28-0.72-0.44-0.96c-0.1-0.14-0.22-0.25-0.38-0.35c-0.22-0.14-0.47-0.21-0.75-0.21c-0.55,0-0.98,0.28-1.29,0.84
		s-0.47,1.22-0.47,1.97v1.08c0,0.46,0.07,0.9,0.2,1.3s0.28,0.72,0.45,0.96c0.09,0.13,0.22,0.25,0.38,0.35
		c0.22,0.14,0.47,0.21,0.76,0.21c0.55,0,0.98-0.28,1.29-0.85s0.47-1.22,0.47-1.97V18.21z"/>
	<path d="M35.37,23.45v-7.88h-1.19c-0.12,0-0.2-0.02-0.25-0.07s-0.08-0.11-0.08-0.18c0-0.07,0.03-0.13,0.08-0.18
		s0.13-0.07,0.25-0.07h1.69v8.87h-1.69c-0.12,0-0.2-0.02-0.25-0.07s-0.08-0.1-0.08-0.18c0-0.07,0.03-0.13,0.08-0.18
		s0.13-0.07,0.25-0.07H35.37z"/>
	<path d="M44.56,16.06V15.9c0-0.12,0.02-0.2,0.07-0.25s0.1-0.08,0.18-0.08s0.13,0.03,0.18,0.08s0.07,0.13,0.07,0.25v1.25
		c0,0.12-0.02,0.2-0.07,0.25s-0.1,0.08-0.18,0.08c-0.07,0-0.13-0.02-0.17-0.07s-0.07-0.12-0.07-0.23c-0.02-0.33-0.19-0.62-0.51-0.88
		s-0.74-0.39-1.25-0.39c-0.54,0-0.97,0.14-1.29,0.42s-0.48,0.61-0.48,0.99c0,0.2,0.04,0.37,0.13,0.53s0.21,0.29,0.36,0.39
		s0.32,0.18,0.5,0.24s0.48,0.12,0.88,0.19c0.67,0.11,1.13,0.22,1.38,0.33c0.34,0.15,0.6,0.36,0.77,0.63s0.26,0.59,0.26,0.96
		c0,0.56-0.22,1.04-0.67,1.44s-1.05,0.59-1.82,0.59c-0.86,0-1.54-0.27-2.05-0.8v0.28c0,0.12-0.02,0.2-0.07,0.25s-0.1,0.08-0.18,0.08
		c-0.07,0-0.13-0.03-0.18-0.08s-0.07-0.13-0.07-0.25v-1.36c0-0.12,0.02-0.21,0.07-0.26s0.1-0.08,0.18-0.08
		c0.07,0,0.13,0.02,0.17,0.07s0.07,0.12,0.07,0.23c0.02,0.36,0.21,0.69,0.58,0.98s0.86,0.44,1.47,0.44s1.1-0.15,1.46-0.46
		s0.54-0.67,0.54-1.1c0-0.26-0.07-0.49-0.21-0.69s-0.34-0.36-0.61-0.48c-0.19-0.08-0.58-0.17-1.17-0.28
		c-0.82-0.14-1.4-0.35-1.76-0.63s-0.54-0.68-0.54-1.2c0-0.52,0.21-0.96,0.62-1.33s0.96-0.56,1.63-0.56
		C43.47,15.41,44.06,15.63,44.56,16.06z"/>
	<path d="M48.99,17.35h2.67c0.12,0,0.2,0.02,0.25,0.07s0.08,0.11,0.08,0.18c0,0.07-0.03,0.13-0.08,0.18s-0.13,0.07-0.25,0.07h-2.67
		v3.28c0,0.29,0.11,0.52,0.34,0.71s0.56,0.29,1,0.29c0.33,0,0.69-0.05,1.08-0.15s0.69-0.21,0.9-0.34c0.08-0.05,0.14-0.08,0.19-0.08
		c0.06,0,0.12,0.02,0.16,0.07s0.07,0.11,0.07,0.17c0,0.06-0.03,0.11-0.08,0.16c-0.13,0.13-0.43,0.27-0.91,0.42s-0.94,0.23-1.39,0.23
		c-0.57,0-1.03-0.13-1.37-0.4s-0.51-0.63-0.51-1.09v-3.28h-0.91c-0.12,0-0.2-0.02-0.25-0.07s-0.08-0.11-0.08-0.18
		c0-0.07,0.03-0.13,0.08-0.18s0.13-0.07,0.25-0.07h0.91V15.9c0-0.12,0.02-0.2,0.07-0.25s0.11-0.08,0.18-0.08
		c0.07,0,0.13,0.03,0.18,0.08s0.07,0.13,0.07,0.25V17.35z"/>
	<path d="M56.61,17.35v1.24c0.64-0.58,1.12-0.95,1.44-1.12s0.61-0.25,0.88-0.25c0.29,0,0.57,0.1,0.82,0.3s0.38,0.35,0.38,0.45
		c0,0.07-0.02,0.14-0.07,0.18s-0.11,0.07-0.18,0.07c-0.04,0-0.07-0.01-0.1-0.02s-0.08-0.06-0.15-0.13
		c-0.14-0.14-0.26-0.23-0.36-0.28s-0.2-0.08-0.3-0.08c-0.21,0-0.47,0.09-0.78,0.26s-0.83,0.59-1.57,1.26v2.7h2.18
		c0.12,0,0.21,0.02,0.26,0.07s0.08,0.1,0.08,0.18c0,0.07-0.03,0.13-0.08,0.18s-0.14,0.07-0.26,0.07h-3.86
		c-0.12,0-0.2-0.02-0.25-0.07s-0.08-0.1-0.08-0.17c0-0.07,0.02-0.12,0.07-0.17s0.13-0.07,0.25-0.07h1.19v-4.1h-0.91
		c-0.12,0-0.2-0.02-0.25-0.07s-0.08-0.11-0.08-0.18c0-0.07,0.02-0.13,0.07-0.18s0.13-0.07,0.25-0.07H56.61z"/>
	<path d="M64.66,17.35v4.58h1.93c0.12,0,0.21,0.02,0.26,0.07s0.08,0.1,0.08,0.18c0,0.07-0.03,0.13-0.08,0.18s-0.14,0.07-0.26,0.07
		h-4.36c-0.12,0-0.2-0.02-0.25-0.07s-0.08-0.11-0.08-0.18c0-0.07,0.03-0.13,0.08-0.18s0.13-0.07,0.25-0.07h1.93v-4.08h-1.44
		c-0.12,0-0.2-0.02-0.25-0.07s-0.08-0.11-0.08-0.18c0-0.07,0.03-0.13,0.08-0.18s0.14-0.07,0.26-0.07H64.66z M64.65,14.83v1.27h-0.73
		v-1.27H64.65z"/>
	<path d="M70.01,17.35v0.74c0.34-0.35,0.65-0.59,0.93-0.72s0.59-0.2,0.94-0.2c0.38,0,0.72,0.08,1.03,0.24
		c0.22,0.12,0.42,0.31,0.59,0.58s0.27,0.55,0.27,0.83v3.1h0.42c0.12,0,0.2,0.02,0.25,0.07s0.08,0.1,0.08,0.18
		c0,0.07-0.03,0.13-0.08,0.18s-0.13,0.07-0.25,0.07h-1.32c-0.12,0-0.21-0.02-0.26-0.07s-0.08-0.11-0.08-0.18
		c0-0.07,0.03-0.13,0.08-0.18s0.14-0.07,0.26-0.07h0.41v-3.02c0-0.35-0.13-0.64-0.38-0.88s-0.59-0.36-1.02-0.36
		c-0.32,0-0.61,0.07-0.84,0.2s-0.58,0.46-1.02,0.98v3.09h0.56c0.12,0,0.2,0.02,0.25,0.07s0.08,0.1,0.08,0.18
		c0,0.07-0.03,0.13-0.08,0.18s-0.13,0.07-0.25,0.07h-1.61c-0.12,0-0.2-0.02-0.25-0.07s-0.08-0.11-0.08-0.18
		c0-0.07,0.03-0.13,0.08-0.18s0.13-0.07,0.25-0.07h0.56v-4.08H69.1c-0.12,0-0.2-0.02-0.25-0.07s-0.08-0.11-0.08-0.18
		c0-0.07,0.03-0.13,0.08-0.18s0.13-0.07,0.25-0.07H70.01z"/>
	<path d="M80.46,18.26v-0.9h1.15c0.12,0,0.2,0.02,0.25,0.07s0.08,0.11,0.08,0.18c0,0.07-0.03,0.13-0.08,0.18s-0.13,0.07-0.25,0.07
		h-0.66v4.92c0,0.33-0.07,0.62-0.21,0.88c-0.09,0.17-0.25,0.35-0.47,0.53s-0.42,0.31-0.6,0.39s-0.42,0.12-0.72,0.12h-1.39
		c-0.12,0-0.2-0.02-0.25-0.07s-0.08-0.1-0.08-0.18s0.03-0.13,0.08-0.18s0.13-0.07,0.25-0.07l1.41,0.01c0.29,0,0.55-0.07,0.78-0.22
		s0.42-0.37,0.58-0.65c0.09-0.16,0.13-0.37,0.13-0.63v-1.48c-0.53,0.72-1.21,1.08-2.04,1.08c-0.68,0-1.26-0.25-1.75-0.75
		s-0.74-1.11-0.74-1.81s0.25-1.31,0.74-1.81s1.07-0.75,1.75-0.75C79.25,17.18,79.93,17.54,80.46,18.26z M80.46,19.74
		c0-0.58-0.2-1.07-0.59-1.46s-0.87-0.6-1.42-0.6s-1.02,0.2-1.42,0.6s-0.59,0.89-0.59,1.46c0,0.58,0.2,1.07,0.59,1.47
		s0.87,0.6,1.42,0.6s1.02-0.2,1.42-0.6S80.46,20.32,80.46,19.74z"/>
</g>
<rect x="10" y="10" class="st1" width="80" height="20"/>
<rect x="210" y="10" class="st1" width="80" height="20"/>
<g>
	<g>
		<line class="st2" x1="90" y1="20" x2="101.14" y2="20"/>
		<g>
			<polygon points="99.16,22.91 110,20 99.16,17.09 			"/>
		</g>
	</g>
</g>
<g>
	<g>
		<line class="st2" x1="190" y1="20" x2="201.14" y2="20"/>
		<g>
			<polygon points="199.16,22.91 210,20 199.16,17.09 			"/>
		</g>
	</g>
</g>
<rect x="110" y="10" class="st3" width="80" height="20"/>
</svg>
