<?xml version="1.0" encoding="utf-8"?>
<!-- Generator: Adobe Illustrator 24.2.3, SVG Export Plug-In . SVG Version: 6.00 Build 0)  -->
<svg version="1.1" id="レイヤー_1" xmlns="http://www.w3.org/2000/svg" xmlns:xlink="http://www.w3.org/1999/xlink" x="0px"
	 y="0px" width="310px" height="40px" viewBox="0 0 310 40" style="enable-background:new 0 0 310 40;" xml:space="preserve">
<style type="text/css">
	.st0{fill:none;}
	.st1{fill:none;stroke:#000000;stroke-miterlimit:10;}
	.st2{fill:none;stroke:#000000;stroke-width:2;stroke-miterlimit:10;}
	.st3{fill:none;stroke:#0000FF;stroke-miterlimit:10;}
	.st4{fill:#FFFFFF;stroke:#0000FF;stroke-miterlimit:10;}
	.st5{fill:none;stroke:#FF0000;stroke-miterlimit:10;}
	.st6{fill:none;stroke:#00FF00;stroke-miterlimit:10;}
	.st7{fill:#FFFFFF;}
</style>
<g>
	<rect x="115" y="13" class="st0" width="90" height="17.58"/>
	<path d="M122.55,22.43h-0.77l-1.39-4.87l-1.37,4.87h-0.77l-0.73-6.36h-0.18c-0.12,0-0.2-0.02-0.25-0.07s-0.08-0.1-0.08-0.18
		s0.03-0.13,0.08-0.18s0.13-0.07,0.25-0.07h1.83c0.12,0,0.21,0.02,0.26,0.07s0.08,0.1,0.08,0.18s-0.03,0.13-0.08,0.18
		s-0.14,0.07-0.26,0.07h-1.15l0.65,5.8l1.33-4.78h0.76l1.37,4.78l0.64-5.8h-1.15c-0.12,0-0.2-0.02-0.25-0.07s-0.08-0.1-0.08-0.18
		s0.03-0.13,0.08-0.18s0.13-0.07,0.25-0.07h1.82c0.12,0,0.21,0.02,0.26,0.07s0.08,0.1,0.08,0.18s-0.03,0.13-0.08,0.18
		s-0.14,0.07-0.26,0.07h-0.18L122.55,22.43z"/>
	<path d="M129.01,22.43v-0.71c-0.71,0.6-1.48,0.9-2.29,0.9c-0.59,0-1.05-0.15-1.38-0.45s-0.5-0.67-0.5-1.1
		c0-0.48,0.22-0.89,0.66-1.25s1.08-0.53,1.92-0.53c0.23,0,0.47,0.01,0.74,0.04s0.55,0.08,0.86,0.14v-0.8c0-0.27-0.13-0.5-0.38-0.7
		s-0.63-0.3-1.13-0.3c-0.38,0-0.92,0.11-1.61,0.33c-0.13,0.04-0.21,0.06-0.24,0.06c-0.06,0-0.12-0.02-0.16-0.07
		s-0.07-0.11-0.07-0.18c0-0.07,0.02-0.12,0.06-0.16c0.05-0.06,0.28-0.14,0.66-0.24c0.61-0.16,1.07-0.25,1.38-0.25
		c0.62,0,1.11,0.15,1.45,0.46s0.52,0.65,0.52,1.04v3.26h0.66c0.12,0,0.21,0.02,0.26,0.07s0.08,0.1,0.08,0.18
		c0,0.07-0.03,0.13-0.08,0.18s-0.14,0.07-0.26,0.07H129.01z M129.01,19.98c-0.23-0.07-0.47-0.12-0.73-0.15s-0.53-0.05-0.81-0.05
		c-0.71,0-1.27,0.15-1.68,0.46c-0.3,0.23-0.46,0.51-0.46,0.83c0,0.3,0.12,0.55,0.35,0.75s0.57,0.3,1.02,0.3
		c0.43,0,0.82-0.08,1.19-0.25s0.74-0.44,1.13-0.81V19.98z"/>
	<path d="M135.23,22.43h-0.83l-2.02-4.58h-0.5c-0.12,0-0.2-0.02-0.25-0.07s-0.08-0.11-0.08-0.18c0-0.07,0.03-0.13,0.08-0.18
		s0.13-0.07,0.25-0.07h1.85c0.12,0,0.2,0.02,0.25,0.07s0.08,0.11,0.08,0.18c0,0.07-0.03,0.13-0.08,0.18s-0.13,0.07-0.25,0.07h-0.81
		l1.8,4.08h0.22l1.77-4.08h-0.82c-0.12,0-0.2-0.02-0.25-0.07s-0.08-0.11-0.08-0.18c0-0.07,0.03-0.13,0.08-0.18s0.13-0.07,0.25-0.07
		h1.85c0.12,0,0.21,0.02,0.25,0.07s0.07,0.11,0.07,0.18c0,0.07-0.02,0.13-0.07,0.18s-0.13,0.07-0.25,0.07h-0.5L135.23,22.43z"/>
	<path d="M144.66,20.01h-5.02c0.09,0.64,0.35,1.15,0.8,1.54s1,0.58,1.66,0.58c0.37,0,0.75-0.06,1.15-0.18s0.73-0.28,0.98-0.48
		c0.07-0.06,0.14-0.09,0.19-0.09c0.06,0,0.12,0.02,0.16,0.07s0.07,0.11,0.07,0.17s-0.03,0.13-0.09,0.19c-0.19,0.2-0.52,0.38-1,0.55
		s-0.97,0.25-1.47,0.25c-0.84,0-1.55-0.28-2.11-0.83s-0.85-1.22-0.85-2.01c0-0.71,0.26-1.33,0.79-1.84s1.18-0.77,1.97-0.77
		c0.8,0,1.47,0.26,1.99,0.79S144.67,19.17,144.66,20.01z M144.16,19.51c-0.1-0.54-0.35-0.98-0.77-1.32s-0.91-0.51-1.49-0.51
		s-1.07,0.17-1.48,0.5s-0.67,0.78-0.77,1.33H144.16z"/>
	<path d="M149.45,16.06v5.87h1.69c0.12,0,0.2,0.02,0.25,0.07s0.08,0.1,0.08,0.18c0,0.07-0.03,0.13-0.08,0.18s-0.13,0.07-0.25,0.07
		h-3.87c-0.12,0-0.2-0.02-0.25-0.07s-0.08-0.11-0.08-0.18c0-0.07,0.03-0.13,0.08-0.18s0.13-0.07,0.25-0.07h1.69v-5.87h-1.69
		c-0.12,0-0.2-0.02-0.25-0.07s-0.08-0.1-0.08-0.18s0.03-0.13,0.08-0.18s0.13-0.07,0.25-0.07h3.87c0.12,0,0.2,0.02,0.25,0.07
		s0.08,0.1,0.08,0.18s-0.03,0.13-0.08,0.18s-0.13,0.07-0.25,0.07H149.45z"/>
	<path d="M154.81,17.35v0.74c0.34-0.35,0.65-0.59,0.93-0.72s0.59-0.2,0.94-0.2c0.38,0,0.72,0.08,1.03,0.24
		c0.22,0.12,0.42,0.31,0.59,0.58s0.27,0.55,0.27,0.83v3.1h0.42c0.12,0,0.2,0.02,0.25,0.07s0.08,0.1,0.08,0.18
		c0,0.07-0.03,0.13-0.08,0.18s-0.13,0.07-0.25,0.07h-1.32c-0.12,0-0.21-0.02-0.26-0.07s-0.08-0.11-0.08-0.18
		c0-0.07,0.03-0.13,0.08-0.18s0.14-0.07,0.26-0.07h0.41v-3.02c0-0.35-0.13-0.64-0.38-0.88s-0.59-0.36-1.02-0.36
		c-0.32,0-0.61,0.07-0.84,0.2s-0.58,0.46-1.02,0.98v3.09h0.56c0.12,0,0.2,0.02,0.25,0.07s0.08,0.1,0.08,0.18
		c0,0.07-0.03,0.13-0.08,0.18s-0.13,0.07-0.25,0.07h-1.61c-0.12,0-0.2-0.02-0.25-0.07s-0.08-0.11-0.08-0.18
		c0-0.07,0.03-0.13,0.08-0.18s0.13-0.07,0.25-0.07h0.56v-4.08h-0.42c-0.12,0-0.2-0.02-0.25-0.07s-0.08-0.11-0.08-0.18
		c0-0.07,0.03-0.13,0.08-0.18s0.13-0.07,0.25-0.07H154.81z"/>
	<path d="M163.28,17.85v4.08h2.16c0.12,0,0.2,0.02,0.25,0.07s0.08,0.1,0.08,0.18c0,0.07-0.03,0.13-0.08,0.18s-0.13,0.07-0.25,0.07
		h-3.85c-0.12,0-0.2-0.02-0.25-0.07s-0.08-0.11-0.08-0.18c0-0.07,0.03-0.13,0.08-0.18s0.13-0.07,0.25-0.07h1.19v-4.08h-1.07
		c-0.12,0-0.2-0.02-0.25-0.07s-0.08-0.11-0.08-0.18c0-0.07,0.03-0.13,0.08-0.18s0.13-0.07,0.25-0.07h1.07v-0.74
		c0-0.41,0.17-0.77,0.5-1.08s0.78-0.46,1.34-0.46c0.46,0,0.96,0.04,1.49,0.13c0.2,0.03,0.32,0.07,0.36,0.11s0.06,0.1,0.06,0.17
		s-0.02,0.13-0.07,0.17s-0.11,0.07-0.19,0.07c-0.03,0-0.08-0.01-0.16-0.02c-0.59-0.09-1.09-0.13-1.49-0.13
		c-0.43,0-0.76,0.11-0.99,0.32s-0.35,0.45-0.35,0.72v0.74h2.3c0.12,0,0.2,0.02,0.25,0.07s0.08,0.11,0.08,0.18
		c0,0.07-0.03,0.13-0.08,0.18s-0.13,0.07-0.25,0.07H163.28z"/>
	<path d="M173.55,19.9c0,0.75-0.27,1.39-0.81,1.92s-1.18,0.8-1.94,0.8c-0.77,0-1.42-0.27-1.95-0.8s-0.8-1.17-0.8-1.92
		c0-0.75,0.27-1.39,0.8-1.92s1.19-0.8,1.95-0.8c0.76,0,1.41,0.27,1.94,0.8S173.55,19.15,173.55,19.9z M173.05,19.9
		c0-0.62-0.22-1.14-0.66-1.58s-0.97-0.65-1.6-0.65s-1.16,0.22-1.6,0.65s-0.66,0.96-0.66,1.57c0,0.61,0.22,1.13,0.66,1.57
		s0.97,0.66,1.6,0.66s1.16-0.22,1.6-0.65S173.05,20.52,173.05,19.9z"/>
	<path d="M178.25,16.06v5.87h1.28c0.12,0,0.2,0.02,0.25,0.07s0.08,0.1,0.08,0.18c0,0.07-0.03,0.13-0.08,0.18s-0.13,0.07-0.25,0.07
		h-3.05c-0.12,0-0.2-0.02-0.25-0.07s-0.08-0.11-0.08-0.18c0-0.07,0.03-0.13,0.08-0.18s0.13-0.07,0.25-0.07h1.28v-5.87h-2.02v1.71
		c0,0.12-0.02,0.21-0.07,0.26s-0.1,0.08-0.18,0.08c-0.07,0-0.13-0.03-0.18-0.08s-0.07-0.14-0.07-0.26v-2.2h5.51v2.2
		c0,0.12-0.02,0.21-0.07,0.26s-0.1,0.08-0.18,0.08s-0.13-0.03-0.18-0.08s-0.07-0.14-0.07-0.26v-1.71H178.25z"/>
	<path d="M187.87,20.01h-5.02c0.09,0.64,0.35,1.15,0.8,1.54s1,0.58,1.66,0.58c0.37,0,0.75-0.06,1.15-0.18s0.73-0.28,0.98-0.48
		c0.07-0.06,0.14-0.09,0.19-0.09c0.06,0,0.12,0.02,0.16,0.07s0.07,0.11,0.07,0.17s-0.03,0.13-0.09,0.19c-0.19,0.2-0.52,0.38-1,0.55
		s-0.97,0.25-1.47,0.25c-0.84,0-1.55-0.28-2.11-0.83s-0.85-1.22-0.85-2.01c0-0.71,0.26-1.33,0.79-1.84s1.18-0.77,1.97-0.77
		c0.8,0,1.47,0.26,1.99,0.79S187.88,19.17,187.87,20.01z M187.37,19.51c-0.1-0.54-0.35-0.98-0.77-1.32s-0.91-0.51-1.49-0.51
		s-1.07,0.17-1.48,0.5s-0.67,0.78-0.77,1.33H187.37z"/>
	<path d="M192.74,19.77l2.26,2.16c0.15,0,0.24,0.01,0.28,0.02s0.07,0.04,0.1,0.08s0.04,0.09,0.04,0.14c0,0.07-0.03,0.13-0.08,0.18
		s-0.14,0.07-0.26,0.07h-1.58c-0.12,0-0.21-0.02-0.26-0.07s-0.08-0.11-0.08-0.18c0-0.07,0.03-0.13,0.08-0.18s0.14-0.07,0.26-0.07
		h0.81l-1.92-1.83l-1.9,1.83h0.82c0.12,0,0.2,0.02,0.25,0.07s0.08,0.1,0.08,0.18c0,0.07-0.03,0.13-0.08,0.18s-0.13,0.07-0.25,0.07
		h-1.6c-0.12,0-0.2-0.02-0.25-0.07s-0.08-0.11-0.08-0.18c0-0.05,0.01-0.1,0.04-0.14s0.06-0.07,0.1-0.08s0.13-0.02,0.28-0.02
		l2.26-2.16l-2-1.92c-0.14,0-0.23-0.01-0.27-0.02s-0.07-0.04-0.1-0.09s-0.04-0.09-0.04-0.14c0-0.07,0.03-0.13,0.08-0.18
		s0.14-0.07,0.26-0.07h1.34c0.12,0,0.21,0.02,0.25,0.07s0.07,0.11,0.07,0.18c0,0.07-0.02,0.13-0.07,0.18s-0.13,0.07-0.25,0.07h-0.59
		l1.66,1.6l1.67-1.6h-0.59c-0.12,0-0.2-0.02-0.25-0.07s-0.08-0.11-0.08-0.18c0-0.07,0.03-0.13,0.08-0.18s0.14-0.07,0.26-0.07h1.34
		c0.12,0,0.2,0.02,0.25,0.07s0.08,0.11,0.08,0.18c0,0.05-0.01,0.09-0.04,0.13s-0.06,0.07-0.1,0.09s-0.13,0.02-0.27,0.02
		L192.74,19.77z"/>
	<path d="M198.6,17.35h2.67c0.12,0,0.2,0.02,0.25,0.07s0.08,0.11,0.08,0.18c0,0.07-0.03,0.13-0.08,0.18s-0.13,0.07-0.25,0.07h-2.67
		v3.28c0,0.29,0.11,0.52,0.34,0.71s0.56,0.29,1,0.29c0.33,0,0.69-0.05,1.08-0.15s0.69-0.21,0.9-0.34c0.08-0.05,0.14-0.08,0.19-0.08
		c0.06,0,0.12,0.02,0.16,0.07s0.07,0.11,0.07,0.17c0,0.06-0.03,0.11-0.08,0.16c-0.13,0.13-0.43,0.27-0.91,0.42s-0.94,0.23-1.39,0.23
		c-0.57,0-1.03-0.13-1.37-0.4s-0.51-0.63-0.51-1.09v-3.28h-0.91c-0.12,0-0.2-0.02-0.25-0.07s-0.08-0.11-0.08-0.18
		c0-0.07,0.03-0.13,0.08-0.18s0.13-0.07,0.25-0.07h0.91V15.9c0-0.12,0.02-0.2,0.07-0.25s0.11-0.08,0.18-0.08
		c0.07,0,0.13,0.03,0.18,0.08s0.07,0.13,0.07,0.25V17.35z"/>
</g>
<g>
	<rect x="10" y="13" class="st0" width="85" height="17.58"/>
	<path d="M16.74,15.57v7.88h1.2c0.12,0,0.2,0.02,0.25,0.07s0.08,0.1,0.08,0.18s-0.03,0.13-0.08,0.18s-0.13,0.07-0.25,0.07h-1.69
		v-8.87h1.69c0.12,0,0.2,0.02,0.25,0.07s0.08,0.11,0.08,0.18c0,0.07-0.03,0.13-0.08,0.18s-0.13,0.07-0.25,0.07H16.74z"/>
	<path d="M25.95,18.14v1.22c0,1.06-0.25,1.9-0.76,2.51c-0.39,0.48-0.89,0.73-1.49,0.73c-0.29,0-0.56-0.06-0.82-0.17
		s-0.47-0.28-0.65-0.48c-0.11-0.13-0.24-0.34-0.37-0.62s-0.23-0.55-0.29-0.79c-0.09-0.34-0.13-0.73-0.13-1.18v-1.22
		c0-1.06,0.25-1.9,0.76-2.52c0.39-0.48,0.89-0.73,1.49-0.73c0.29,0,0.57,0.06,0.82,0.17s0.47,0.28,0.65,0.48
		c0.12,0.13,0.24,0.34,0.38,0.63s0.23,0.54,0.29,0.78C25.91,17.3,25.95,17.69,25.95,18.14z M25.46,18.21c0-0.46-0.07-0.9-0.2-1.3
		s-0.28-0.72-0.44-0.96c-0.1-0.14-0.22-0.25-0.38-0.35c-0.22-0.14-0.47-0.21-0.75-0.21c-0.55,0-0.98,0.28-1.29,0.84
		s-0.47,1.22-0.47,1.97v1.08c0,0.46,0.07,0.9,0.2,1.3s0.28,0.72,0.45,0.96c0.09,0.13,0.22,0.25,0.38,0.35
		c0.22,0.14,0.47,0.21,0.76,0.21c0.55,0,0.98-0.28,1.29-0.85s0.47-1.22,0.47-1.97V18.21z"/>
	<path d="M30.67,23.45v-7.88h-1.19c-0.12,0-0.2-0.02-0.25-0.07s-0.08-0.11-0.08-0.18c0-0.07,0.03-0.13,0.08-0.18
		s0.13-0.07,0.25-0.07h1.69v8.87h-1.69c-0.12,0-0.2-0.02-0.25-0.07s-0.08-0.1-0.08-0.18c0-0.07,0.03-0.13,0.08-0.18
		s0.13-0.07,0.25-0.07H30.67z"/>
	<path d="M38.34,16.06v5.87h1.28c0.12,0,0.2,0.02,0.25,0.07s0.08,0.1,0.08,0.18c0,0.07-0.03,0.13-0.08,0.18s-0.13,0.07-0.25,0.07
		h-3.05c-0.12,0-0.2-0.02-0.25-0.07s-0.08-0.11-0.08-0.18c0-0.07,0.03-0.13,0.08-0.18s0.13-0.07,0.25-0.07h1.28v-5.87h-2.02v1.71
		c0,0.12-0.02,0.21-0.07,0.26s-0.1,0.08-0.18,0.08c-0.07,0-0.13-0.03-0.18-0.08s-0.07-0.14-0.07-0.26v-2.2h5.51v2.2
		c0,0.12-0.02,0.21-0.07,0.26s-0.1,0.08-0.18,0.08s-0.13-0.03-0.18-0.08s-0.07-0.14-0.07-0.26v-1.71H38.34z"/>
	<path d="M47.96,20.01h-5.02c0.09,0.64,0.35,1.15,0.8,1.54s1,0.58,1.66,0.58c0.37,0,0.75-0.06,1.15-0.18s0.73-0.28,0.98-0.48
		c0.07-0.06,0.14-0.09,0.19-0.09c0.06,0,0.12,0.02,0.16,0.07s0.07,0.11,0.07,0.17s-0.03,0.13-0.09,0.19c-0.19,0.2-0.52,0.38-1,0.55
		s-0.97,0.25-1.47,0.25c-0.84,0-1.55-0.28-2.11-0.83s-0.85-1.22-0.85-2.01c0-0.71,0.26-1.33,0.79-1.84s1.18-0.77,1.97-0.77
		c0.8,0,1.47,0.26,1.99,0.79S47.97,19.17,47.96,20.01z M47.46,19.51c-0.1-0.54-0.35-0.98-0.77-1.32s-0.91-0.51-1.49-0.51
		s-1.07,0.17-1.48,0.5s-0.67,0.78-0.77,1.33H47.46z"/>
	<path d="M52.84,19.77l2.26,2.16c0.15,0,0.24,0.01,0.28,0.02s0.07,0.04,0.1,0.08s0.04,0.09,0.04,0.14c0,0.07-0.03,0.13-0.08,0.18
		s-0.14,0.07-0.26,0.07H53.6c-0.12,0-0.21-0.02-0.26-0.07s-0.08-0.11-0.08-0.18c0-0.07,0.03-0.13,0.08-0.18s0.14-0.07,0.26-0.07
		h0.81L52.5,20.1l-1.9,1.83h0.82c0.12,0,0.2,0.02,0.25,0.07s0.08,0.1,0.08,0.18c0,0.07-0.03,0.13-0.08,0.18s-0.13,0.07-0.25,0.07
		h-1.6c-0.12,0-0.2-0.02-0.25-0.07s-0.08-0.11-0.08-0.18c0-0.05,0.01-0.1,0.04-0.14s0.06-0.07,0.1-0.08s0.13-0.02,0.28-0.02
		l2.26-2.16l-2-1.92c-0.14,0-0.23-0.01-0.27-0.02s-0.07-0.04-0.1-0.09s-0.04-0.09-0.04-0.14c0-0.07,0.03-0.13,0.08-0.18
		s0.14-0.07,0.26-0.07h1.34c0.12,0,0.21,0.02,0.25,0.07s0.07,0.11,0.07,0.18c0,0.07-0.02,0.13-0.07,0.18s-0.13,0.07-0.25,0.07h-0.59
		l1.66,1.6l1.67-1.6h-0.59c-0.12,0-0.2-0.02-0.25-0.07s-0.08-0.11-0.08-0.18c0-0.07,0.03-0.13,0.08-0.18s0.14-0.07,0.26-0.07h1.34
		c0.12,0,0.2,0.02,0.25,0.07s0.08,0.11,0.08,0.18c0,0.05-0.01,0.09-0.04,0.13s-0.06,0.07-0.1,0.09s-0.13,0.02-0.27,0.02L52.84,19.77
		z"/>
	<path d="M58.69,17.35h2.67c0.12,0,0.2,0.02,0.25,0.07s0.08,0.11,0.08,0.18c0,0.07-0.03,0.13-0.08,0.18s-0.13,0.07-0.25,0.07h-2.67
		v3.28c0,0.29,0.11,0.52,0.34,0.71s0.56,0.29,1,0.29c0.33,0,0.69-0.05,1.08-0.15s0.69-0.21,0.9-0.34c0.08-0.05,0.14-0.08,0.19-0.08
		c0.06,0,0.12,0.02,0.16,0.07s0.07,0.11,0.07,0.17c0,0.06-0.03,0.11-0.08,0.16c-0.13,0.13-0.43,0.27-0.91,0.42s-0.94,0.23-1.39,0.23
		c-0.57,0-1.03-0.13-1.37-0.4s-0.51-0.63-0.51-1.09v-3.28h-0.91c-0.12,0-0.2-0.02-0.25-0.07s-0.08-0.11-0.08-0.18
		c0-0.07,0.03-0.13,0.08-0.18s0.13-0.07,0.25-0.07h0.91V15.9c0-0.12,0.02-0.2,0.07-0.25s0.11-0.08,0.18-0.08
		c0.07,0,0.13,0.03,0.18,0.08s0.07,0.13,0.07,0.25V17.35z"/>
	<path d="M69.06,22.43h-0.77l-1.39-4.87l-1.37,4.87h-0.77l-0.73-6.36h-0.18c-0.12,0-0.2-0.02-0.25-0.07s-0.08-0.1-0.08-0.18
		s0.03-0.13,0.08-0.18s0.13-0.07,0.25-0.07h1.83c0.12,0,0.21,0.02,0.26,0.07s0.08,0.1,0.08,0.18s-0.03,0.13-0.08,0.18
		s-0.14,0.07-0.26,0.07h-1.15l0.65,5.8l1.33-4.78h0.76l1.37,4.78l0.64-5.8h-1.15c-0.12,0-0.2-0.02-0.25-0.07s-0.08-0.1-0.08-0.18
		s0.03-0.13,0.08-0.18s0.13-0.07,0.25-0.07h1.82c0.12,0,0.21,0.02,0.26,0.07s0.08,0.1,0.08,0.18s-0.03,0.13-0.08,0.18
		s-0.14,0.07-0.26,0.07h-0.18L69.06,22.43z"/>
	<path d="M75.52,22.43v-0.71c-0.71,0.6-1.48,0.9-2.29,0.9c-0.59,0-1.05-0.15-1.38-0.45s-0.5-0.67-0.5-1.1
		c0-0.48,0.22-0.89,0.66-1.25s1.08-0.53,1.92-0.53c0.23,0,0.47,0.01,0.74,0.04s0.55,0.08,0.86,0.14v-0.8c0-0.27-0.13-0.5-0.38-0.7
		s-0.63-0.3-1.13-0.3c-0.38,0-0.92,0.11-1.61,0.33c-0.13,0.04-0.21,0.06-0.24,0.06c-0.06,0-0.12-0.02-0.16-0.07
		s-0.07-0.11-0.07-0.18c0-0.07,0.02-0.12,0.06-0.16c0.05-0.06,0.28-0.14,0.66-0.24c0.61-0.16,1.07-0.25,1.38-0.25
		c0.62,0,1.11,0.15,1.45,0.46s0.52,0.65,0.52,1.04v3.26h0.66c0.12,0,0.21,0.02,0.26,0.07s0.08,0.1,0.08,0.18
		c0,0.07-0.03,0.13-0.08,0.18s-0.14,0.07-0.26,0.07H75.52z M75.52,19.98c-0.23-0.07-0.47-0.12-0.73-0.15s-0.53-0.05-0.81-0.05
		c-0.71,0-1.27,0.15-1.68,0.46c-0.3,0.23-0.46,0.51-0.46,0.83c0,0.3,0.12,0.55,0.35,0.75s0.57,0.3,1.02,0.3
		c0.43,0,0.82-0.08,1.19-0.25s0.74-0.44,1.13-0.81V19.98z"/>
	<path d="M81.74,22.43H80.9l-2.02-4.58h-0.5c-0.12,0-0.2-0.02-0.25-0.07s-0.08-0.11-0.08-0.18c0-0.07,0.03-0.13,0.08-0.18
		s0.13-0.07,0.25-0.07h1.85c0.12,0,0.2,0.02,0.25,0.07s0.08,0.11,0.08,0.18c0,0.07-0.03,0.13-0.08,0.18s-0.13,0.07-0.25,0.07h-0.81
		l1.8,4.08h0.22l1.77-4.08h-0.82c-0.12,0-0.2-0.02-0.25-0.07s-0.08-0.11-0.08-0.18c0-0.07,0.03-0.13,0.08-0.18s0.13-0.07,0.25-0.07
		h1.85c0.12,0,0.21,0.02,0.25,0.07s0.07,0.11,0.07,0.18c0,0.07-0.02,0.13-0.07,0.18s-0.13,0.07-0.25,0.07h-0.5L81.74,22.43z"/>
	<path d="M91.17,20.01h-5.02c0.09,0.64,0.35,1.15,0.8,1.54s1,0.58,1.66,0.58c0.37,0,0.75-0.06,1.15-0.18s0.73-0.28,0.98-0.48
		c0.07-0.06,0.14-0.09,0.19-0.09c0.06,0,0.12,0.02,0.16,0.07s0.07,0.11,0.07,0.17s-0.03,0.13-0.09,0.19c-0.19,0.2-0.52,0.38-1,0.55
		s-0.97,0.25-1.47,0.25c-0.84,0-1.55-0.28-2.11-0.83s-0.85-1.22-0.85-2.01c0-0.71,0.26-1.33,0.79-1.84s1.18-0.77,1.97-0.77
		c0.8,0,1.47,0.26,1.99,0.79S91.18,19.17,91.17,20.01z M90.67,19.51c-0.1-0.54-0.35-0.98-0.77-1.32s-0.91-0.51-1.49-0.51
		s-1.07,0.17-1.48,0.5s-0.67,0.78-0.77,1.33H90.67z"/>
</g>
<g>
	<rect x="225" y="13" class="st0" width="80" height="17.58"/>
	<path d="M236.44,15.57v7.88h1.2c0.12,0,0.2,0.02,0.25,0.07s0.08,0.1,0.08,0.18s-0.03,0.13-0.08,0.18s-0.13,0.07-0.25,0.07h-1.69
		v-8.87h1.69c0.12,0,0.2,0.02,0.25,0.07s0.08,0.11,0.08,0.18c0,0.07-0.03,0.13-0.08,0.18s-0.13,0.07-0.25,0.07H236.44z"/>
	<path d="M243.64,14.97v6.96h1.69c0.12,0,0.2,0.02,0.25,0.07s0.08,0.1,0.08,0.18c0,0.07-0.03,0.13-0.08,0.18s-0.13,0.07-0.25,0.07
		h-3.87c-0.12,0-0.2-0.02-0.25-0.07s-0.08-0.11-0.08-0.18c0-0.07,0.03-0.13,0.08-0.18s0.13-0.07,0.25-0.07h1.69v-6.28l-1.61,0.5
		c-0.08,0.02-0.13,0.04-0.17,0.04c-0.06,0-0.11-0.02-0.16-0.07s-0.07-0.11-0.07-0.17c0-0.06,0.02-0.11,0.06-0.16
		c0.03-0.03,0.1-0.06,0.19-0.1L243.64,14.97z"/>
	<path d="M250.37,23.45v-7.88h-1.19c-0.12,0-0.2-0.02-0.25-0.07s-0.08-0.11-0.08-0.18c0-0.07,0.03-0.13,0.08-0.18
		s0.13-0.07,0.25-0.07h1.69v8.87h-1.69c-0.12,0-0.2-0.02-0.25-0.07s-0.08-0.1-0.08-0.18c0-0.07,0.03-0.13,0.08-0.18
		s0.13-0.07,0.25-0.07H250.37z"/>
	<path d="M259.96,22.43h-0.77l-1.39-4.87l-1.37,4.87h-0.77l-0.73-6.36h-0.18c-0.12,0-0.2-0.02-0.25-0.07s-0.08-0.1-0.08-0.18
		s0.03-0.13,0.08-0.18s0.13-0.07,0.25-0.07h1.83c0.12,0,0.21,0.02,0.26,0.07s0.08,0.1,0.08,0.18s-0.03,0.13-0.08,0.18
		s-0.14,0.07-0.26,0.07h-1.15l0.65,5.8l1.33-4.78h0.76l1.37,4.78l0.64-5.8h-1.15c-0.12,0-0.2-0.02-0.25-0.07s-0.08-0.1-0.08-0.18
		s0.03-0.13,0.08-0.18s0.13-0.07,0.25-0.07h1.82c0.12,0,0.21,0.02,0.26,0.07s0.08,0.1,0.08,0.18s-0.03,0.13-0.08,0.18
		s-0.14,0.07-0.26,0.07h-0.18L259.96,22.43z"/>
	<path d="M266.42,22.43v-0.71c-0.71,0.6-1.48,0.9-2.29,0.9c-0.59,0-1.05-0.15-1.38-0.45s-0.5-0.67-0.5-1.1
		c0-0.48,0.22-0.89,0.66-1.25s1.08-0.53,1.92-0.53c0.23,0,0.47,0.01,0.74,0.04s0.55,0.08,0.86,0.14v-0.8c0-0.27-0.13-0.5-0.38-0.7
		s-0.63-0.3-1.13-0.3c-0.38,0-0.92,0.11-1.61,0.33c-0.13,0.04-0.21,0.06-0.24,0.06c-0.06,0-0.12-0.02-0.16-0.07
		s-0.07-0.11-0.07-0.18c0-0.07,0.02-0.12,0.06-0.16c0.05-0.06,0.28-0.14,0.66-0.24c0.61-0.16,1.07-0.25,1.38-0.25
		c0.62,0,1.11,0.15,1.45,0.46s0.52,0.65,0.52,1.04v3.26h0.66c0.12,0,0.21,0.02,0.26,0.07s0.08,0.1,0.08,0.18
		c0,0.07-0.03,0.13-0.08,0.18s-0.14,0.07-0.26,0.07H266.42z M266.42,19.98c-0.23-0.07-0.47-0.12-0.73-0.15s-0.53-0.05-0.81-0.05
		c-0.71,0-1.27,0.15-1.68,0.46c-0.3,0.23-0.46,0.51-0.46,0.83c0,0.3,0.12,0.55,0.35,0.75s0.57,0.3,1.02,0.3
		c0.43,0,0.82-0.08,1.19-0.25s0.74-0.44,1.13-0.81V19.98z"/>
	<path d="M272.63,22.43h-0.83l-2.02-4.58h-0.5c-0.12,0-0.2-0.02-0.25-0.07s-0.08-0.11-0.08-0.18c0-0.07,0.03-0.13,0.08-0.18
		s0.13-0.07,0.25-0.07h1.85c0.12,0,0.2,0.02,0.25,0.07s0.08,0.11,0.08,0.18c0,0.07-0.03,0.13-0.08,0.18s-0.13,0.07-0.25,0.07h-0.81
		l1.8,4.08h0.22l1.77-4.08h-0.82c-0.12,0-0.2-0.02-0.25-0.07s-0.08-0.11-0.08-0.18c0-0.07,0.03-0.13,0.08-0.18s0.13-0.07,0.25-0.07
		h1.85c0.12,0,0.21,0.02,0.25,0.07s0.07,0.11,0.07,0.18c0,0.07-0.02,0.13-0.07,0.18s-0.13,0.07-0.25,0.07h-0.5L272.63,22.43z"/>
	<path d="M282.07,20.01h-5.02c0.09,0.64,0.35,1.15,0.8,1.54s1,0.58,1.66,0.58c0.37,0,0.75-0.06,1.15-0.18s0.73-0.28,0.98-0.48
		c0.07-0.06,0.14-0.09,0.19-0.09c0.06,0,0.12,0.02,0.16,0.07s0.07,0.11,0.07,0.17s-0.03,0.13-0.09,0.19c-0.19,0.2-0.52,0.38-1,0.55
		s-0.97,0.25-1.47,0.25c-0.84,0-1.55-0.28-2.11-0.83s-0.85-1.22-0.85-2.01c0-0.71,0.26-1.33,0.79-1.84s1.18-0.77,1.97-0.77
		c0.8,0,1.47,0.26,1.99,0.79S282.07,19.17,282.07,20.01z M281.57,19.51c-0.1-0.54-0.35-0.98-0.77-1.32s-0.91-0.51-1.49-0.51
		s-1.07,0.17-1.48,0.5s-0.67,0.78-0.77,1.33H281.57z"/>
	<path d="M286.85,14.97v6.96h1.69c0.12,0,0.2,0.02,0.25,0.07s0.08,0.1,0.08,0.18c0,0.07-0.03,0.13-0.08,0.18s-0.13,0.07-0.25,0.07
		h-3.87c-0.12,0-0.2-0.02-0.25-0.07s-0.08-0.11-0.08-0.18c0-0.07,0.03-0.13,0.08-0.18s0.13-0.07,0.25-0.07h1.69v-6.28l-1.61,0.5
		c-0.08,0.02-0.13,0.04-0.17,0.04c-0.06,0-0.11-0.02-0.16-0.07s-0.07-0.11-0.07-0.17c0-0.06,0.02-0.11,0.06-0.16
		c0.03-0.03,0.1-0.06,0.19-0.1L286.85,14.97z"/>
	<path d="M291.87,21.94v-5.87h-0.42c-0.12,0-0.2-0.02-0.25-0.07s-0.08-0.1-0.08-0.18s0.03-0.13,0.08-0.18s0.13-0.07,0.25-0.07h2.65
		c0.41,0,0.79,0.09,1.13,0.26s0.6,0.37,0.78,0.59c0.31,0.37,0.54,0.76,0.7,1.18c0.11,0.3,0.17,0.66,0.17,1.07v0.68
		c0,0.5-0.11,0.99-0.33,1.46s-0.59,0.88-1.11,1.24c-0.39,0.26-0.83,0.39-1.34,0.39h-2.65c-0.12,0-0.2-0.02-0.25-0.07
		s-0.08-0.11-0.08-0.18c0-0.07,0.03-0.13,0.08-0.18s0.13-0.07,0.25-0.07H291.87z M292.37,21.94h1.79c0.41,0,0.8-0.13,1.16-0.4
		s0.63-0.59,0.81-0.97s0.27-0.75,0.27-1.12v-0.89c0-0.3-0.05-0.58-0.15-0.81c-0.14-0.35-0.34-0.68-0.6-0.99
		c-0.14-0.17-0.35-0.33-0.62-0.47s-0.57-0.21-0.88-0.21h-1.79V21.94z"/>
</g>
<rect x="225" y="10" class="st1" width="80" height="20"/>
<rect x="10" y="10" class="st1" width="85" height="20"/>
<g>
	<g>
		<line class="st2" x1="95" y1="20" x2="106.14" y2="20"/>
		<g>
			<polygon points="104.16,22.91 115,20 104.16,17.09 			"/>
		</g>
	</g>
</g>
<g>
	<g>
		<line class="st2" x1="205" y1="20" x2="216.14" y2="20"/>
		<g>
			<polygon points="214.16,22.91 225,20 214.16,17.09 			"/>
		</g>
	</g>
</g>
<rect x="115" y="10" class="st3" width="90" height="20"/>
</svg>
