<?xml version="1.0" encoding="utf-8"?>
<!-- Generator: Adobe Illustrator 24.1.1, SVG Export Plug-In . SVG Version: 6.00 Build 0)  -->
<svg version="1.1" id="レイヤー_1" xmlns="http://www.w3.org/2000/svg" xmlns:xlink="http://www.w3.org/1999/xlink" x="0px"
	 y="0px" viewBox="0 0 310 70" style="enable-background:new 0 0 310 70;" xml:space="preserve">
<style type="text/css">
	.st0{fill:none;}
	.st1{fill:none;stroke:#000000;stroke-miterlimit:10;}
	.st2{fill:none;stroke:#000000;stroke-width:2;stroke-miterlimit:10;}
	.st3{fill:none;stroke:#0000FF;stroke-miterlimit:10;}
	.st4{fill:#FFFFFF;stroke:#0000FF;stroke-miterlimit:10;}
	.st5{fill:none;stroke:#00FF00;stroke-miterlimit:10;}
</style>
<g>
	<rect x="220" y="13" class="st0" width="85" height="17.58"/>
	<path d="M226.74,15.57v7.88h1.2c0.12,0,0.2,0.02,0.25,0.07s0.08,0.1,0.08,0.18s-0.03,0.13-0.08,0.18s-0.13,0.07-0.25,0.07h-1.69
		v-8.87h1.69c0.12,0,0.2,0.02,0.25,0.07s0.08,0.11,0.08,0.18c0,0.07-0.03,0.13-0.08,0.18s-0.13,0.07-0.25,0.07H226.74z"/>
	<path d="M231.58,21.94h3.78v-0.19c0-0.12,0.02-0.2,0.07-0.25s0.11-0.08,0.18-0.08c0.07,0,0.13,0.03,0.18,0.08s0.07,0.13,0.07,0.25
		v0.69h-4.76V21.7c1-0.9,1.97-1.81,2.92-2.74c0.44-0.43,0.74-0.75,0.91-0.96s0.28-0.38,0.34-0.54s0.09-0.31,0.09-0.47
		c0-0.42-0.17-0.79-0.51-1.12s-0.75-0.49-1.23-0.49c-0.43,0-0.81,0.12-1.14,0.37s-0.55,0.55-0.64,0.91
		c-0.02,0.09-0.05,0.15-0.09,0.18c-0.05,0.04-0.1,0.06-0.16,0.06c-0.07,0-0.12-0.02-0.17-0.07s-0.07-0.1-0.07-0.16
		c0-0.19,0.1-0.44,0.31-0.76s0.49-0.57,0.85-0.76s0.73-0.28,1.11-0.28c0.61,0,1.14,0.21,1.58,0.64s0.66,0.91,0.66,1.45
		c0,0.23-0.04,0.43-0.11,0.62s-0.2,0.4-0.38,0.62s-0.5,0.56-0.96,1.02c-1.16,1.14-2.1,2.03-2.82,2.65V21.94z"/>
	<path d="M240.67,23.45v-7.88h-1.19c-0.12,0-0.2-0.02-0.25-0.07s-0.08-0.11-0.08-0.18c0-0.07,0.03-0.13,0.08-0.18
		s0.13-0.07,0.25-0.07h1.69v8.87h-1.69c-0.12,0-0.2-0.02-0.25-0.07s-0.08-0.1-0.08-0.18c0-0.07,0.03-0.13,0.08-0.18
		s0.13-0.07,0.25-0.07H240.67z"/>
	<path d="M248.46,22.43h-0.69l-2.48-6.36h-0.38c-0.09,0-0.15-0.01-0.19-0.03s-0.07-0.05-0.1-0.09s-0.04-0.08-0.04-0.13
		s0.01-0.09,0.04-0.13s0.06-0.07,0.1-0.09s0.1-0.03,0.19-0.03h1.83c0.09,0,0.16,0.01,0.2,0.03s0.07,0.05,0.09,0.09
		s0.04,0.08,0.04,0.13s-0.01,0.09-0.04,0.13s-0.06,0.07-0.1,0.09s-0.1,0.03-0.19,0.03h-0.94l2.29,5.87h0.04l2.26-5.87h-0.94
		c-0.09,0-0.16-0.01-0.2-0.03s-0.07-0.05-0.1-0.09s-0.04-0.08-0.04-0.13s0.01-0.09,0.04-0.13s0.06-0.07,0.1-0.09s0.1-0.03,0.2-0.03
		h1.83c0.09,0,0.16,0.01,0.2,0.03s0.07,0.05,0.1,0.09s0.04,0.08,0.04,0.13s-0.01,0.09-0.04,0.13s-0.06,0.07-0.1,0.09
		s-0.1,0.03-0.2,0.03h-0.38L248.46,22.43z"/>
	<path d="M256.71,22.43v-0.71c-0.71,0.6-1.48,0.9-2.29,0.9c-0.59,0-1.05-0.15-1.38-0.45s-0.5-0.67-0.5-1.1
		c0-0.48,0.22-0.89,0.66-1.25s1.08-0.53,1.92-0.53c0.23,0,0.47,0.01,0.74,0.04s0.55,0.08,0.86,0.14v-0.8c0-0.27-0.13-0.5-0.38-0.7
		s-0.63-0.3-1.13-0.3c-0.38,0-0.92,0.11-1.61,0.33c-0.13,0.04-0.21,0.06-0.24,0.06c-0.06,0-0.12-0.02-0.16-0.07
		s-0.07-0.11-0.07-0.18c0-0.07,0.02-0.12,0.06-0.16c0.05-0.06,0.28-0.14,0.66-0.24c0.61-0.16,1.07-0.25,1.38-0.25
		c0.62,0,1.11,0.15,1.45,0.46s0.52,0.65,0.52,1.04v3.26h0.66c0.12,0,0.21,0.02,0.26,0.07s0.08,0.1,0.08,0.18
		c0,0.07-0.03,0.13-0.08,0.18s-0.14,0.07-0.26,0.07H256.71z M256.71,19.98c-0.23-0.07-0.47-0.12-0.73-0.15s-0.53-0.05-0.81-0.05
		c-0.71,0-1.27,0.15-1.68,0.46c-0.3,0.23-0.46,0.51-0.46,0.83c0,0.3,0.12,0.55,0.35,0.75s0.57,0.3,1.02,0.3
		c0.43,0,0.82-0.08,1.19-0.25s0.74-0.44,1.13-0.81V19.98z"/>
	<path d="M261.91,17.35v1.24c0.64-0.58,1.12-0.95,1.44-1.12s0.61-0.25,0.88-0.25c0.29,0,0.57,0.1,0.82,0.3s0.38,0.35,0.38,0.45
		c0,0.07-0.02,0.14-0.07,0.18s-0.11,0.07-0.18,0.07c-0.04,0-0.07-0.01-0.1-0.02s-0.08-0.06-0.15-0.13
		c-0.14-0.14-0.26-0.23-0.36-0.28s-0.2-0.08-0.3-0.08c-0.21,0-0.47,0.09-0.78,0.26s-0.83,0.59-1.57,1.26v2.7h2.18
		c0.12,0,0.21,0.02,0.26,0.07s0.08,0.1,0.08,0.18c0,0.07-0.03,0.13-0.08,0.18s-0.14,0.07-0.26,0.07h-3.86
		c-0.12,0-0.2-0.02-0.25-0.07s-0.08-0.1-0.08-0.17c0-0.07,0.02-0.12,0.07-0.17s0.13-0.07,0.25-0.07h1.19v-4.1h-0.91
		c-0.12,0-0.2-0.02-0.25-0.07s-0.08-0.11-0.08-0.18c0-0.07,0.02-0.13,0.07-0.18s0.13-0.07,0.25-0.07H261.91z"/>
	<path d="M269.96,17.35v4.58h1.93c0.12,0,0.21,0.02,0.26,0.07s0.08,0.1,0.08,0.18c0,0.07-0.03,0.13-0.08,0.18s-0.14,0.07-0.26,0.07
		h-4.36c-0.12,0-0.2-0.02-0.25-0.07s-0.08-0.11-0.08-0.18c0-0.07,0.03-0.13,0.08-0.18s0.13-0.07,0.25-0.07h1.93v-4.08h-1.44
		c-0.12,0-0.2-0.02-0.25-0.07s-0.08-0.11-0.08-0.18c0-0.07,0.03-0.13,0.08-0.18s0.14-0.07,0.26-0.07H269.96z M269.94,14.83v1.27
		h-0.73v-1.27H269.94z"/>
	<path d="M278.32,22.43v-0.71c-0.71,0.6-1.48,0.9-2.29,0.9c-0.59,0-1.05-0.15-1.38-0.45s-0.5-0.67-0.5-1.1
		c0-0.48,0.22-0.89,0.66-1.25s1.08-0.53,1.92-0.53c0.23,0,0.47,0.01,0.74,0.04s0.55,0.08,0.86,0.14v-0.8c0-0.27-0.13-0.5-0.38-0.7
		s-0.63-0.3-1.13-0.3c-0.38,0-0.92,0.11-1.61,0.33c-0.13,0.04-0.21,0.06-0.24,0.06c-0.06,0-0.12-0.02-0.16-0.07
		s-0.07-0.11-0.07-0.18c0-0.07,0.02-0.12,0.06-0.16c0.05-0.06,0.28-0.14,0.66-0.24c0.61-0.16,1.07-0.25,1.38-0.25
		c0.62,0,1.11,0.15,1.45,0.46s0.52,0.65,0.52,1.04v3.26h0.66c0.12,0,0.21,0.02,0.26,0.07s0.08,0.1,0.08,0.18
		c0,0.07-0.03,0.13-0.08,0.18s-0.14,0.07-0.26,0.07H278.32z M278.32,19.98c-0.23-0.07-0.47-0.12-0.73-0.15s-0.53-0.05-0.81-0.05
		c-0.71,0-1.27,0.15-1.68,0.46c-0.3,0.23-0.46,0.51-0.46,0.83c0,0.3,0.12,0.55,0.35,0.75s0.57,0.3,1.02,0.3
		c0.43,0,0.82-0.08,1.19-0.25s0.74-0.44,1.13-0.81V19.98z"/>
	<path d="M282.25,15.07v3.26c0.59-0.77,1.31-1.16,2.15-1.16c0.72,0,1.33,0.26,1.85,0.78s0.77,1.16,0.77,1.92
		c0,0.77-0.26,1.41-0.78,1.95s-1.13,0.8-1.84,0.8c-0.86,0-1.58-0.39-2.15-1.16v0.97h-1.15c-0.12,0-0.2-0.02-0.25-0.07
		s-0.08-0.11-0.08-0.18c0-0.07,0.03-0.13,0.08-0.18s0.13-0.07,0.25-0.07h0.66v-6.36h-0.66c-0.12,0-0.2-0.02-0.25-0.07
		s-0.08-0.11-0.08-0.18c0-0.07,0.03-0.13,0.08-0.18s0.13-0.07,0.25-0.07H282.25z M286.52,19.9c0-0.62-0.21-1.15-0.64-1.58
		s-0.92-0.65-1.49-0.65s-1.07,0.22-1.49,0.65s-0.64,0.96-0.64,1.58s0.21,1.15,0.64,1.58s0.92,0.65,1.49,0.65s1.07-0.22,1.49-0.65
		S286.52,20.52,286.52,19.9z"/>
	<path d="M291.55,15.07v6.86h1.93c0.12,0,0.21,0.02,0.26,0.07s0.08,0.1,0.08,0.18c0,0.07-0.03,0.13-0.08,0.18s-0.14,0.07-0.26,0.07
		h-4.36c-0.12,0-0.2-0.02-0.25-0.07s-0.08-0.11-0.08-0.18c0-0.07,0.03-0.13,0.08-0.18s0.13-0.07,0.25-0.07h1.93v-6.36h-1.42
		c-0.12,0-0.2-0.02-0.25-0.07s-0.08-0.11-0.08-0.18c0-0.07,0.03-0.13,0.08-0.18s0.14-0.07,0.26-0.07H291.55z"/>
	<path d="M301.17,20.01h-5.02c0.09,0.64,0.35,1.15,0.8,1.54s1,0.58,1.66,0.58c0.37,0,0.75-0.06,1.15-0.18s0.73-0.28,0.98-0.48
		c0.07-0.06,0.14-0.09,0.19-0.09c0.06,0,0.12,0.02,0.16,0.07s0.07,0.11,0.07,0.17s-0.03,0.13-0.09,0.19c-0.19,0.2-0.52,0.38-1,0.55
		s-0.97,0.25-1.47,0.25c-0.84,0-1.55-0.28-2.11-0.83s-0.85-1.22-0.85-2.01c0-0.71,0.26-1.33,0.79-1.84s1.18-0.77,1.97-0.77
		c0.8,0,1.47,0.26,1.99,0.79S301.18,19.17,301.17,20.01z M300.67,19.51c-0.1-0.54-0.35-0.98-0.77-1.32s-0.91-0.51-1.49-0.51
		s-1.07,0.17-1.48,0.5s-0.67,0.78-0.77,1.33H300.67z"/>
</g>
<g>
	<rect x="10" y="13" class="st0" width="85" height="17.58"/>
	<path d="M23.94,15.57v7.88h1.2c0.12,0,0.2,0.02,0.25,0.07s0.08,0.1,0.08,0.18s-0.03,0.13-0.08,0.18s-0.13,0.07-0.25,0.07h-1.69
		v-8.87h1.69c0.12,0,0.2,0.02,0.25,0.07s0.08,0.11,0.08,0.18c0,0.07-0.03,0.13-0.08,0.18s-0.13,0.07-0.25,0.07H23.94z"/>
	<path d="M33.16,18.14v1.22c0,1.06-0.25,1.9-0.76,2.51c-0.39,0.48-0.89,0.73-1.49,0.73c-0.29,0-0.56-0.06-0.82-0.17
		s-0.47-0.28-0.65-0.48c-0.11-0.13-0.24-0.34-0.37-0.62s-0.23-0.55-0.29-0.79c-0.09-0.34-0.13-0.73-0.13-1.18v-1.22
		c0-1.06,0.25-1.9,0.76-2.52c0.39-0.48,0.89-0.73,1.49-0.73c0.29,0,0.57,0.06,0.82,0.17s0.47,0.28,0.65,0.48
		c0.12,0.13,0.24,0.34,0.38,0.63s0.23,0.54,0.29,0.78C33.11,17.3,33.16,17.69,33.16,18.14z M32.66,18.21c0-0.46-0.07-0.9-0.2-1.3
		s-0.28-0.72-0.44-0.96c-0.1-0.14-0.22-0.25-0.38-0.35c-0.22-0.14-0.47-0.21-0.75-0.21c-0.55,0-0.98,0.28-1.29,0.84
		s-0.47,1.22-0.47,1.97v1.08c0,0.46,0.07,0.9,0.2,1.3s0.28,0.72,0.45,0.96c0.09,0.13,0.22,0.25,0.38,0.35
		c0.22,0.14,0.47,0.21,0.76,0.21c0.55,0,0.98-0.28,1.29-0.85s0.47-1.22,0.47-1.97V18.21z"/>
	<path d="M37.87,23.45v-7.88h-1.19c-0.12,0-0.2-0.02-0.25-0.07s-0.08-0.11-0.08-0.18c0-0.07,0.03-0.13,0.08-0.18
		s0.13-0.07,0.25-0.07h1.69v8.87h-1.69c-0.12,0-0.2-0.02-0.25-0.07s-0.08-0.1-0.08-0.18c0-0.07,0.03-0.13,0.08-0.18
		s0.13-0.07,0.25-0.07H37.87z"/>
	<path d="M47.46,22.43h-0.77l-1.39-4.87l-1.37,4.87h-0.77l-0.73-6.36h-0.18c-0.12,0-0.2-0.02-0.25-0.07s-0.08-0.1-0.08-0.18
		s0.03-0.13,0.08-0.18s0.13-0.07,0.25-0.07h1.83c0.12,0,0.21,0.02,0.26,0.07s0.08,0.1,0.08,0.18s-0.03,0.13-0.08,0.18
		s-0.14,0.07-0.26,0.07h-1.15l0.65,5.8l1.33-4.78h0.76l1.37,4.78l0.64-5.8h-1.15c-0.12,0-0.2-0.02-0.25-0.07s-0.08-0.1-0.08-0.18
		s0.03-0.13,0.08-0.18s0.13-0.07,0.25-0.07h1.82c0.12,0,0.21,0.02,0.26,0.07s0.08,0.1,0.08,0.18s-0.03,0.13-0.08,0.18
		s-0.14,0.07-0.26,0.07h-0.18L47.46,22.43z"/>
	<path d="M53.92,22.43v-0.71c-0.71,0.6-1.48,0.9-2.29,0.9c-0.59,0-1.05-0.15-1.38-0.45s-0.5-0.67-0.5-1.1
		c0-0.48,0.22-0.89,0.66-1.25s1.08-0.53,1.92-0.53c0.23,0,0.47,0.01,0.74,0.04s0.55,0.08,0.86,0.14v-0.8c0-0.27-0.13-0.5-0.38-0.7
		s-0.63-0.3-1.13-0.3c-0.38,0-0.92,0.11-1.61,0.33c-0.13,0.04-0.21,0.06-0.24,0.06c-0.06,0-0.12-0.02-0.16-0.07
		s-0.07-0.11-0.07-0.18c0-0.07,0.02-0.12,0.06-0.16c0.05-0.06,0.28-0.14,0.66-0.24c0.61-0.16,1.07-0.25,1.38-0.25
		c0.62,0,1.11,0.15,1.45,0.46s0.52,0.65,0.52,1.04v3.26h0.66c0.12,0,0.21,0.02,0.26,0.07s0.08,0.1,0.08,0.18
		c0,0.07-0.03,0.13-0.08,0.18s-0.14,0.07-0.26,0.07H53.92z M53.92,19.98c-0.23-0.07-0.47-0.12-0.73-0.15s-0.53-0.05-0.81-0.05
		c-0.71,0-1.27,0.15-1.68,0.46c-0.3,0.23-0.46,0.51-0.46,0.83c0,0.3,0.12,0.55,0.35,0.75s0.57,0.3,1.02,0.3
		c0.43,0,0.82-0.08,1.19-0.25s0.74-0.44,1.13-0.81V19.98z"/>
	<path d="M60.13,22.43H59.3l-2.02-4.58h-0.5c-0.12,0-0.2-0.02-0.25-0.07s-0.08-0.11-0.08-0.18c0-0.07,0.03-0.13,0.08-0.18
		s0.13-0.07,0.25-0.07h1.85c0.12,0,0.2,0.02,0.25,0.07s0.08,0.11,0.08,0.18c0,0.07-0.03,0.13-0.08,0.18s-0.13,0.07-0.25,0.07h-0.81
		l1.8,4.08h0.22l1.77-4.08h-0.82c-0.12,0-0.2-0.02-0.25-0.07s-0.08-0.11-0.08-0.18c0-0.07,0.03-0.13,0.08-0.18s0.13-0.07,0.25-0.07
		h1.85c0.12,0,0.21,0.02,0.25,0.07s0.07,0.11,0.07,0.18c0,0.07-0.02,0.13-0.07,0.18s-0.13,0.07-0.25,0.07h-0.5L60.13,22.43z"/>
	<path d="M69.57,20.01h-5.02c0.09,0.64,0.35,1.15,0.8,1.54s1,0.58,1.66,0.58c0.37,0,0.75-0.06,1.15-0.18s0.73-0.28,0.98-0.48
		c0.07-0.06,0.14-0.09,0.19-0.09c0.06,0,0.12,0.02,0.16,0.07s0.07,0.11,0.07,0.17s-0.03,0.13-0.09,0.19c-0.19,0.2-0.52,0.38-1,0.55
		s-0.97,0.25-1.47,0.25c-0.84,0-1.55-0.28-2.11-0.83s-0.85-1.22-0.85-2.01c0-0.71,0.26-1.33,0.79-1.84s1.18-0.77,1.97-0.77
		c0.8,0,1.47,0.26,1.99,0.79S69.57,19.17,69.57,20.01z M69.07,19.51c-0.1-0.54-0.35-0.98-0.77-1.32s-0.91-0.51-1.49-0.51
		s-1.07,0.17-1.48,0.5s-0.67,0.78-0.77,1.33H69.07z"/>
	<path d="M74.35,14.97v6.96h1.69c0.12,0,0.2,0.02,0.25,0.07s0.08,0.1,0.08,0.18c0,0.07-0.03,0.13-0.08,0.18s-0.13,0.07-0.25,0.07
		h-3.87c-0.12,0-0.2-0.02-0.25-0.07s-0.08-0.11-0.08-0.18c0-0.07,0.03-0.13,0.08-0.18s0.13-0.07,0.25-0.07h1.69v-6.28l-1.61,0.5
		c-0.08,0.02-0.13,0.04-0.17,0.04c-0.06,0-0.11-0.02-0.16-0.07s-0.07-0.11-0.07-0.17c0-0.06,0.02-0.11,0.06-0.16
		c0.03-0.03,0.1-0.06,0.19-0.1L74.35,14.97z"/>
	<path d="M79.37,21.94v-5.87h-0.42c-0.12,0-0.2-0.02-0.25-0.07s-0.08-0.1-0.08-0.18s0.03-0.13,0.08-0.18s0.13-0.07,0.25-0.07h2.65
		c0.41,0,0.79,0.09,1.13,0.26s0.6,0.37,0.78,0.59c0.31,0.37,0.54,0.76,0.7,1.18c0.11,0.3,0.17,0.66,0.17,1.07v0.68
		c0,0.5-0.11,0.99-0.33,1.46s-0.59,0.88-1.11,1.24c-0.39,0.26-0.83,0.39-1.34,0.39h-2.65c-0.12,0-0.2-0.02-0.25-0.07
		s-0.08-0.11-0.08-0.18c0-0.07,0.03-0.13,0.08-0.18s0.13-0.07,0.25-0.07H79.37z M79.87,21.94h1.79c0.41,0,0.8-0.13,1.16-0.4
		s0.63-0.59,0.81-0.97s0.27-0.75,0.27-1.12v-0.89c0-0.3-0.05-0.58-0.15-0.81c-0.14-0.35-0.34-0.68-0.6-0.99
		c-0.14-0.17-0.35-0.33-0.62-0.47s-0.57-0.21-0.88-0.21h-1.79V21.94z"/>
</g>
<rect x="10" y="10" class="st1" width="85" height="20"/>
<rect x="220" y="10" class="st1" width="85" height="20"/>
<g>
	<g>
		<line class="st2" x1="95" y1="20" x2="106.14" y2="20"/>
		<g>
			<polygon points="104.16,22.91 115,20 104.16,17.09 			"/>
		</g>
	</g>
</g>
<g>
	<g>
		<line class="st2" x1="200" y1="20" x2="211.14" y2="20"/>
		<g>
			<polygon points="209.16,22.91 220,20 209.16,17.09 			"/>
		</g>
	</g>
</g>
<rect x="115" y="10" class="st4" width="85" height="20"/>
<g>
	<rect x="115" y="14" class="st0" width="85" height="17.58"/>
	<path d="M119.56,22.94v-5.87h-0.42c-0.12,0-0.2-0.02-0.25-0.07s-0.08-0.1-0.08-0.18s0.03-0.13,0.08-0.18s0.13-0.07,0.25-0.07h2.65
		c0.41,0,0.79,0.09,1.13,0.26s0.6,0.37,0.78,0.59c0.31,0.37,0.54,0.76,0.7,1.18c0.11,0.3,0.17,0.66,0.17,1.07v0.68
		c0,0.5-0.11,0.99-0.33,1.46s-0.59,0.88-1.11,1.24c-0.39,0.26-0.83,0.39-1.34,0.39h-2.65c-0.12,0-0.2-0.02-0.25-0.07
		s-0.08-0.11-0.08-0.18c0-0.07,0.03-0.13,0.08-0.18s0.13-0.07,0.25-0.07H119.56z M120.06,22.94h1.79c0.41,0,0.8-0.13,1.16-0.4
		s0.63-0.59,0.81-0.97s0.27-0.75,0.27-1.12v-0.89c0-0.3-0.05-0.58-0.15-0.81c-0.14-0.35-0.34-0.68-0.6-0.99
		c-0.14-0.17-0.35-0.33-0.62-0.47s-0.57-0.21-0.88-0.21h-1.79V22.94z"/>
	<path d="M131.36,21.01h-5.02c0.09,0.64,0.35,1.15,0.8,1.54s1,0.58,1.66,0.58c0.37,0,0.75-0.06,1.15-0.18s0.73-0.28,0.98-0.48
		c0.07-0.06,0.14-0.09,0.19-0.09c0.06,0,0.12,0.02,0.16,0.07s0.07,0.11,0.07,0.17s-0.03,0.13-0.09,0.19c-0.19,0.2-0.52,0.38-1,0.55
		s-0.97,0.25-1.47,0.25c-0.84,0-1.55-0.28-2.11-0.83s-0.85-1.22-0.85-2.01c0-0.71,0.26-1.33,0.79-1.84s1.18-0.77,1.97-0.77
		c0.8,0,1.47,0.26,1.99,0.79S131.37,20.17,131.36,21.01z M130.86,20.51c-0.1-0.54-0.35-0.98-0.77-1.32s-0.91-0.51-1.49-0.51
		s-1.07,0.17-1.48,0.5s-0.67,0.78-0.77,1.33H130.86z"/>
	<path d="M136.15,16.07v6.86h1.93c0.12,0,0.21,0.02,0.26,0.07s0.08,0.1,0.08,0.18c0,0.07-0.03,0.13-0.08,0.18s-0.14,0.07-0.26,0.07
		h-4.36c-0.12,0-0.2-0.02-0.25-0.07s-0.08-0.11-0.08-0.18c0-0.07,0.03-0.13,0.08-0.18s0.13-0.07,0.25-0.07h1.93v-6.36h-1.42
		c-0.12,0-0.2-0.02-0.25-0.07s-0.08-0.11-0.08-0.18c0-0.07,0.03-0.13,0.08-0.18s0.14-0.07,0.26-0.07H136.15z"/>
	<path d="M142.09,18.35h2.67c0.12,0,0.2,0.02,0.25,0.07s0.08,0.11,0.08,0.18c0,0.07-0.03,0.13-0.08,0.18s-0.13,0.07-0.25,0.07h-2.67
		v3.28c0,0.29,0.11,0.52,0.34,0.71s0.56,0.29,1,0.29c0.33,0,0.69-0.05,1.08-0.15s0.69-0.21,0.9-0.34c0.08-0.05,0.14-0.08,0.19-0.08
		c0.06,0,0.12,0.02,0.16,0.07s0.07,0.11,0.07,0.17c0,0.06-0.03,0.11-0.08,0.16c-0.13,0.13-0.43,0.27-0.91,0.42s-0.94,0.23-1.39,0.23
		c-0.57,0-1.03-0.13-1.37-0.4s-0.51-0.63-0.51-1.09v-3.28h-0.91c-0.12,0-0.2-0.02-0.25-0.07s-0.08-0.11-0.08-0.18
		c0-0.07,0.03-0.13,0.08-0.18s0.13-0.07,0.25-0.07h0.91V16.9c0-0.12,0.02-0.2,0.07-0.25s0.11-0.08,0.18-0.08
		c0.07,0,0.13,0.03,0.18,0.08s0.07,0.13,0.07,0.25V18.35z"/>
	<path d="M151.71,23.43v-0.71c-0.71,0.6-1.48,0.9-2.29,0.9c-0.59,0-1.05-0.15-1.38-0.45s-0.5-0.67-0.5-1.1
		c0-0.48,0.22-0.89,0.66-1.25s1.08-0.53,1.92-0.53c0.23,0,0.47,0.01,0.74,0.04s0.55,0.08,0.86,0.14v-0.8c0-0.27-0.13-0.5-0.38-0.7
		s-0.63-0.3-1.13-0.3c-0.38,0-0.92,0.11-1.61,0.33c-0.13,0.04-0.21,0.06-0.24,0.06c-0.06,0-0.12-0.02-0.16-0.07
		s-0.07-0.11-0.07-0.18c0-0.07,0.02-0.12,0.06-0.16c0.05-0.06,0.28-0.14,0.66-0.24c0.61-0.16,1.07-0.25,1.38-0.25
		c0.62,0,1.11,0.15,1.45,0.46s0.52,0.65,0.52,1.04v3.26h0.66c0.12,0,0.21,0.02,0.26,0.07s0.08,0.1,0.08,0.18
		c0,0.07-0.03,0.13-0.08,0.18s-0.14,0.07-0.26,0.07H151.71z M151.71,20.98c-0.23-0.07-0.47-0.12-0.73-0.15s-0.53-0.05-0.81-0.05
		c-0.71,0-1.27,0.15-1.68,0.46c-0.3,0.23-0.46,0.51-0.46,0.83c0,0.3,0.12,0.55,0.35,0.75s0.57,0.3,1.02,0.3
		c0.43,0,0.82-0.08,1.19-0.25s0.74-0.44,1.13-0.81V20.98z"/>
	<path d="M159.67,17.25V16.9c0-0.12,0.02-0.2,0.07-0.25s0.1-0.08,0.18-0.08s0.13,0.03,0.18,0.08s0.07,0.13,0.07,0.25v1.37
		c0,0.12-0.02,0.21-0.07,0.26s-0.1,0.08-0.18,0.08c-0.07,0-0.12-0.02-0.17-0.07s-0.07-0.12-0.08-0.23c-0.02-0.33-0.2-0.62-0.53-0.87
		c-0.45-0.35-0.97-0.52-1.55-0.52c-0.38,0-0.74,0.08-1.07,0.25c-0.25,0.12-0.45,0.27-0.6,0.45c-0.26,0.3-0.46,0.64-0.62,1.01
		c-0.11,0.27-0.16,0.58-0.16,0.93v0.86c0,0.73,0.27,1.37,0.8,1.91s1.15,0.81,1.85,0.81c0.42,0,0.8-0.09,1.13-0.28
		s0.66-0.46,0.97-0.83c0.07-0.08,0.14-0.12,0.22-0.12c0.07,0,0.13,0.02,0.17,0.06s0.06,0.1,0.06,0.16c0,0.09-0.08,0.23-0.25,0.41
		c-0.32,0.36-0.68,0.63-1.08,0.81s-0.81,0.27-1.22,0.27c-0.36,0-0.72-0.07-1.08-0.21c-0.28-0.11-0.51-0.23-0.7-0.37
		s-0.41-0.38-0.68-0.71s-0.45-0.64-0.55-0.93s-0.15-0.59-0.15-0.93v-1c0-0.48,0.13-0.98,0.39-1.49s0.62-0.89,1.07-1.17
		s0.94-0.41,1.47-0.41C158.38,16.41,159.08,16.69,159.67,17.25z"/>
	<path d="M163.08,16.07v3.03c0.31-0.34,0.61-0.58,0.9-0.72s0.61-0.21,0.96-0.21c0.38,0,0.71,0.07,0.98,0.2s0.49,0.34,0.67,0.62
		s0.27,0.57,0.27,0.88v3.05h0.55c0.12,0,0.21,0.02,0.25,0.07s0.07,0.1,0.07,0.18c0,0.07-0.02,0.13-0.07,0.18s-0.13,0.07-0.25,0.07
		h-1.6c-0.12,0-0.21-0.02-0.26-0.07s-0.08-0.11-0.08-0.18c0-0.07,0.03-0.13,0.08-0.18s0.14-0.07,0.26-0.07h0.55v-3.02
		c0-0.36-0.13-0.65-0.38-0.89s-0.61-0.36-1.07-0.36c-0.36,0-0.67,0.09-0.92,0.26c-0.18,0.13-0.49,0.42-0.91,0.88v3.12h0.56
		c0.12,0,0.2,0.02,0.25,0.07s0.08,0.1,0.08,0.18c0,0.07-0.03,0.13-0.08,0.18s-0.13,0.07-0.25,0.07h-1.61c-0.12,0-0.2-0.02-0.25-0.07
		s-0.08-0.11-0.08-0.18c0-0.07,0.03-0.13,0.08-0.18s0.13-0.07,0.25-0.07h0.56v-6.36h-0.66c-0.12,0-0.2-0.02-0.25-0.07
		s-0.08-0.11-0.08-0.18c0-0.07,0.03-0.13,0.08-0.18s0.13-0.07,0.25-0.07H163.08z"/>
	<path d="M173.32,23.43v-0.71c-0.71,0.6-1.48,0.9-2.29,0.9c-0.59,0-1.05-0.15-1.38-0.45s-0.5-0.67-0.5-1.1
		c0-0.48,0.22-0.89,0.66-1.25s1.08-0.53,1.92-0.53c0.23,0,0.47,0.01,0.74,0.04s0.55,0.08,0.86,0.14v-0.8c0-0.27-0.13-0.5-0.38-0.7
		s-0.63-0.3-1.13-0.3c-0.38,0-0.92,0.11-1.61,0.33c-0.13,0.04-0.21,0.06-0.24,0.06c-0.06,0-0.12-0.02-0.16-0.07
		s-0.07-0.11-0.07-0.18c0-0.07,0.02-0.12,0.06-0.16c0.05-0.06,0.28-0.14,0.66-0.24c0.61-0.16,1.07-0.25,1.38-0.25
		c0.62,0,1.11,0.15,1.45,0.46s0.52,0.65,0.52,1.04v3.26h0.66c0.12,0,0.21,0.02,0.26,0.07s0.08,0.1,0.08,0.18
		c0,0.07-0.03,0.13-0.08,0.18s-0.14,0.07-0.26,0.07H173.32z M173.32,20.98c-0.23-0.07-0.47-0.12-0.73-0.15s-0.53-0.05-0.81-0.05
		c-0.71,0-1.27,0.15-1.68,0.46c-0.3,0.23-0.46,0.51-0.46,0.83c0,0.3,0.12,0.55,0.35,0.75s0.57,0.3,1.02,0.3
		c0.43,0,0.82-0.08,1.19-0.25s0.74-0.44,1.13-0.81V20.98z"/>
	<path d="M177.51,18.35v0.74c0.34-0.35,0.65-0.59,0.93-0.72s0.59-0.2,0.94-0.2c0.38,0,0.72,0.08,1.03,0.24
		c0.22,0.12,0.42,0.31,0.59,0.58s0.27,0.55,0.27,0.83v3.1h0.42c0.12,0,0.2,0.02,0.25,0.07s0.08,0.1,0.08,0.18
		c0,0.07-0.03,0.13-0.08,0.18s-0.13,0.07-0.25,0.07h-1.32c-0.12,0-0.21-0.02-0.26-0.07s-0.08-0.11-0.08-0.18
		c0-0.07,0.03-0.13,0.08-0.18s0.14-0.07,0.26-0.07h0.41v-3.02c0-0.35-0.13-0.64-0.38-0.88s-0.59-0.36-1.02-0.36
		c-0.32,0-0.61,0.07-0.84,0.2s-0.58,0.46-1.02,0.98v3.09h0.56c0.12,0,0.2,0.02,0.25,0.07s0.08,0.1,0.08,0.18
		c0,0.07-0.03,0.13-0.08,0.18s-0.13,0.07-0.25,0.07h-1.61c-0.12,0-0.2-0.02-0.25-0.07s-0.08-0.11-0.08-0.18
		c0-0.07,0.03-0.13,0.08-0.18s0.13-0.07,0.25-0.07h0.56v-4.08h-0.42c-0.12,0-0.2-0.02-0.25-0.07s-0.08-0.11-0.08-0.18
		c0-0.07,0.03-0.13,0.08-0.18s0.13-0.07,0.25-0.07H177.51z"/>
	<path d="M187.96,19.26v-0.9h1.15c0.12,0,0.2,0.02,0.25,0.07s0.08,0.11,0.08,0.18c0,0.07-0.03,0.13-0.08,0.18s-0.13,0.07-0.25,0.07
		h-0.66v4.92c0,0.33-0.07,0.62-0.21,0.88c-0.09,0.17-0.25,0.35-0.47,0.53s-0.42,0.31-0.6,0.39s-0.42,0.12-0.72,0.12h-1.39
		c-0.12,0-0.2-0.02-0.25-0.07s-0.08-0.1-0.08-0.18s0.03-0.13,0.08-0.18s0.13-0.07,0.25-0.07l1.41,0.01c0.29,0,0.55-0.07,0.78-0.22
		s0.42-0.37,0.58-0.65c0.09-0.16,0.13-0.37,0.13-0.63v-1.48c-0.53,0.72-1.21,1.08-2.04,1.08c-0.68,0-1.26-0.25-1.75-0.75
		s-0.74-1.11-0.74-1.81s0.25-1.31,0.74-1.81s1.07-0.75,1.75-0.75C186.75,18.18,187.43,18.54,187.96,19.26z M187.96,20.74
		c0-0.58-0.2-1.07-0.59-1.46s-0.87-0.6-1.42-0.6s-1.02,0.2-1.42,0.6s-0.59,0.89-0.59,1.46c0,0.58,0.2,1.07,0.59,1.47
		s0.87,0.6,1.42,0.6s1.02-0.2,1.42-0.6S187.96,21.32,187.96,20.74z"/>
	<path d="M196.17,21.01h-5.02c0.09,0.64,0.35,1.15,0.8,1.54s1,0.58,1.66,0.58c0.37,0,0.75-0.06,1.15-0.18s0.73-0.28,0.98-0.48
		c0.07-0.06,0.14-0.09,0.19-0.09c0.06,0,0.12,0.02,0.16,0.07s0.07,0.11,0.07,0.17s-0.03,0.13-0.09,0.19c-0.19,0.2-0.52,0.38-1,0.55
		s-0.97,0.25-1.47,0.25c-0.84,0-1.55-0.28-2.11-0.83s-0.85-1.22-0.85-2.01c0-0.71,0.26-1.33,0.79-1.84s1.18-0.77,1.97-0.77
		c0.8,0,1.47,0.26,1.99,0.79S196.18,20.17,196.17,21.01z M195.67,20.51c-0.1-0.54-0.35-0.98-0.77-1.32s-0.91-0.51-1.49-0.51
		s-1.07,0.17-1.48,0.5s-0.67,0.78-0.77,1.33H195.67z"/>
</g>
<g>
	<rect x="10" y="43" class="st0" width="85" height="17.58"/>
	<path d="M16.74,45.57v7.88h1.2c0.12,0,0.2,0.02,0.25,0.07s0.08,0.1,0.08,0.18s-0.03,0.13-0.08,0.18s-0.13,0.07-0.25,0.07h-1.69
		v-8.87h1.69c0.12,0,0.2,0.02,0.25,0.07s0.08,0.11,0.08,0.18c0,0.07-0.03,0.13-0.08,0.18s-0.13,0.07-0.25,0.07H16.74z"/>
	<path d="M23.94,44.97v6.96h1.69c0.12,0,0.2,0.02,0.25,0.07s0.08,0.1,0.08,0.18c0,0.07-0.03,0.13-0.08,0.18s-0.13,0.07-0.25,0.07
		h-3.87c-0.12,0-0.2-0.02-0.25-0.07s-0.08-0.11-0.08-0.18c0-0.07,0.03-0.13,0.08-0.18s0.13-0.07,0.25-0.07h1.69v-6.28l-1.61,0.5
		c-0.08,0.02-0.13,0.04-0.17,0.04c-0.06,0-0.11-0.02-0.16-0.07s-0.07-0.11-0.07-0.17c0-0.06,0.02-0.11,0.06-0.16
		c0.03-0.03,0.1-0.06,0.19-0.1L23.94,44.97z"/>
	<path d="M30.67,53.45v-7.88h-1.19c-0.12,0-0.2-0.02-0.25-0.07s-0.08-0.11-0.08-0.18c0-0.07,0.03-0.13,0.08-0.18
		s0.13-0.07,0.25-0.07h1.69v8.87h-1.69c-0.12,0-0.2-0.02-0.25-0.07s-0.08-0.1-0.08-0.18c0-0.07,0.03-0.13,0.08-0.18
		s0.13-0.07,0.25-0.07H30.67z"/>
	<path d="M38.46,52.43h-0.69l-2.48-6.36h-0.38c-0.09,0-0.15-0.01-0.19-0.03s-0.07-0.05-0.1-0.09s-0.04-0.08-0.04-0.13
		s0.01-0.09,0.04-0.13s0.06-0.07,0.1-0.09s0.1-0.03,0.19-0.03h1.83c0.09,0,0.16,0.01,0.2,0.03s0.07,0.05,0.09,0.09
		s0.04,0.08,0.04,0.13s-0.01,0.09-0.04,0.13s-0.06,0.07-0.1,0.09s-0.1,0.03-0.19,0.03h-0.94l2.29,5.87h0.04l2.26-5.87h-0.94
		c-0.09,0-0.16-0.01-0.2-0.03s-0.07-0.05-0.1-0.09s-0.04-0.08-0.04-0.13s0.01-0.09,0.04-0.13s0.06-0.07,0.1-0.09s0.1-0.03,0.2-0.03
		h1.83c0.09,0,0.16,0.01,0.2,0.03s0.07,0.05,0.1,0.09s0.04,0.08,0.04,0.13s-0.01,0.09-0.04,0.13s-0.06,0.07-0.1,0.09
		s-0.1,0.03-0.2,0.03H40.9L38.46,52.43z"/>
	<path d="M46.71,52.43v-0.71c-0.71,0.6-1.48,0.9-2.29,0.9c-0.59,0-1.05-0.15-1.38-0.45s-0.5-0.67-0.5-1.1
		c0-0.48,0.22-0.89,0.66-1.25s1.08-0.53,1.92-0.53c0.23,0,0.47,0.01,0.74,0.04s0.55,0.08,0.86,0.14v-0.8c0-0.27-0.13-0.5-0.38-0.7
		s-0.63-0.3-1.13-0.3c-0.38,0-0.92,0.11-1.61,0.33c-0.13,0.04-0.21,0.06-0.24,0.06c-0.06,0-0.12-0.02-0.16-0.07
		s-0.07-0.11-0.07-0.18c0-0.07,0.02-0.12,0.06-0.16c0.05-0.06,0.28-0.14,0.66-0.24c0.61-0.16,1.07-0.25,1.38-0.25
		c0.62,0,1.11,0.15,1.45,0.46s0.52,0.65,0.52,1.04v3.26h0.66c0.12,0,0.21,0.02,0.26,0.07s0.08,0.1,0.08,0.18
		c0,0.07-0.03,0.13-0.08,0.18s-0.14,0.07-0.26,0.07H46.71z M46.71,49.98c-0.23-0.07-0.47-0.12-0.73-0.15s-0.53-0.05-0.81-0.05
		c-0.71,0-1.27,0.15-1.68,0.46c-0.3,0.23-0.46,0.51-0.46,0.83c0,0.3,0.12,0.55,0.35,0.75s0.57,0.3,1.02,0.3
		c0.43,0,0.82-0.08,1.19-0.25s0.74-0.44,1.13-0.81V49.98z"/>
	<path d="M51.91,47.35v1.24c0.64-0.58,1.12-0.95,1.44-1.12s0.61-0.25,0.88-0.25c0.29,0,0.57,0.1,0.82,0.3s0.38,0.35,0.38,0.45
		c0,0.07-0.02,0.14-0.07,0.18s-0.11,0.07-0.18,0.07c-0.04,0-0.07-0.01-0.1-0.02s-0.08-0.06-0.15-0.13
		c-0.14-0.14-0.26-0.23-0.36-0.28s-0.2-0.08-0.3-0.08c-0.21,0-0.47,0.09-0.78,0.26s-0.83,0.59-1.57,1.26v2.7h2.18
		c0.12,0,0.21,0.02,0.26,0.07s0.08,0.1,0.08,0.18c0,0.07-0.03,0.13-0.08,0.18s-0.14,0.07-0.26,0.07h-3.86
		c-0.12,0-0.2-0.02-0.25-0.07s-0.08-0.1-0.08-0.17c0-0.07,0.02-0.12,0.07-0.17s0.13-0.07,0.25-0.07h1.19v-4.1h-0.91
		c-0.12,0-0.2-0.02-0.25-0.07s-0.08-0.11-0.08-0.18c0-0.07,0.02-0.13,0.07-0.18s0.13-0.07,0.25-0.07H51.91z"/>
	<path d="M59.96,47.35v4.58h1.93c0.12,0,0.21,0.02,0.26,0.07s0.08,0.1,0.08,0.18c0,0.07-0.03,0.13-0.08,0.18s-0.14,0.07-0.26,0.07
		h-4.36c-0.12,0-0.2-0.02-0.25-0.07s-0.08-0.11-0.08-0.18c0-0.07,0.03-0.13,0.08-0.18s0.13-0.07,0.25-0.07h1.93v-4.08h-1.44
		c-0.12,0-0.2-0.02-0.25-0.07s-0.08-0.11-0.08-0.18c0-0.07,0.03-0.13,0.08-0.18s0.14-0.07,0.26-0.07H59.96z M59.94,44.83v1.27h-0.73
		v-1.27H59.94z"/>
	<path d="M68.32,52.43v-0.71c-0.71,0.6-1.48,0.9-2.29,0.9c-0.59,0-1.05-0.15-1.38-0.45s-0.5-0.67-0.5-1.1
		c0-0.48,0.22-0.89,0.66-1.25s1.08-0.53,1.92-0.53c0.23,0,0.47,0.01,0.74,0.04s0.55,0.08,0.86,0.14v-0.8c0-0.27-0.13-0.5-0.38-0.7
		s-0.63-0.3-1.13-0.3c-0.38,0-0.92,0.11-1.61,0.33c-0.13,0.04-0.21,0.06-0.24,0.06c-0.06,0-0.12-0.02-0.16-0.07
		s-0.07-0.11-0.07-0.18c0-0.07,0.02-0.12,0.06-0.16c0.05-0.06,0.28-0.14,0.66-0.24c0.61-0.16,1.07-0.25,1.38-0.25
		c0.62,0,1.11,0.15,1.45,0.46s0.52,0.65,0.52,1.04v3.26h0.66c0.12,0,0.21,0.02,0.26,0.07s0.08,0.1,0.08,0.18
		c0,0.07-0.03,0.13-0.08,0.18s-0.14,0.07-0.26,0.07H68.32z M68.32,49.98c-0.23-0.07-0.47-0.12-0.73-0.15s-0.53-0.05-0.81-0.05
		c-0.71,0-1.27,0.15-1.68,0.46c-0.3,0.23-0.46,0.51-0.46,0.83c0,0.3,0.12,0.55,0.35,0.75s0.57,0.3,1.02,0.3
		c0.43,0,0.82-0.08,1.19-0.25s0.74-0.44,1.13-0.81V49.98z"/>
	<path d="M72.25,45.07v3.26c0.59-0.77,1.31-1.16,2.15-1.16c0.72,0,1.33,0.26,1.85,0.78s0.77,1.16,0.77,1.92
		c0,0.77-0.26,1.41-0.78,1.95s-1.13,0.8-1.84,0.8c-0.86,0-1.58-0.39-2.15-1.16v0.97h-1.15c-0.12,0-0.2-0.02-0.25-0.07
		s-0.08-0.11-0.08-0.18c0-0.07,0.03-0.13,0.08-0.18s0.13-0.07,0.25-0.07h0.66v-6.36h-0.66c-0.12,0-0.2-0.02-0.25-0.07
		s-0.08-0.11-0.08-0.18c0-0.07,0.03-0.13,0.08-0.18s0.13-0.07,0.25-0.07H72.25z M76.52,49.9c0-0.62-0.21-1.15-0.64-1.58
		s-0.92-0.65-1.49-0.65s-1.07,0.22-1.49,0.65s-0.64,0.96-0.64,1.58s0.21,1.15,0.64,1.58s0.92,0.65,1.49,0.65s1.07-0.22,1.49-0.65
		S76.52,50.52,76.52,49.9z"/>
	<path d="M81.55,45.07v6.86h1.93c0.12,0,0.21,0.02,0.26,0.07s0.08,0.1,0.08,0.18c0,0.07-0.03,0.13-0.08,0.18s-0.14,0.07-0.26,0.07
		h-4.36c-0.12,0-0.2-0.02-0.25-0.07s-0.08-0.11-0.08-0.18c0-0.07,0.03-0.13,0.08-0.18s0.13-0.07,0.25-0.07h1.93v-6.36h-1.42
		c-0.12,0-0.2-0.02-0.25-0.07s-0.08-0.11-0.08-0.18c0-0.07,0.03-0.13,0.08-0.18s0.14-0.07,0.26-0.07H81.55z"/>
	<path d="M91.17,50.01h-5.02c0.09,0.64,0.35,1.15,0.8,1.54s1,0.58,1.66,0.58c0.37,0,0.75-0.06,1.15-0.18s0.73-0.28,0.98-0.48
		c0.07-0.06,0.14-0.09,0.19-0.09c0.06,0,0.12,0.02,0.16,0.07s0.07,0.11,0.07,0.17s-0.03,0.13-0.09,0.19c-0.19,0.2-0.52,0.38-1,0.55
		s-0.97,0.25-1.47,0.25c-0.84,0-1.55-0.28-2.11-0.83s-0.85-1.22-0.85-2.01c0-0.71,0.26-1.33,0.79-1.84s1.18-0.77,1.97-0.77
		c0.8,0,1.47,0.26,1.99,0.79S91.18,49.17,91.17,50.01z M90.67,49.51c-0.1-0.54-0.35-0.98-0.77-1.32s-0.91-0.51-1.49-0.51
		s-1.07,0.17-1.48,0.5s-0.67,0.78-0.77,1.33H90.67z"/>
</g>
<rect x="10" y="40" class="st1" width="85" height="20"/>
<polyline class="st2" points="95,50 100,50 100,20 "/>
</svg>
